G04 #@! TF.GenerationSoftware,KiCad,Pcbnew,5.1.6-c6e7f7d~86~ubuntu18.04.1*
G04 #@! TF.CreationDate,2020-07-16T21:36:01-04:00*
G04 #@! TF.ProjectId,rf-detector-r2,72662d64-6574-4656-9374-6f722d72322e,rev?*
G04 #@! TF.SameCoordinates,Original*
G04 #@! TF.FileFunction,Copper,L2,Bot*
G04 #@! TF.FilePolarity,Positive*
%FSLAX46Y46*%
G04 Gerber Fmt 4.6, Leading zero omitted, Abs format (unit mm)*
G04 Created by KiCad (PCBNEW 5.1.6-c6e7f7d~86~ubuntu18.04.1) date 2020-07-16 21:36:01*
%MOMM*%
%LPD*%
G01*
G04 APERTURE LIST*
G04 #@! TA.AperFunction,ComponentPad*
%ADD10R,1.700000X1.700000*%
G04 #@! TD*
G04 #@! TA.AperFunction,ComponentPad*
%ADD11O,1.700000X1.700000*%
G04 #@! TD*
G04 #@! TA.AperFunction,SMDPad,CuDef*
%ADD12R,4.200000X1.350000*%
G04 #@! TD*
G04 #@! TA.AperFunction,ViaPad*
%ADD13C,0.800000*%
G04 #@! TD*
G04 #@! TA.AperFunction,Conductor*
%ADD14C,0.400000*%
G04 #@! TD*
G04 #@! TA.AperFunction,Conductor*
%ADD15C,0.600000*%
G04 #@! TD*
G04 #@! TA.AperFunction,Conductor*
%ADD16C,0.200000*%
G04 #@! TD*
G04 APERTURE END LIST*
D10*
G04 #@! TO.P,J3,1*
G04 #@! TO.N,RF_DETECT*
X109800000Y-88300000D03*
D11*
G04 #@! TO.P,J3,2*
G04 #@! TO.N,RF_POW*
X112340000Y-88300000D03*
G04 #@! TO.P,J3,3*
G04 #@! TO.N,GND*
X114880000Y-88300000D03*
G04 #@! TO.P,J3,4*
X117420000Y-88300000D03*
G04 #@! TD*
D12*
G04 #@! TO.P,J1,2*
G04 #@! TO.N,GND*
X99100000Y-93975000D03*
X99100000Y-99625000D03*
G04 #@! TD*
G04 #@! TO.P,J2,2*
G04 #@! TO.N,GND*
X124900000Y-93975000D03*
X124900000Y-99625000D03*
G04 #@! TD*
D10*
G04 #@! TO.P,J4,1*
G04 #@! TO.N,GND*
X98600000Y-88300000D03*
D11*
G04 #@! TO.P,J4,2*
G04 #@! TO.N,+5V*
X101140000Y-88300000D03*
G04 #@! TD*
D13*
G04 #@! TO.N,GND*
X122900000Y-95450000D03*
X121350000Y-96200000D03*
X103850000Y-98900000D03*
X103100000Y-98100000D03*
X97700000Y-98200000D03*
X98750000Y-98200000D03*
X99800000Y-98200000D03*
X100900000Y-98200000D03*
X102000000Y-98100000D03*
X126300000Y-95400000D03*
X125200000Y-95400000D03*
X124100000Y-95400000D03*
X120357692Y-99350000D03*
X119334615Y-99350000D03*
X124100000Y-98150000D03*
X121380769Y-99350000D03*
X122250000Y-98750000D03*
X126300000Y-98150000D03*
X125200000Y-98150000D03*
X116157692Y-99350000D03*
X117180769Y-99350000D03*
X113092307Y-96750000D03*
X114115384Y-96750000D03*
X115138461Y-96750000D03*
X105923076Y-99350000D03*
X106946153Y-99350000D03*
X107969230Y-99350000D03*
X108992307Y-99350000D03*
X110015384Y-99350000D03*
X111038461Y-99350000D03*
X112061538Y-99350000D03*
X113084615Y-99350000D03*
X114107692Y-99350000D03*
X115130769Y-99350000D03*
X104900000Y-99350000D03*
X117176923Y-96750000D03*
X116153846Y-96750000D03*
X112061538Y-96750000D03*
X111038461Y-96750000D03*
X110015384Y-96750000D03*
X108992307Y-96750000D03*
X107969230Y-96750000D03*
X106946153Y-96750000D03*
X105923076Y-96750000D03*
X119382000Y-96752000D03*
X121200000Y-93600000D03*
X120002000Y-92232000D03*
X117142000Y-93312000D03*
X117132000Y-94582000D03*
X115362000Y-94902000D03*
X113952000Y-93512000D03*
X102495000Y-91171000D03*
X124890000Y-90550000D03*
X122050000Y-91150000D03*
X118250000Y-99350000D03*
X106450000Y-92940000D03*
X102552000Y-89181000D03*
X126110000Y-90520000D03*
X122150000Y-92700000D03*
X123590000Y-90550000D03*
X97940000Y-90860000D03*
X109817000Y-90697000D03*
X111310000Y-90750000D03*
X112650000Y-90730000D03*
X113890000Y-90730000D03*
X115240000Y-90780000D03*
X116360000Y-90770000D03*
X117666000Y-90763000D03*
X113800000Y-95700000D03*
X121230000Y-89430000D03*
X121850000Y-87850000D03*
X123300000Y-88700000D03*
X119100000Y-89950000D03*
X123100000Y-98150000D03*
X102000000Y-99600000D03*
X101031000Y-90670000D03*
X106800000Y-89300000D03*
X102000000Y-94000000D03*
X101850000Y-92850000D03*
X122150000Y-100200000D03*
X121350000Y-95050000D03*
X105000000Y-96200000D03*
X104150000Y-95550000D03*
X103100000Y-95500000D03*
X102000000Y-95500000D03*
X100900000Y-95400000D03*
X97700000Y-95400000D03*
X98750000Y-95400000D03*
X99800000Y-95400000D03*
X98050000Y-92550000D03*
X99250000Y-92550000D03*
X100600000Y-92550000D03*
X125800000Y-92550000D03*
X124550000Y-92550000D03*
X123300000Y-92550000D03*
X122050000Y-93950000D03*
X106450000Y-95450000D03*
X119100000Y-87750000D03*
G04 #@! TO.N,RF_DETECT*
X105485000Y-93175000D03*
G04 #@! TO.N,RF_POW*
X108174000Y-94242000D03*
G04 #@! TO.N,+5V*
X107750000Y-88300000D03*
G04 #@! TD*
D14*
G04 #@! TO.N,RF_POW*
X110840000Y-89800000D02*
X112340000Y-88300000D01*
X109487000Y-89800000D02*
X110840000Y-89800000D01*
X108174000Y-94242000D02*
X108174000Y-91113000D01*
X108174000Y-91113000D02*
X109487000Y-89800000D01*
D15*
G04 #@! TO.N,+5V*
X101140000Y-88300000D02*
X107750000Y-88300000D01*
X107750000Y-88300000D02*
X107750000Y-88300000D01*
D14*
G04 #@! TO.N,RF_DETECT*
X109794315Y-88300000D02*
X109800000Y-88300000D01*
X105485000Y-92609315D02*
X109794315Y-88300000D01*
X105485000Y-93175000D02*
X105485000Y-92609315D01*
G04 #@! TD*
D16*
G04 #@! TO.N,GND*
G36*
X97454340Y-87391190D02*
G01*
X97448548Y-87450000D01*
X97450000Y-88071000D01*
X97525000Y-88146000D01*
X98446000Y-88146000D01*
X98446000Y-88126000D01*
X98754000Y-88126000D01*
X98754000Y-88146000D01*
X99675000Y-88146000D01*
X99750000Y-88071000D01*
X99751452Y-87450000D01*
X99745660Y-87391190D01*
X99733165Y-87350000D01*
X100491831Y-87350000D01*
X100406918Y-87406737D01*
X100246737Y-87566918D01*
X100120884Y-87755271D01*
X100034194Y-87964557D01*
X99990000Y-88186735D01*
X99990000Y-88413265D01*
X100034194Y-88635443D01*
X100120884Y-88844729D01*
X100246737Y-89033082D01*
X100406918Y-89193263D01*
X100595271Y-89319116D01*
X100804557Y-89405806D01*
X101026735Y-89450000D01*
X101253265Y-89450000D01*
X101475443Y-89405806D01*
X101684729Y-89319116D01*
X101873082Y-89193263D01*
X102033263Y-89033082D01*
X102122185Y-88900000D01*
X107387997Y-88900000D01*
X107418426Y-88920332D01*
X107545818Y-88973099D01*
X107681056Y-89000000D01*
X107818944Y-89000000D01*
X107954182Y-88973099D01*
X108081574Y-88920332D01*
X108196224Y-88843726D01*
X108293726Y-88746224D01*
X108370332Y-88631574D01*
X108423099Y-88504182D01*
X108450000Y-88368944D01*
X108450000Y-88231056D01*
X108423099Y-88095818D01*
X108370332Y-87968426D01*
X108293726Y-87853776D01*
X108196224Y-87756274D01*
X108081574Y-87679668D01*
X107954182Y-87626901D01*
X107818944Y-87600000D01*
X107681056Y-87600000D01*
X107545818Y-87626901D01*
X107418426Y-87679668D01*
X107387997Y-87700000D01*
X102122185Y-87700000D01*
X102033263Y-87566918D01*
X101873082Y-87406737D01*
X101788169Y-87350000D01*
X108666836Y-87350000D01*
X108654341Y-87391190D01*
X108648549Y-87450000D01*
X108648549Y-88738659D01*
X105148819Y-92238391D01*
X105129737Y-92254051D01*
X105067255Y-92330186D01*
X105020826Y-92417048D01*
X104992235Y-92511298D01*
X104982581Y-92609315D01*
X104985001Y-92633884D01*
X104985001Y-92685049D01*
X104941274Y-92728776D01*
X104864668Y-92843426D01*
X104811901Y-92970818D01*
X104785000Y-93106056D01*
X104785000Y-93243944D01*
X104811901Y-93379182D01*
X104864668Y-93506574D01*
X104941274Y-93621224D01*
X105038776Y-93718726D01*
X105153426Y-93795332D01*
X105280818Y-93848099D01*
X105416056Y-93875000D01*
X105553944Y-93875000D01*
X105689182Y-93848099D01*
X105816574Y-93795332D01*
X105931224Y-93718726D01*
X106028726Y-93621224D01*
X106105332Y-93506574D01*
X106158099Y-93379182D01*
X106185000Y-93243944D01*
X106185000Y-93106056D01*
X106158099Y-92970818D01*
X106105332Y-92843426D01*
X106046317Y-92755103D01*
X107673091Y-91128330D01*
X107674001Y-91137570D01*
X107674000Y-93752050D01*
X107630274Y-93795776D01*
X107553668Y-93910426D01*
X107500901Y-94037818D01*
X107474000Y-94173056D01*
X107474000Y-94310944D01*
X107500901Y-94446182D01*
X107553668Y-94573574D01*
X107630274Y-94688224D01*
X107727776Y-94785726D01*
X107842426Y-94862332D01*
X107969818Y-94915099D01*
X108105056Y-94942000D01*
X108242944Y-94942000D01*
X108378182Y-94915099D01*
X108505574Y-94862332D01*
X108620224Y-94785726D01*
X108717726Y-94688224D01*
X108743266Y-94650000D01*
X122498548Y-94650000D01*
X122504340Y-94708810D01*
X122521495Y-94765361D01*
X122549352Y-94817478D01*
X122586841Y-94863159D01*
X122632522Y-94900648D01*
X122684639Y-94928505D01*
X122741190Y-94945660D01*
X122800000Y-94951452D01*
X124671000Y-94950000D01*
X124746000Y-94875000D01*
X124746000Y-94129000D01*
X122575000Y-94129000D01*
X122500000Y-94204000D01*
X122498548Y-94650000D01*
X108743266Y-94650000D01*
X108794332Y-94573574D01*
X108847099Y-94446182D01*
X108874000Y-94310944D01*
X108874000Y-94173056D01*
X108847099Y-94037818D01*
X108794332Y-93910426D01*
X108717726Y-93795776D01*
X108674000Y-93752050D01*
X108674000Y-93300000D01*
X122498548Y-93300000D01*
X122500000Y-93746000D01*
X122575000Y-93821000D01*
X124746000Y-93821000D01*
X124746000Y-93075000D01*
X124671000Y-93000000D01*
X122800000Y-92998548D01*
X122741190Y-93004340D01*
X122684639Y-93021495D01*
X122632522Y-93049352D01*
X122586841Y-93086841D01*
X122549352Y-93132522D01*
X122521495Y-93184639D01*
X122504340Y-93241190D01*
X122498548Y-93300000D01*
X108674000Y-93300000D01*
X108674000Y-91320105D01*
X109694107Y-90300000D01*
X110815440Y-90300000D01*
X110840000Y-90302419D01*
X110864560Y-90300000D01*
X110938017Y-90292765D01*
X111032267Y-90264175D01*
X111119129Y-90217746D01*
X111195264Y-90155264D01*
X111210929Y-90136176D01*
X111959828Y-89387278D01*
X112004557Y-89405806D01*
X112226735Y-89450000D01*
X112453265Y-89450000D01*
X112675443Y-89405806D01*
X112884729Y-89319116D01*
X113073082Y-89193263D01*
X113233263Y-89033082D01*
X113359116Y-88844729D01*
X113445806Y-88635443D01*
X113446812Y-88630385D01*
X113778472Y-88630385D01*
X113864092Y-88838934D01*
X113988753Y-89026772D01*
X114147664Y-89186681D01*
X114334719Y-89312515D01*
X114542728Y-89399439D01*
X114549617Y-89401520D01*
X114726000Y-89363912D01*
X114726000Y-88454000D01*
X115034000Y-88454000D01*
X115034000Y-89363912D01*
X115210383Y-89401520D01*
X115217272Y-89399439D01*
X115425281Y-89312515D01*
X115612336Y-89186681D01*
X115771247Y-89026772D01*
X115895908Y-88838934D01*
X115981528Y-88630385D01*
X116318472Y-88630385D01*
X116404092Y-88838934D01*
X116528753Y-89026772D01*
X116687664Y-89186681D01*
X116874719Y-89312515D01*
X117082728Y-89399439D01*
X117089617Y-89401520D01*
X117266000Y-89363912D01*
X117266000Y-88454000D01*
X117574000Y-88454000D01*
X117574000Y-89363912D01*
X117750383Y-89401520D01*
X117757272Y-89399439D01*
X117965281Y-89312515D01*
X118152336Y-89186681D01*
X118311247Y-89026772D01*
X118435908Y-88838934D01*
X118521528Y-88630385D01*
X118484650Y-88454000D01*
X117574000Y-88454000D01*
X117266000Y-88454000D01*
X116355350Y-88454000D01*
X116318472Y-88630385D01*
X115981528Y-88630385D01*
X115944650Y-88454000D01*
X115034000Y-88454000D01*
X114726000Y-88454000D01*
X113815350Y-88454000D01*
X113778472Y-88630385D01*
X113446812Y-88630385D01*
X113490000Y-88413265D01*
X113490000Y-88186735D01*
X113445806Y-87964557D01*
X113359116Y-87755271D01*
X113233263Y-87566918D01*
X113073082Y-87406737D01*
X112988169Y-87350000D01*
X114241789Y-87350000D01*
X114147664Y-87413319D01*
X113988753Y-87573228D01*
X113864092Y-87761066D01*
X113778472Y-87969615D01*
X113815350Y-88146000D01*
X114726000Y-88146000D01*
X114726000Y-88126000D01*
X115034000Y-88126000D01*
X115034000Y-88146000D01*
X115944650Y-88146000D01*
X115981528Y-87969615D01*
X115895908Y-87761066D01*
X115771247Y-87573228D01*
X115612336Y-87413319D01*
X115518211Y-87350000D01*
X116781789Y-87350000D01*
X116687664Y-87413319D01*
X116528753Y-87573228D01*
X116404092Y-87761066D01*
X116318472Y-87969615D01*
X116355350Y-88146000D01*
X117266000Y-88146000D01*
X117266000Y-88126000D01*
X117574000Y-88126000D01*
X117574000Y-88146000D01*
X118484650Y-88146000D01*
X118521528Y-87969615D01*
X118435908Y-87761066D01*
X118311247Y-87573228D01*
X118152336Y-87413319D01*
X118058211Y-87350000D01*
X126650000Y-87350000D01*
X126650000Y-92998820D01*
X125129000Y-93000000D01*
X125054000Y-93075000D01*
X125054000Y-93821000D01*
X125074000Y-93821000D01*
X125074000Y-94129000D01*
X125054000Y-94129000D01*
X125054000Y-94875000D01*
X125129000Y-94950000D01*
X126650001Y-94951180D01*
X126650001Y-98648820D01*
X125129000Y-98650000D01*
X125054000Y-98725000D01*
X125054000Y-99471000D01*
X125074000Y-99471000D01*
X125074000Y-99779000D01*
X125054000Y-99779000D01*
X125054000Y-100525000D01*
X125129000Y-100600000D01*
X126650001Y-100601180D01*
X126650001Y-100650000D01*
X97350000Y-100650000D01*
X97350000Y-100601180D01*
X98871000Y-100600000D01*
X98946000Y-100525000D01*
X98946000Y-99779000D01*
X99254000Y-99779000D01*
X99254000Y-100525000D01*
X99329000Y-100600000D01*
X101200000Y-100601452D01*
X101258810Y-100595660D01*
X101315361Y-100578505D01*
X101367478Y-100550648D01*
X101413159Y-100513159D01*
X101450648Y-100467478D01*
X101478505Y-100415361D01*
X101495660Y-100358810D01*
X101501452Y-100300000D01*
X122498548Y-100300000D01*
X122504340Y-100358810D01*
X122521495Y-100415361D01*
X122549352Y-100467478D01*
X122586841Y-100513159D01*
X122632522Y-100550648D01*
X122684639Y-100578505D01*
X122741190Y-100595660D01*
X122800000Y-100601452D01*
X124671000Y-100600000D01*
X124746000Y-100525000D01*
X124746000Y-99779000D01*
X122575000Y-99779000D01*
X122500000Y-99854000D01*
X122498548Y-100300000D01*
X101501452Y-100300000D01*
X101500000Y-99854000D01*
X101425000Y-99779000D01*
X99254000Y-99779000D01*
X98946000Y-99779000D01*
X98926000Y-99779000D01*
X98926000Y-99471000D01*
X98946000Y-99471000D01*
X98946000Y-98725000D01*
X99254000Y-98725000D01*
X99254000Y-99471000D01*
X101425000Y-99471000D01*
X101500000Y-99396000D01*
X101501452Y-98950000D01*
X122498548Y-98950000D01*
X122500000Y-99396000D01*
X122575000Y-99471000D01*
X124746000Y-99471000D01*
X124746000Y-98725000D01*
X124671000Y-98650000D01*
X122800000Y-98648548D01*
X122741190Y-98654340D01*
X122684639Y-98671495D01*
X122632522Y-98699352D01*
X122586841Y-98736841D01*
X122549352Y-98782522D01*
X122521495Y-98834639D01*
X122504340Y-98891190D01*
X122498548Y-98950000D01*
X101501452Y-98950000D01*
X101495660Y-98891190D01*
X101478505Y-98834639D01*
X101450648Y-98782522D01*
X101413159Y-98736841D01*
X101367478Y-98699352D01*
X101315361Y-98671495D01*
X101258810Y-98654340D01*
X101200000Y-98648548D01*
X99329000Y-98650000D01*
X99254000Y-98725000D01*
X98946000Y-98725000D01*
X98871000Y-98650000D01*
X97350000Y-98648820D01*
X97350000Y-94951180D01*
X98871000Y-94950000D01*
X98946000Y-94875000D01*
X98946000Y-94129000D01*
X99254000Y-94129000D01*
X99254000Y-94875000D01*
X99329000Y-94950000D01*
X101200000Y-94951452D01*
X101258810Y-94945660D01*
X101315361Y-94928505D01*
X101367478Y-94900648D01*
X101413159Y-94863159D01*
X101450648Y-94817478D01*
X101478505Y-94765361D01*
X101495660Y-94708810D01*
X101501452Y-94650000D01*
X101500000Y-94204000D01*
X101425000Y-94129000D01*
X99254000Y-94129000D01*
X98946000Y-94129000D01*
X98926000Y-94129000D01*
X98926000Y-93821000D01*
X98946000Y-93821000D01*
X98946000Y-93075000D01*
X99254000Y-93075000D01*
X99254000Y-93821000D01*
X101425000Y-93821000D01*
X101500000Y-93746000D01*
X101501452Y-93300000D01*
X101495660Y-93241190D01*
X101478505Y-93184639D01*
X101450648Y-93132522D01*
X101413159Y-93086841D01*
X101367478Y-93049352D01*
X101315361Y-93021495D01*
X101258810Y-93004340D01*
X101200000Y-92998548D01*
X99329000Y-93000000D01*
X99254000Y-93075000D01*
X98946000Y-93075000D01*
X98871000Y-93000000D01*
X97350000Y-92998820D01*
X97350000Y-89150000D01*
X97448548Y-89150000D01*
X97454340Y-89208810D01*
X97471495Y-89265361D01*
X97499352Y-89317478D01*
X97536841Y-89363159D01*
X97582522Y-89400648D01*
X97634639Y-89428505D01*
X97691190Y-89445660D01*
X97750000Y-89451452D01*
X98371000Y-89450000D01*
X98446000Y-89375000D01*
X98446000Y-88454000D01*
X98754000Y-88454000D01*
X98754000Y-89375000D01*
X98829000Y-89450000D01*
X99450000Y-89451452D01*
X99508810Y-89445660D01*
X99565361Y-89428505D01*
X99617478Y-89400648D01*
X99663159Y-89363159D01*
X99700648Y-89317478D01*
X99728505Y-89265361D01*
X99745660Y-89208810D01*
X99751452Y-89150000D01*
X99750000Y-88529000D01*
X99675000Y-88454000D01*
X98754000Y-88454000D01*
X98446000Y-88454000D01*
X97525000Y-88454000D01*
X97450000Y-88529000D01*
X97448548Y-89150000D01*
X97350000Y-89150000D01*
X97350000Y-87350000D01*
X97466835Y-87350000D01*
X97454340Y-87391190D01*
G37*
X97454340Y-87391190D02*
X97448548Y-87450000D01*
X97450000Y-88071000D01*
X97525000Y-88146000D01*
X98446000Y-88146000D01*
X98446000Y-88126000D01*
X98754000Y-88126000D01*
X98754000Y-88146000D01*
X99675000Y-88146000D01*
X99750000Y-88071000D01*
X99751452Y-87450000D01*
X99745660Y-87391190D01*
X99733165Y-87350000D01*
X100491831Y-87350000D01*
X100406918Y-87406737D01*
X100246737Y-87566918D01*
X100120884Y-87755271D01*
X100034194Y-87964557D01*
X99990000Y-88186735D01*
X99990000Y-88413265D01*
X100034194Y-88635443D01*
X100120884Y-88844729D01*
X100246737Y-89033082D01*
X100406918Y-89193263D01*
X100595271Y-89319116D01*
X100804557Y-89405806D01*
X101026735Y-89450000D01*
X101253265Y-89450000D01*
X101475443Y-89405806D01*
X101684729Y-89319116D01*
X101873082Y-89193263D01*
X102033263Y-89033082D01*
X102122185Y-88900000D01*
X107387997Y-88900000D01*
X107418426Y-88920332D01*
X107545818Y-88973099D01*
X107681056Y-89000000D01*
X107818944Y-89000000D01*
X107954182Y-88973099D01*
X108081574Y-88920332D01*
X108196224Y-88843726D01*
X108293726Y-88746224D01*
X108370332Y-88631574D01*
X108423099Y-88504182D01*
X108450000Y-88368944D01*
X108450000Y-88231056D01*
X108423099Y-88095818D01*
X108370332Y-87968426D01*
X108293726Y-87853776D01*
X108196224Y-87756274D01*
X108081574Y-87679668D01*
X107954182Y-87626901D01*
X107818944Y-87600000D01*
X107681056Y-87600000D01*
X107545818Y-87626901D01*
X107418426Y-87679668D01*
X107387997Y-87700000D01*
X102122185Y-87700000D01*
X102033263Y-87566918D01*
X101873082Y-87406737D01*
X101788169Y-87350000D01*
X108666836Y-87350000D01*
X108654341Y-87391190D01*
X108648549Y-87450000D01*
X108648549Y-88738659D01*
X105148819Y-92238391D01*
X105129737Y-92254051D01*
X105067255Y-92330186D01*
X105020826Y-92417048D01*
X104992235Y-92511298D01*
X104982581Y-92609315D01*
X104985001Y-92633884D01*
X104985001Y-92685049D01*
X104941274Y-92728776D01*
X104864668Y-92843426D01*
X104811901Y-92970818D01*
X104785000Y-93106056D01*
X104785000Y-93243944D01*
X104811901Y-93379182D01*
X104864668Y-93506574D01*
X104941274Y-93621224D01*
X105038776Y-93718726D01*
X105153426Y-93795332D01*
X105280818Y-93848099D01*
X105416056Y-93875000D01*
X105553944Y-93875000D01*
X105689182Y-93848099D01*
X105816574Y-93795332D01*
X105931224Y-93718726D01*
X106028726Y-93621224D01*
X106105332Y-93506574D01*
X106158099Y-93379182D01*
X106185000Y-93243944D01*
X106185000Y-93106056D01*
X106158099Y-92970818D01*
X106105332Y-92843426D01*
X106046317Y-92755103D01*
X107673091Y-91128330D01*
X107674001Y-91137570D01*
X107674000Y-93752050D01*
X107630274Y-93795776D01*
X107553668Y-93910426D01*
X107500901Y-94037818D01*
X107474000Y-94173056D01*
X107474000Y-94310944D01*
X107500901Y-94446182D01*
X107553668Y-94573574D01*
X107630274Y-94688224D01*
X107727776Y-94785726D01*
X107842426Y-94862332D01*
X107969818Y-94915099D01*
X108105056Y-94942000D01*
X108242944Y-94942000D01*
X108378182Y-94915099D01*
X108505574Y-94862332D01*
X108620224Y-94785726D01*
X108717726Y-94688224D01*
X108743266Y-94650000D01*
X122498548Y-94650000D01*
X122504340Y-94708810D01*
X122521495Y-94765361D01*
X122549352Y-94817478D01*
X122586841Y-94863159D01*
X122632522Y-94900648D01*
X122684639Y-94928505D01*
X122741190Y-94945660D01*
X122800000Y-94951452D01*
X124671000Y-94950000D01*
X124746000Y-94875000D01*
X124746000Y-94129000D01*
X122575000Y-94129000D01*
X122500000Y-94204000D01*
X122498548Y-94650000D01*
X108743266Y-94650000D01*
X108794332Y-94573574D01*
X108847099Y-94446182D01*
X108874000Y-94310944D01*
X108874000Y-94173056D01*
X108847099Y-94037818D01*
X108794332Y-93910426D01*
X108717726Y-93795776D01*
X108674000Y-93752050D01*
X108674000Y-93300000D01*
X122498548Y-93300000D01*
X122500000Y-93746000D01*
X122575000Y-93821000D01*
X124746000Y-93821000D01*
X124746000Y-93075000D01*
X124671000Y-93000000D01*
X122800000Y-92998548D01*
X122741190Y-93004340D01*
X122684639Y-93021495D01*
X122632522Y-93049352D01*
X122586841Y-93086841D01*
X122549352Y-93132522D01*
X122521495Y-93184639D01*
X122504340Y-93241190D01*
X122498548Y-93300000D01*
X108674000Y-93300000D01*
X108674000Y-91320105D01*
X109694107Y-90300000D01*
X110815440Y-90300000D01*
X110840000Y-90302419D01*
X110864560Y-90300000D01*
X110938017Y-90292765D01*
X111032267Y-90264175D01*
X111119129Y-90217746D01*
X111195264Y-90155264D01*
X111210929Y-90136176D01*
X111959828Y-89387278D01*
X112004557Y-89405806D01*
X112226735Y-89450000D01*
X112453265Y-89450000D01*
X112675443Y-89405806D01*
X112884729Y-89319116D01*
X113073082Y-89193263D01*
X113233263Y-89033082D01*
X113359116Y-88844729D01*
X113445806Y-88635443D01*
X113446812Y-88630385D01*
X113778472Y-88630385D01*
X113864092Y-88838934D01*
X113988753Y-89026772D01*
X114147664Y-89186681D01*
X114334719Y-89312515D01*
X114542728Y-89399439D01*
X114549617Y-89401520D01*
X114726000Y-89363912D01*
X114726000Y-88454000D01*
X115034000Y-88454000D01*
X115034000Y-89363912D01*
X115210383Y-89401520D01*
X115217272Y-89399439D01*
X115425281Y-89312515D01*
X115612336Y-89186681D01*
X115771247Y-89026772D01*
X115895908Y-88838934D01*
X115981528Y-88630385D01*
X116318472Y-88630385D01*
X116404092Y-88838934D01*
X116528753Y-89026772D01*
X116687664Y-89186681D01*
X116874719Y-89312515D01*
X117082728Y-89399439D01*
X117089617Y-89401520D01*
X117266000Y-89363912D01*
X117266000Y-88454000D01*
X117574000Y-88454000D01*
X117574000Y-89363912D01*
X117750383Y-89401520D01*
X117757272Y-89399439D01*
X117965281Y-89312515D01*
X118152336Y-89186681D01*
X118311247Y-89026772D01*
X118435908Y-88838934D01*
X118521528Y-88630385D01*
X118484650Y-88454000D01*
X117574000Y-88454000D01*
X117266000Y-88454000D01*
X116355350Y-88454000D01*
X116318472Y-88630385D01*
X115981528Y-88630385D01*
X115944650Y-88454000D01*
X115034000Y-88454000D01*
X114726000Y-88454000D01*
X113815350Y-88454000D01*
X113778472Y-88630385D01*
X113446812Y-88630385D01*
X113490000Y-88413265D01*
X113490000Y-88186735D01*
X113445806Y-87964557D01*
X113359116Y-87755271D01*
X113233263Y-87566918D01*
X113073082Y-87406737D01*
X112988169Y-87350000D01*
X114241789Y-87350000D01*
X114147664Y-87413319D01*
X113988753Y-87573228D01*
X113864092Y-87761066D01*
X113778472Y-87969615D01*
X113815350Y-88146000D01*
X114726000Y-88146000D01*
X114726000Y-88126000D01*
X115034000Y-88126000D01*
X115034000Y-88146000D01*
X115944650Y-88146000D01*
X115981528Y-87969615D01*
X115895908Y-87761066D01*
X115771247Y-87573228D01*
X115612336Y-87413319D01*
X115518211Y-87350000D01*
X116781789Y-87350000D01*
X116687664Y-87413319D01*
X116528753Y-87573228D01*
X116404092Y-87761066D01*
X116318472Y-87969615D01*
X116355350Y-88146000D01*
X117266000Y-88146000D01*
X117266000Y-88126000D01*
X117574000Y-88126000D01*
X117574000Y-88146000D01*
X118484650Y-88146000D01*
X118521528Y-87969615D01*
X118435908Y-87761066D01*
X118311247Y-87573228D01*
X118152336Y-87413319D01*
X118058211Y-87350000D01*
X126650000Y-87350000D01*
X126650000Y-92998820D01*
X125129000Y-93000000D01*
X125054000Y-93075000D01*
X125054000Y-93821000D01*
X125074000Y-93821000D01*
X125074000Y-94129000D01*
X125054000Y-94129000D01*
X125054000Y-94875000D01*
X125129000Y-94950000D01*
X126650001Y-94951180D01*
X126650001Y-98648820D01*
X125129000Y-98650000D01*
X125054000Y-98725000D01*
X125054000Y-99471000D01*
X125074000Y-99471000D01*
X125074000Y-99779000D01*
X125054000Y-99779000D01*
X125054000Y-100525000D01*
X125129000Y-100600000D01*
X126650001Y-100601180D01*
X126650001Y-100650000D01*
X97350000Y-100650000D01*
X97350000Y-100601180D01*
X98871000Y-100600000D01*
X98946000Y-100525000D01*
X98946000Y-99779000D01*
X99254000Y-99779000D01*
X99254000Y-100525000D01*
X99329000Y-100600000D01*
X101200000Y-100601452D01*
X101258810Y-100595660D01*
X101315361Y-100578505D01*
X101367478Y-100550648D01*
X101413159Y-100513159D01*
X101450648Y-100467478D01*
X101478505Y-100415361D01*
X101495660Y-100358810D01*
X101501452Y-100300000D01*
X122498548Y-100300000D01*
X122504340Y-100358810D01*
X122521495Y-100415361D01*
X122549352Y-100467478D01*
X122586841Y-100513159D01*
X122632522Y-100550648D01*
X122684639Y-100578505D01*
X122741190Y-100595660D01*
X122800000Y-100601452D01*
X124671000Y-100600000D01*
X124746000Y-100525000D01*
X124746000Y-99779000D01*
X122575000Y-99779000D01*
X122500000Y-99854000D01*
X122498548Y-100300000D01*
X101501452Y-100300000D01*
X101500000Y-99854000D01*
X101425000Y-99779000D01*
X99254000Y-99779000D01*
X98946000Y-99779000D01*
X98926000Y-99779000D01*
X98926000Y-99471000D01*
X98946000Y-99471000D01*
X98946000Y-98725000D01*
X99254000Y-98725000D01*
X99254000Y-99471000D01*
X101425000Y-99471000D01*
X101500000Y-99396000D01*
X101501452Y-98950000D01*
X122498548Y-98950000D01*
X122500000Y-99396000D01*
X122575000Y-99471000D01*
X124746000Y-99471000D01*
X124746000Y-98725000D01*
X124671000Y-98650000D01*
X122800000Y-98648548D01*
X122741190Y-98654340D01*
X122684639Y-98671495D01*
X122632522Y-98699352D01*
X122586841Y-98736841D01*
X122549352Y-98782522D01*
X122521495Y-98834639D01*
X122504340Y-98891190D01*
X122498548Y-98950000D01*
X101501452Y-98950000D01*
X101495660Y-98891190D01*
X101478505Y-98834639D01*
X101450648Y-98782522D01*
X101413159Y-98736841D01*
X101367478Y-98699352D01*
X101315361Y-98671495D01*
X101258810Y-98654340D01*
X101200000Y-98648548D01*
X99329000Y-98650000D01*
X99254000Y-98725000D01*
X98946000Y-98725000D01*
X98871000Y-98650000D01*
X97350000Y-98648820D01*
X97350000Y-94951180D01*
X98871000Y-94950000D01*
X98946000Y-94875000D01*
X98946000Y-94129000D01*
X99254000Y-94129000D01*
X99254000Y-94875000D01*
X99329000Y-94950000D01*
X101200000Y-94951452D01*
X101258810Y-94945660D01*
X101315361Y-94928505D01*
X101367478Y-94900648D01*
X101413159Y-94863159D01*
X101450648Y-94817478D01*
X101478505Y-94765361D01*
X101495660Y-94708810D01*
X101501452Y-94650000D01*
X101500000Y-94204000D01*
X101425000Y-94129000D01*
X99254000Y-94129000D01*
X98946000Y-94129000D01*
X98926000Y-94129000D01*
X98926000Y-93821000D01*
X98946000Y-93821000D01*
X98946000Y-93075000D01*
X99254000Y-93075000D01*
X99254000Y-93821000D01*
X101425000Y-93821000D01*
X101500000Y-93746000D01*
X101501452Y-93300000D01*
X101495660Y-93241190D01*
X101478505Y-93184639D01*
X101450648Y-93132522D01*
X101413159Y-93086841D01*
X101367478Y-93049352D01*
X101315361Y-93021495D01*
X101258810Y-93004340D01*
X101200000Y-92998548D01*
X99329000Y-93000000D01*
X99254000Y-93075000D01*
X98946000Y-93075000D01*
X98871000Y-93000000D01*
X97350000Y-92998820D01*
X97350000Y-89150000D01*
X97448548Y-89150000D01*
X97454340Y-89208810D01*
X97471495Y-89265361D01*
X97499352Y-89317478D01*
X97536841Y-89363159D01*
X97582522Y-89400648D01*
X97634639Y-89428505D01*
X97691190Y-89445660D01*
X97750000Y-89451452D01*
X98371000Y-89450000D01*
X98446000Y-89375000D01*
X98446000Y-88454000D01*
X98754000Y-88454000D01*
X98754000Y-89375000D01*
X98829000Y-89450000D01*
X99450000Y-89451452D01*
X99508810Y-89445660D01*
X99565361Y-89428505D01*
X99617478Y-89400648D01*
X99663159Y-89363159D01*
X99700648Y-89317478D01*
X99728505Y-89265361D01*
X99745660Y-89208810D01*
X99751452Y-89150000D01*
X99750000Y-88529000D01*
X99675000Y-88454000D01*
X98754000Y-88454000D01*
X98446000Y-88454000D01*
X97525000Y-88454000D01*
X97450000Y-88529000D01*
X97448548Y-89150000D01*
X97350000Y-89150000D01*
X97350000Y-87350000D01*
X97466835Y-87350000D01*
X97454340Y-87391190D01*
G04 #@! TD*
M02*
