G04 #@! TF.GenerationSoftware,KiCad,Pcbnew,5.1.6-c6e7f7d~86~ubuntu18.04.1*
G04 #@! TF.CreationDate,2020-07-16T21:36:01-04:00*
G04 #@! TF.ProjectId,rf-detector-r2,72662d64-6574-4656-9374-6f722d72322e,rev?*
G04 #@! TF.SameCoordinates,Original*
G04 #@! TF.FileFunction,Copper,L1,Top*
G04 #@! TF.FilePolarity,Positive*
%FSLAX46Y46*%
G04 Gerber Fmt 4.6, Leading zero omitted, Abs format (unit mm)*
G04 Created by KiCad (PCBNEW 5.1.6-c6e7f7d~86~ubuntu18.04.1) date 2020-07-16 21:36:01*
%MOMM*%
%LPD*%
G01*
G04 APERTURE LIST*
G04 #@! TA.AperFunction,NonConductor*
%ADD10C,0.250000*%
G04 #@! TD*
G04 #@! TA.AperFunction,SMDPad,CuDef*
%ADD11R,0.508000X1.219200*%
G04 #@! TD*
G04 #@! TA.AperFunction,ComponentPad*
%ADD12R,1.700000X1.700000*%
G04 #@! TD*
G04 #@! TA.AperFunction,ComponentPad*
%ADD13O,1.700000X1.700000*%
G04 #@! TD*
G04 #@! TA.AperFunction,SMDPad,CuDef*
%ADD14R,0.508000X1.270000*%
G04 #@! TD*
G04 #@! TA.AperFunction,SMDPad,CuDef*
%ADD15R,4.200000X1.350000*%
G04 #@! TD*
G04 #@! TA.AperFunction,SMDPad,CuDef*
%ADD16R,3.600000X1.270000*%
G04 #@! TD*
G04 #@! TA.AperFunction,SMDPad,CuDef*
%ADD17R,0.650000X1.060000*%
G04 #@! TD*
G04 #@! TA.AperFunction,ViaPad*
%ADD18C,0.800000*%
G04 #@! TD*
G04 #@! TA.AperFunction,Conductor*
%ADD19C,0.904000*%
G04 #@! TD*
G04 #@! TA.AperFunction,Conductor*
%ADD20C,0.600000*%
G04 #@! TD*
G04 #@! TA.AperFunction,Conductor*
%ADD21C,0.400000*%
G04 #@! TD*
G04 #@! TA.AperFunction,Conductor*
%ADD22C,0.200000*%
G04 #@! TD*
G04 APERTURE END LIST*
D10*
X125273333Y-88872380D02*
X124940000Y-88396190D01*
X124701904Y-88872380D02*
X124701904Y-87872380D01*
X125082857Y-87872380D01*
X125178095Y-87920000D01*
X125225714Y-87967619D01*
X125273333Y-88062857D01*
X125273333Y-88205714D01*
X125225714Y-88300952D01*
X125178095Y-88348571D01*
X125082857Y-88396190D01*
X124701904Y-88396190D01*
X125654285Y-87967619D02*
X125701904Y-87920000D01*
X125797142Y-87872380D01*
X126035238Y-87872380D01*
X126130476Y-87920000D01*
X126178095Y-87967619D01*
X126225714Y-88062857D01*
X126225714Y-88158095D01*
X126178095Y-88300952D01*
X125606666Y-88872380D01*
X126225714Y-88872380D01*
G04 #@! TO.P,C2,1*
G04 #@! TO.N,GND*
G04 #@! TA.AperFunction,SMDPad,CuDef*
G36*
G01*
X112075750Y-93277000D02*
X112588250Y-93277000D01*
G75*
G02*
X112807000Y-93495750I0J-218750D01*
G01*
X112807000Y-93933250D01*
G75*
G02*
X112588250Y-94152000I-218750J0D01*
G01*
X112075750Y-94152000D01*
G75*
G02*
X111857000Y-93933250I0J218750D01*
G01*
X111857000Y-93495750D01*
G75*
G02*
X112075750Y-93277000I218750J0D01*
G01*
G37*
G04 #@! TD.AperFunction*
G04 #@! TO.P,C2,2*
G04 #@! TO.N,+5V*
G04 #@! TA.AperFunction,SMDPad,CuDef*
G36*
G01*
X112075750Y-94852000D02*
X112588250Y-94852000D01*
G75*
G02*
X112807000Y-95070750I0J-218750D01*
G01*
X112807000Y-95508250D01*
G75*
G02*
X112588250Y-95727000I-218750J0D01*
G01*
X112075750Y-95727000D01*
G75*
G02*
X111857000Y-95508250I0J218750D01*
G01*
X111857000Y-95070750D01*
G75*
G02*
X112075750Y-94852000I218750J0D01*
G01*
G37*
G04 #@! TD.AperFunction*
G04 #@! TD*
D11*
G04 #@! TO.P,U2,1*
G04 #@! TO.N,Net-(C1-Pad1)*
X110771800Y-91982800D03*
G04 #@! TO.P,U2,2*
G04 #@! TO.N,GND*
X109832000Y-91982800D03*
G04 #@! TO.P,U2,3*
G04 #@! TO.N,+5V*
X108892200Y-91982800D03*
G04 #@! TO.P,U2,4*
G04 #@! TO.N,RF_POW*
X108892200Y-94421200D03*
G04 #@! TO.P,U2,5*
G04 #@! TO.N,+5V*
X110771800Y-94421200D03*
G04 #@! TD*
D12*
G04 #@! TO.P,J3,1*
G04 #@! TO.N,RF_DETECT*
X109800000Y-88300000D03*
D13*
G04 #@! TO.P,J3,2*
G04 #@! TO.N,RF_POW*
X112340000Y-88300000D03*
G04 #@! TO.P,J3,3*
G04 #@! TO.N,GND*
X114880000Y-88300000D03*
G04 #@! TO.P,J3,4*
X117420000Y-88300000D03*
G04 #@! TD*
G04 #@! TO.P,C1,1*
G04 #@! TO.N,Net-(C1-Pad1)*
G04 #@! TA.AperFunction,SMDPad,CuDef*
G36*
G01*
X111807000Y-92258250D02*
X111807000Y-91745750D01*
G75*
G02*
X112025750Y-91527000I218750J0D01*
G01*
X112463250Y-91527000D01*
G75*
G02*
X112682000Y-91745750I0J-218750D01*
G01*
X112682000Y-92258250D01*
G75*
G02*
X112463250Y-92477000I-218750J0D01*
G01*
X112025750Y-92477000D01*
G75*
G02*
X111807000Y-92258250I0J218750D01*
G01*
G37*
G04 #@! TD.AperFunction*
G04 #@! TO.P,C1,2*
G04 #@! TO.N,Net-(C1-Pad2)*
G04 #@! TA.AperFunction,SMDPad,CuDef*
G36*
G01*
X113382000Y-92258250D02*
X113382000Y-91745750D01*
G75*
G02*
X113600750Y-91527000I218750J0D01*
G01*
X114038250Y-91527000D01*
G75*
G02*
X114257000Y-91745750I0J-218750D01*
G01*
X114257000Y-92258250D01*
G75*
G02*
X114038250Y-92477000I-218750J0D01*
G01*
X113600750Y-92477000D01*
G75*
G02*
X113382000Y-92258250I0J218750D01*
G01*
G37*
G04 #@! TD.AperFunction*
G04 #@! TD*
G04 #@! TO.P,R1,1*
G04 #@! TO.N,Net-(R1-Pad1)*
G04 #@! TA.AperFunction,SMDPad,CuDef*
G36*
G01*
X118007000Y-93858250D02*
X118007000Y-93345750D01*
G75*
G02*
X118225750Y-93127000I218750J0D01*
G01*
X118663250Y-93127000D01*
G75*
G02*
X118882000Y-93345750I0J-218750D01*
G01*
X118882000Y-93858250D01*
G75*
G02*
X118663250Y-94077000I-218750J0D01*
G01*
X118225750Y-94077000D01*
G75*
G02*
X118007000Y-93858250I0J218750D01*
G01*
G37*
G04 #@! TD.AperFunction*
G04 #@! TO.P,R1,2*
G04 #@! TO.N,GND*
G04 #@! TA.AperFunction,SMDPad,CuDef*
G36*
G01*
X119582000Y-93858250D02*
X119582000Y-93345750D01*
G75*
G02*
X119800750Y-93127000I218750J0D01*
G01*
X120238250Y-93127000D01*
G75*
G02*
X120457000Y-93345750I0J-218750D01*
G01*
X120457000Y-93858250D01*
G75*
G02*
X120238250Y-94077000I-218750J0D01*
G01*
X119800750Y-94077000D01*
G75*
G02*
X119582000Y-93858250I0J218750D01*
G01*
G37*
G04 #@! TD.AperFunction*
G04 #@! TD*
G04 #@! TO.P,R3,1*
G04 #@! TO.N,Net-(C1-Pad2)*
G04 #@! TA.AperFunction,SMDPad,CuDef*
G36*
G01*
X116427000Y-92258250D02*
X116427000Y-91745750D01*
G75*
G02*
X116645750Y-91527000I218750J0D01*
G01*
X117083250Y-91527000D01*
G75*
G02*
X117302000Y-91745750I0J-218750D01*
G01*
X117302000Y-92258250D01*
G75*
G02*
X117083250Y-92477000I-218750J0D01*
G01*
X116645750Y-92477000D01*
G75*
G02*
X116427000Y-92258250I0J218750D01*
G01*
G37*
G04 #@! TD.AperFunction*
G04 #@! TO.P,R3,2*
G04 #@! TO.N,Net-(R1-Pad1)*
G04 #@! TA.AperFunction,SMDPad,CuDef*
G36*
G01*
X118002000Y-92258250D02*
X118002000Y-91745750D01*
G75*
G02*
X118220750Y-91527000I218750J0D01*
G01*
X118658250Y-91527000D01*
G75*
G02*
X118877000Y-91745750I0J-218750D01*
G01*
X118877000Y-92258250D01*
G75*
G02*
X118658250Y-92477000I-218750J0D01*
G01*
X118220750Y-92477000D01*
G75*
G02*
X118002000Y-92258250I0J218750D01*
G01*
G37*
G04 #@! TD.AperFunction*
G04 #@! TD*
G04 #@! TO.P,R4,2*
G04 #@! TO.N,Net-(C1-Pad2)*
G04 #@! TA.AperFunction,SMDPad,CuDef*
G36*
G01*
X115588250Y-92452000D02*
X115075750Y-92452000D01*
G75*
G02*
X114857000Y-92233250I0J218750D01*
G01*
X114857000Y-91795750D01*
G75*
G02*
X115075750Y-91577000I218750J0D01*
G01*
X115588250Y-91577000D01*
G75*
G02*
X115807000Y-91795750I0J-218750D01*
G01*
X115807000Y-92233250D01*
G75*
G02*
X115588250Y-92452000I-218750J0D01*
G01*
G37*
G04 #@! TD.AperFunction*
G04 #@! TO.P,R4,1*
G04 #@! TO.N,GND*
G04 #@! TA.AperFunction,SMDPad,CuDef*
G36*
G01*
X115588250Y-94027000D02*
X115075750Y-94027000D01*
G75*
G02*
X114857000Y-93808250I0J218750D01*
G01*
X114857000Y-93370750D01*
G75*
G02*
X115075750Y-93152000I218750J0D01*
G01*
X115588250Y-93152000D01*
G75*
G02*
X115807000Y-93370750I0J-218750D01*
G01*
X115807000Y-93808250D01*
G75*
G02*
X115588250Y-94027000I-218750J0D01*
G01*
G37*
G04 #@! TD.AperFunction*
G04 #@! TD*
D14*
G04 #@! TO.P,U1,5*
G04 #@! TO.N,GND*
X119392200Y-97902000D03*
G04 #@! TO.P,U1,4*
G04 #@! TO.N,Net-(J1-Pad1)*
X118452400Y-97902000D03*
G04 #@! TO.P,U1,6*
G04 #@! TO.N,Net-(J2-Pad1)*
X120332000Y-97902000D03*
G04 #@! TO.P,U1,1*
G04 #@! TO.N,GND*
X120332000Y-95616000D03*
G04 #@! TO.P,U1,2*
X119392200Y-95616000D03*
G04 #@! TO.P,U1,3*
G04 #@! TO.N,Net-(R1-Pad1)*
X118452400Y-95616000D03*
G04 #@! TD*
D15*
G04 #@! TO.P,J1,2*
G04 #@! TO.N,GND*
X99100000Y-93975000D03*
X99100000Y-99625000D03*
D16*
G04 #@! TO.P,J1,1*
G04 #@! TO.N,Net-(J1-Pad1)*
X98900000Y-96800000D03*
G04 #@! TD*
G04 #@! TO.P,J2,1*
G04 #@! TO.N,Net-(J2-Pad1)*
X125100000Y-96800000D03*
D15*
G04 #@! TO.P,J2,2*
G04 #@! TO.N,GND*
X124900000Y-93975000D03*
X124900000Y-99625000D03*
G04 #@! TD*
G04 #@! TO.P,C3,1*
G04 #@! TO.N,GND*
G04 #@! TA.AperFunction,SMDPad,CuDef*
G36*
G01*
X103856250Y-94055000D02*
X103343750Y-94055000D01*
G75*
G02*
X103125000Y-93836250I0J218750D01*
G01*
X103125000Y-93398750D01*
G75*
G02*
X103343750Y-93180000I218750J0D01*
G01*
X103856250Y-93180000D01*
G75*
G02*
X104075000Y-93398750I0J-218750D01*
G01*
X104075000Y-93836250D01*
G75*
G02*
X103856250Y-94055000I-218750J0D01*
G01*
G37*
G04 #@! TD.AperFunction*
G04 #@! TO.P,C3,2*
G04 #@! TO.N,+5V*
G04 #@! TA.AperFunction,SMDPad,CuDef*
G36*
G01*
X103856250Y-92480000D02*
X103343750Y-92480000D01*
G75*
G02*
X103125000Y-92261250I0J218750D01*
G01*
X103125000Y-91823750D01*
G75*
G02*
X103343750Y-91605000I218750J0D01*
G01*
X103856250Y-91605000D01*
G75*
G02*
X104075000Y-91823750I0J-218750D01*
G01*
X104075000Y-92261250D01*
G75*
G02*
X103856250Y-92480000I-218750J0D01*
G01*
G37*
G04 #@! TD.AperFunction*
G04 #@! TD*
G04 #@! TO.P,R2,2*
G04 #@! TO.N,+5V*
G04 #@! TA.AperFunction,SMDPad,CuDef*
G36*
G01*
X104310000Y-89953750D02*
X104310000Y-90466250D01*
G75*
G02*
X104091250Y-90685000I-218750J0D01*
G01*
X103653750Y-90685000D01*
G75*
G02*
X103435000Y-90466250I0J218750D01*
G01*
X103435000Y-89953750D01*
G75*
G02*
X103653750Y-89735000I218750J0D01*
G01*
X104091250Y-89735000D01*
G75*
G02*
X104310000Y-89953750I0J-218750D01*
G01*
G37*
G04 #@! TD.AperFunction*
G04 #@! TO.P,R2,1*
G04 #@! TO.N,Net-(R2-Pad1)*
G04 #@! TA.AperFunction,SMDPad,CuDef*
G36*
G01*
X105885000Y-89953750D02*
X105885000Y-90466250D01*
G75*
G02*
X105666250Y-90685000I-218750J0D01*
G01*
X105228750Y-90685000D01*
G75*
G02*
X105010000Y-90466250I0J218750D01*
G01*
X105010000Y-89953750D01*
G75*
G02*
X105228750Y-89735000I218750J0D01*
G01*
X105666250Y-89735000D01*
G75*
G02*
X105885000Y-89953750I0J-218750D01*
G01*
G37*
G04 #@! TD.AperFunction*
G04 #@! TD*
G04 #@! TO.P,R5,1*
G04 #@! TO.N,Net-(R2-Pad1)*
G04 #@! TA.AperFunction,SMDPad,CuDef*
G36*
G01*
X105885000Y-88313750D02*
X105885000Y-88826250D01*
G75*
G02*
X105666250Y-89045000I-218750J0D01*
G01*
X105228750Y-89045000D01*
G75*
G02*
X105010000Y-88826250I0J218750D01*
G01*
X105010000Y-88313750D01*
G75*
G02*
X105228750Y-88095000I218750J0D01*
G01*
X105666250Y-88095000D01*
G75*
G02*
X105885000Y-88313750I0J-218750D01*
G01*
G37*
G04 #@! TD.AperFunction*
G04 #@! TO.P,R5,2*
G04 #@! TO.N,GND*
G04 #@! TA.AperFunction,SMDPad,CuDef*
G36*
G01*
X104310000Y-88313750D02*
X104310000Y-88826250D01*
G75*
G02*
X104091250Y-89045000I-218750J0D01*
G01*
X103653750Y-89045000D01*
G75*
G02*
X103435000Y-88826250I0J218750D01*
G01*
X103435000Y-88313750D01*
G75*
G02*
X103653750Y-88095000I218750J0D01*
G01*
X104091250Y-88095000D01*
G75*
G02*
X104310000Y-88313750I0J-218750D01*
G01*
G37*
G04 #@! TD.AperFunction*
G04 #@! TD*
D17*
G04 #@! TO.P,U3,1*
G04 #@! TO.N,RF_DETECT*
X105478000Y-94242000D03*
G04 #@! TO.P,U3,2*
G04 #@! TO.N,GND*
X106428000Y-94242000D03*
G04 #@! TO.P,U3,3*
G04 #@! TO.N,RF_POW*
X107378000Y-94242000D03*
G04 #@! TO.P,U3,4*
G04 #@! TO.N,Net-(R2-Pad1)*
X107378000Y-92042000D03*
G04 #@! TO.P,U3,5*
G04 #@! TO.N,+5V*
X105478000Y-92042000D03*
G04 #@! TD*
D12*
G04 #@! TO.P,J4,1*
G04 #@! TO.N,GND*
X98600000Y-88300000D03*
D13*
G04 #@! TO.P,J4,2*
G04 #@! TO.N,+5V*
X101140000Y-88300000D03*
G04 #@! TD*
D18*
G04 #@! TO.N,GND*
X122900000Y-95450000D03*
X121350000Y-96200000D03*
X103850000Y-98900000D03*
X103100000Y-98100000D03*
X97700000Y-98200000D03*
X98750000Y-98200000D03*
X99800000Y-98200000D03*
X100900000Y-98200000D03*
X102000000Y-98100000D03*
X126300000Y-95400000D03*
X125200000Y-95400000D03*
X124100000Y-95400000D03*
X120357692Y-99350000D03*
X119334615Y-99350000D03*
X124100000Y-98150000D03*
X121380769Y-99350000D03*
X122250000Y-98750000D03*
X126300000Y-98150000D03*
X125200000Y-98150000D03*
X116157692Y-99350000D03*
X117180769Y-99350000D03*
X113092307Y-96750000D03*
X114115384Y-96750000D03*
X115138461Y-96750000D03*
X105923076Y-99350000D03*
X106946153Y-99350000D03*
X107969230Y-99350000D03*
X108992307Y-99350000D03*
X110015384Y-99350000D03*
X111038461Y-99350000D03*
X112061538Y-99350000D03*
X113084615Y-99350000D03*
X114107692Y-99350000D03*
X115130769Y-99350000D03*
X104900000Y-99350000D03*
X117176923Y-96750000D03*
X116153846Y-96750000D03*
X112061538Y-96750000D03*
X111038461Y-96750000D03*
X110015384Y-96750000D03*
X108992307Y-96750000D03*
X107969230Y-96750000D03*
X106946153Y-96750000D03*
X105923076Y-96750000D03*
X119382000Y-96752000D03*
X121200000Y-93600000D03*
X120002000Y-92232000D03*
X117142000Y-93312000D03*
X117132000Y-94582000D03*
X115362000Y-94902000D03*
X113952000Y-93512000D03*
X102495000Y-91171000D03*
X124890000Y-90550000D03*
X122050000Y-91150000D03*
X118250000Y-99350000D03*
X106450000Y-92940000D03*
X102552000Y-89181000D03*
X126110000Y-90520000D03*
X122150000Y-92700000D03*
X123590000Y-90550000D03*
X97940000Y-90860000D03*
X109817000Y-90697000D03*
X111310000Y-90750000D03*
X112650000Y-90730000D03*
X113890000Y-90730000D03*
X115240000Y-90780000D03*
X116360000Y-90770000D03*
X117666000Y-90763000D03*
X113800000Y-95700000D03*
X121230000Y-89430000D03*
X121850000Y-87850000D03*
X123300000Y-88700000D03*
X119100000Y-89950000D03*
X123100000Y-98150000D03*
X102000000Y-99600000D03*
X101031000Y-90670000D03*
X106800000Y-89300000D03*
X102000000Y-94000000D03*
X101850000Y-92850000D03*
X122150000Y-100200000D03*
X121350000Y-95050000D03*
X105000000Y-96200000D03*
X104150000Y-95550000D03*
X103100000Y-95500000D03*
X102000000Y-95500000D03*
X100900000Y-95400000D03*
X97700000Y-95400000D03*
X98750000Y-95400000D03*
X99800000Y-95400000D03*
X98050000Y-92550000D03*
X99250000Y-92550000D03*
X100600000Y-92550000D03*
X125800000Y-92550000D03*
X124550000Y-92550000D03*
X123300000Y-92550000D03*
X122050000Y-93950000D03*
X106450000Y-95450000D03*
X119100000Y-87750000D03*
G04 #@! TO.N,RF_DETECT*
X105485000Y-93175000D03*
G04 #@! TO.N,RF_POW*
X108174000Y-94242000D03*
G04 #@! TO.N,+5V*
X107750000Y-88300000D03*
G04 #@! TD*
D19*
G04 #@! TO.N,Net-(C1-Pad1)*
X112244500Y-92002000D02*
X111032000Y-92002000D01*
G04 #@! TO.N,Net-(C1-Pad2)*
X115344500Y-92002000D02*
X115332000Y-92014500D01*
X116864500Y-92002000D02*
X115344500Y-92002000D01*
X115319500Y-92002000D02*
X115332000Y-92014500D01*
X113819500Y-92002000D02*
X115319500Y-92002000D01*
G04 #@! TO.N,Net-(J1-Pad1)*
X104900000Y-98050000D02*
X118200000Y-98050000D01*
X103650000Y-96800000D02*
X104900000Y-98050000D01*
X98900000Y-96800000D02*
X103650000Y-96800000D01*
G04 #@! TO.N,Net-(J2-Pad1)*
X120600000Y-98050000D02*
X121250000Y-98050000D01*
X122500000Y-96800000D02*
X125100000Y-96800000D01*
X121250000Y-98050000D02*
X122500000Y-96800000D01*
D20*
G04 #@! TO.N,RF_POW*
X107378000Y-94242000D02*
X108174000Y-94242000D01*
X108174000Y-94242000D02*
X108713000Y-94242000D01*
D21*
G04 #@! TO.N,+5V*
X110771800Y-94421200D02*
X110771800Y-94721800D01*
X111339500Y-95289500D02*
X112332000Y-95289500D01*
X110771800Y-94721800D02*
X111339500Y-95289500D01*
D19*
G04 #@! TO.N,Net-(R1-Pad1)*
X118439500Y-93597000D02*
X118444500Y-93602000D01*
X118439500Y-92002000D02*
X118439500Y-93597000D01*
D20*
X118452400Y-95616000D02*
X118452400Y-94722400D01*
D19*
X118452400Y-93609900D02*
X118444500Y-93602000D01*
X118452400Y-94722400D02*
X118452400Y-93609900D01*
D20*
G04 #@! TO.N,+5V*
X105477500Y-92042500D02*
X105478000Y-92042000D01*
X103600000Y-92042500D02*
X105477500Y-92042500D01*
X103600000Y-90482500D02*
X103872500Y-90210000D01*
X103600000Y-92042500D02*
X103600000Y-90482500D01*
D21*
X108892200Y-91982800D02*
X108892200Y-90572200D01*
X107750000Y-89430000D02*
X107750000Y-88300000D01*
X108892200Y-90572200D02*
X107750000Y-89430000D01*
X110771800Y-93821800D02*
X110771800Y-94421200D01*
X109562000Y-93289000D02*
X110239000Y-93289000D01*
X108892200Y-91982800D02*
X108892200Y-92619200D01*
X110239000Y-93289000D02*
X110771800Y-93821800D01*
X108892200Y-92619200D02*
X109562000Y-93289000D01*
D20*
X101847919Y-90210000D02*
X103872500Y-90210000D01*
X101140000Y-89502081D02*
X101847919Y-90210000D01*
X101140000Y-88300000D02*
X101140000Y-89502081D01*
D21*
G04 #@! TO.N,RF_DETECT*
X105478000Y-93182000D02*
X105485000Y-93175000D01*
X105478000Y-94242000D02*
X105478000Y-93182000D01*
D20*
G04 #@! TO.N,Net-(R2-Pad1)*
X105447500Y-88570000D02*
X105447500Y-90210000D01*
X105447500Y-90210000D02*
X106800000Y-90210000D01*
X107378000Y-90788000D02*
X107378000Y-92042000D01*
X106800000Y-90210000D02*
X107378000Y-90788000D01*
G04 #@! TD*
D22*
G04 #@! TO.N,GND*
G36*
X97454340Y-87391190D02*
G01*
X97448548Y-87450000D01*
X97450000Y-88071000D01*
X97525000Y-88146000D01*
X98446000Y-88146000D01*
X98446000Y-88126000D01*
X98754000Y-88126000D01*
X98754000Y-88146000D01*
X99675000Y-88146000D01*
X99750000Y-88071000D01*
X99751452Y-87450000D01*
X99745660Y-87391190D01*
X99733165Y-87350000D01*
X100491831Y-87350000D01*
X100406918Y-87406737D01*
X100246737Y-87566918D01*
X100120884Y-87755271D01*
X100034194Y-87964557D01*
X99990000Y-88186735D01*
X99990000Y-88413265D01*
X100034194Y-88635443D01*
X100120884Y-88844729D01*
X100246737Y-89033082D01*
X100406918Y-89193263D01*
X100540001Y-89282186D01*
X100540001Y-89472598D01*
X100537097Y-89502081D01*
X100548682Y-89619701D01*
X100569249Y-89687500D01*
X100582991Y-89732802D01*
X100638705Y-89837036D01*
X100713684Y-89928398D01*
X100736581Y-89947189D01*
X101402810Y-90613419D01*
X101421602Y-90636317D01*
X101512964Y-90711296D01*
X101612442Y-90764468D01*
X101617198Y-90767010D01*
X101730298Y-90801318D01*
X101847919Y-90812903D01*
X101877393Y-90810000D01*
X103000001Y-90810000D01*
X103000000Y-91436144D01*
X102975912Y-91455912D01*
X102911219Y-91534742D01*
X102863147Y-91624678D01*
X102833545Y-91722264D01*
X102823549Y-91823750D01*
X102823549Y-92261250D01*
X102833545Y-92362736D01*
X102863147Y-92460322D01*
X102911219Y-92550258D01*
X102975912Y-92629088D01*
X103054742Y-92693781D01*
X103144678Y-92741853D01*
X103242264Y-92771455D01*
X103343750Y-92781451D01*
X103856250Y-92781451D01*
X103957736Y-92771455D01*
X104055322Y-92741853D01*
X104145258Y-92693781D01*
X104207745Y-92642500D01*
X104860887Y-92642500D01*
X104874496Y-92687360D01*
X104902353Y-92739477D01*
X104919866Y-92760816D01*
X104864668Y-92843426D01*
X104811901Y-92970818D01*
X104785000Y-93106056D01*
X104785000Y-93243944D01*
X104811901Y-93379182D01*
X104864668Y-93506574D01*
X104896874Y-93554774D01*
X104874496Y-93596640D01*
X104857341Y-93653190D01*
X104851549Y-93712000D01*
X104851549Y-94772000D01*
X104857341Y-94830810D01*
X104874496Y-94887360D01*
X104902353Y-94939477D01*
X104939842Y-94985158D01*
X104985523Y-95022647D01*
X105037640Y-95050504D01*
X105094190Y-95067659D01*
X105153000Y-95073451D01*
X105803000Y-95073451D01*
X105861810Y-95067659D01*
X105918360Y-95050504D01*
X105952999Y-95031989D01*
X105987639Y-95050505D01*
X106044190Y-95067660D01*
X106103000Y-95073452D01*
X106199000Y-95072000D01*
X106274000Y-94997000D01*
X106274000Y-94396000D01*
X106254000Y-94396000D01*
X106254000Y-94088000D01*
X106274000Y-94088000D01*
X106274000Y-93487000D01*
X106582000Y-93487000D01*
X106582000Y-94088000D01*
X106602000Y-94088000D01*
X106602000Y-94396000D01*
X106582000Y-94396000D01*
X106582000Y-94997000D01*
X106657000Y-95072000D01*
X106753000Y-95073452D01*
X106811810Y-95067660D01*
X106868361Y-95050505D01*
X106903001Y-95031989D01*
X106937640Y-95050504D01*
X106994190Y-95067659D01*
X107053000Y-95073451D01*
X107703000Y-95073451D01*
X107761810Y-95067659D01*
X107818360Y-95050504D01*
X107870477Y-95022647D01*
X107916158Y-94985158D01*
X107953647Y-94939477D01*
X107967247Y-94914034D01*
X107969818Y-94915099D01*
X108105056Y-94942000D01*
X108242944Y-94942000D01*
X108336749Y-94923341D01*
X108336749Y-95030800D01*
X108342541Y-95089610D01*
X108359696Y-95146160D01*
X108387553Y-95198277D01*
X108425042Y-95243958D01*
X108470723Y-95281447D01*
X108522840Y-95309304D01*
X108579390Y-95326459D01*
X108638200Y-95332251D01*
X109146200Y-95332251D01*
X109205010Y-95326459D01*
X109261560Y-95309304D01*
X109313677Y-95281447D01*
X109359358Y-95243958D01*
X109396847Y-95198277D01*
X109424704Y-95146160D01*
X109441859Y-95089610D01*
X109447651Y-95030800D01*
X109447651Y-93811600D01*
X109444119Y-93775739D01*
X109463983Y-93781765D01*
X109537440Y-93789000D01*
X109537449Y-93789000D01*
X109561999Y-93791418D01*
X109586549Y-93789000D01*
X110031895Y-93789000D01*
X110216349Y-93973455D01*
X110216349Y-95030800D01*
X110222141Y-95089610D01*
X110239296Y-95146160D01*
X110267153Y-95198277D01*
X110304642Y-95243958D01*
X110350323Y-95281447D01*
X110402440Y-95309304D01*
X110458990Y-95326459D01*
X110517800Y-95332251D01*
X110675146Y-95332251D01*
X110968575Y-95625681D01*
X110984236Y-95644764D01*
X111060371Y-95707246D01*
X111147233Y-95753675D01*
X111200443Y-95769816D01*
X111241482Y-95782265D01*
X111339499Y-95791919D01*
X111364059Y-95789500D01*
X111639072Y-95789500D01*
X111643219Y-95797258D01*
X111707912Y-95876088D01*
X111786742Y-95940781D01*
X111876678Y-95988853D01*
X111974264Y-96018455D01*
X112075750Y-96028451D01*
X112588250Y-96028451D01*
X112689736Y-96018455D01*
X112787322Y-95988853D01*
X112877258Y-95940781D01*
X112956088Y-95876088D01*
X113020781Y-95797258D01*
X113068853Y-95707322D01*
X113098455Y-95609736D01*
X113108451Y-95508250D01*
X113108451Y-95070750D01*
X113098455Y-94969264D01*
X113068853Y-94871678D01*
X113020781Y-94781742D01*
X112956088Y-94702912D01*
X112877258Y-94638219D01*
X112787322Y-94590147D01*
X112689736Y-94560545D01*
X112588250Y-94550549D01*
X112075750Y-94550549D01*
X111974264Y-94560545D01*
X111876678Y-94590147D01*
X111786742Y-94638219D01*
X111707912Y-94702912D01*
X111643219Y-94781742D01*
X111639072Y-94789500D01*
X111546606Y-94789500D01*
X111327251Y-94570146D01*
X111327251Y-94152000D01*
X111555548Y-94152000D01*
X111561340Y-94210810D01*
X111578495Y-94267361D01*
X111606352Y-94319478D01*
X111643841Y-94365159D01*
X111689522Y-94402648D01*
X111741639Y-94430505D01*
X111798190Y-94447660D01*
X111857000Y-94453452D01*
X112103000Y-94452000D01*
X112178000Y-94377000D01*
X112178000Y-93868500D01*
X112486000Y-93868500D01*
X112486000Y-94377000D01*
X112561000Y-94452000D01*
X112807000Y-94453452D01*
X112865810Y-94447660D01*
X112922361Y-94430505D01*
X112974478Y-94402648D01*
X113020159Y-94365159D01*
X113057648Y-94319478D01*
X113085505Y-94267361D01*
X113102660Y-94210810D01*
X113108452Y-94152000D01*
X113107582Y-94027000D01*
X114555548Y-94027000D01*
X114561340Y-94085810D01*
X114578495Y-94142361D01*
X114606352Y-94194478D01*
X114643841Y-94240159D01*
X114689522Y-94277648D01*
X114741639Y-94305505D01*
X114798190Y-94322660D01*
X114857000Y-94328452D01*
X115103000Y-94327000D01*
X115178000Y-94252000D01*
X115178000Y-93743500D01*
X115486000Y-93743500D01*
X115486000Y-94252000D01*
X115561000Y-94327000D01*
X115807000Y-94328452D01*
X115865810Y-94322660D01*
X115922361Y-94305505D01*
X115974478Y-94277648D01*
X116020159Y-94240159D01*
X116057648Y-94194478D01*
X116085505Y-94142361D01*
X116102660Y-94085810D01*
X116108452Y-94027000D01*
X116107000Y-93818500D01*
X116032000Y-93743500D01*
X115486000Y-93743500D01*
X115178000Y-93743500D01*
X114632000Y-93743500D01*
X114557000Y-93818500D01*
X114555548Y-94027000D01*
X113107582Y-94027000D01*
X113107000Y-93943500D01*
X113032000Y-93868500D01*
X112486000Y-93868500D01*
X112178000Y-93868500D01*
X111632000Y-93868500D01*
X111557000Y-93943500D01*
X111555548Y-94152000D01*
X111327251Y-94152000D01*
X111327251Y-93811600D01*
X111321459Y-93752790D01*
X111304304Y-93696240D01*
X111276447Y-93644123D01*
X111238958Y-93598442D01*
X111237201Y-93597000D01*
X117683862Y-93597000D01*
X117694672Y-93706746D01*
X117698382Y-93744418D01*
X117700401Y-93751073D01*
X117700400Y-94759337D01*
X117711281Y-94869817D01*
X117754282Y-95011569D01*
X117824110Y-95142209D01*
X117852400Y-95176681D01*
X117852400Y-95645473D01*
X117861082Y-95733620D01*
X117895390Y-95846720D01*
X117896949Y-95849637D01*
X117896949Y-96251000D01*
X117902741Y-96309810D01*
X117919896Y-96366360D01*
X117947753Y-96418477D01*
X117985242Y-96464158D01*
X118030923Y-96501647D01*
X118083040Y-96529504D01*
X118139590Y-96546659D01*
X118198400Y-96552451D01*
X118706400Y-96552451D01*
X118765210Y-96546659D01*
X118821760Y-96529504D01*
X118873877Y-96501647D01*
X118919558Y-96464158D01*
X118922299Y-96460818D01*
X118925041Y-96464159D01*
X118970722Y-96501648D01*
X119022839Y-96529505D01*
X119079390Y-96546660D01*
X119138200Y-96552452D01*
X119163200Y-96551000D01*
X119238200Y-96476000D01*
X119238200Y-95770000D01*
X119546200Y-95770000D01*
X119546200Y-96476000D01*
X119621200Y-96551000D01*
X119646200Y-96552452D01*
X119705010Y-96546660D01*
X119761561Y-96529505D01*
X119813678Y-96501648D01*
X119859359Y-96464159D01*
X119862100Y-96460819D01*
X119864841Y-96464159D01*
X119910522Y-96501648D01*
X119962639Y-96529505D01*
X120019190Y-96546660D01*
X120078000Y-96552452D01*
X120103000Y-96551000D01*
X120178000Y-96476000D01*
X120178000Y-95770000D01*
X120486000Y-95770000D01*
X120486000Y-96476000D01*
X120561000Y-96551000D01*
X120586000Y-96552452D01*
X120644810Y-96546660D01*
X120701361Y-96529505D01*
X120753478Y-96501648D01*
X120799159Y-96464159D01*
X120836648Y-96418478D01*
X120864505Y-96366361D01*
X120881660Y-96309810D01*
X120887452Y-96251000D01*
X120886000Y-95845000D01*
X120811000Y-95770000D01*
X120486000Y-95770000D01*
X120178000Y-95770000D01*
X119546200Y-95770000D01*
X119238200Y-95770000D01*
X119218200Y-95770000D01*
X119218200Y-95462000D01*
X119238200Y-95462000D01*
X119238200Y-94756000D01*
X119546200Y-94756000D01*
X119546200Y-95462000D01*
X120178000Y-95462000D01*
X120178000Y-94756000D01*
X120486000Y-94756000D01*
X120486000Y-95462000D01*
X120811000Y-95462000D01*
X120886000Y-95387000D01*
X120887452Y-94981000D01*
X120881660Y-94922190D01*
X120864505Y-94865639D01*
X120836648Y-94813522D01*
X120799159Y-94767841D01*
X120753478Y-94730352D01*
X120701361Y-94702495D01*
X120644810Y-94685340D01*
X120586000Y-94679548D01*
X120561000Y-94681000D01*
X120486000Y-94756000D01*
X120178000Y-94756000D01*
X120103000Y-94681000D01*
X120078000Y-94679548D01*
X120019190Y-94685340D01*
X119962639Y-94702495D01*
X119910522Y-94730352D01*
X119864841Y-94767841D01*
X119862100Y-94771181D01*
X119859359Y-94767841D01*
X119813678Y-94730352D01*
X119761561Y-94702495D01*
X119705010Y-94685340D01*
X119646200Y-94679548D01*
X119621200Y-94681000D01*
X119546200Y-94756000D01*
X119238200Y-94756000D01*
X119204400Y-94722200D01*
X119204400Y-94650000D01*
X122498548Y-94650000D01*
X122504340Y-94708810D01*
X122521495Y-94765361D01*
X122549352Y-94817478D01*
X122586841Y-94863159D01*
X122632522Y-94900648D01*
X122684639Y-94928505D01*
X122741190Y-94945660D01*
X122800000Y-94951452D01*
X124671000Y-94950000D01*
X124746000Y-94875000D01*
X124746000Y-94129000D01*
X122575000Y-94129000D01*
X122500000Y-94204000D01*
X122498548Y-94650000D01*
X119204400Y-94650000D01*
X119204400Y-94077000D01*
X119280548Y-94077000D01*
X119286340Y-94135810D01*
X119303495Y-94192361D01*
X119331352Y-94244478D01*
X119368841Y-94290159D01*
X119414522Y-94327648D01*
X119466639Y-94355505D01*
X119523190Y-94372660D01*
X119582000Y-94378452D01*
X119790500Y-94377000D01*
X119865500Y-94302000D01*
X119865500Y-93756000D01*
X120173500Y-93756000D01*
X120173500Y-94302000D01*
X120248500Y-94377000D01*
X120457000Y-94378452D01*
X120515810Y-94372660D01*
X120572361Y-94355505D01*
X120624478Y-94327648D01*
X120670159Y-94290159D01*
X120707648Y-94244478D01*
X120735505Y-94192361D01*
X120752660Y-94135810D01*
X120758452Y-94077000D01*
X120757000Y-93831000D01*
X120682000Y-93756000D01*
X120173500Y-93756000D01*
X119865500Y-93756000D01*
X119357000Y-93756000D01*
X119282000Y-93831000D01*
X119280548Y-94077000D01*
X119204400Y-94077000D01*
X119204400Y-93646835D01*
X119208038Y-93609899D01*
X119203217Y-93560953D01*
X119193519Y-93462482D01*
X119191500Y-93455826D01*
X119191500Y-93127000D01*
X119280548Y-93127000D01*
X119282000Y-93373000D01*
X119357000Y-93448000D01*
X119865500Y-93448000D01*
X119865500Y-92902000D01*
X120173500Y-92902000D01*
X120173500Y-93448000D01*
X120682000Y-93448000D01*
X120757000Y-93373000D01*
X120757430Y-93300000D01*
X122498548Y-93300000D01*
X122500000Y-93746000D01*
X122575000Y-93821000D01*
X124746000Y-93821000D01*
X124746000Y-93075000D01*
X124671000Y-93000000D01*
X122800000Y-92998548D01*
X122741190Y-93004340D01*
X122684639Y-93021495D01*
X122632522Y-93049352D01*
X122586841Y-93086841D01*
X122549352Y-93132522D01*
X122521495Y-93184639D01*
X122504340Y-93241190D01*
X122498548Y-93300000D01*
X120757430Y-93300000D01*
X120758452Y-93127000D01*
X120752660Y-93068190D01*
X120735505Y-93011639D01*
X120707648Y-92959522D01*
X120670159Y-92913841D01*
X120624478Y-92876352D01*
X120572361Y-92848495D01*
X120515810Y-92831340D01*
X120457000Y-92825548D01*
X120248500Y-92827000D01*
X120173500Y-92902000D01*
X119865500Y-92902000D01*
X119790500Y-92827000D01*
X119582000Y-92825548D01*
X119523190Y-92831340D01*
X119466639Y-92848495D01*
X119414522Y-92876352D01*
X119368841Y-92913841D01*
X119331352Y-92959522D01*
X119303495Y-93011639D01*
X119286340Y-93068190D01*
X119280548Y-93127000D01*
X119191500Y-93127000D01*
X119191500Y-91965062D01*
X119180619Y-91854582D01*
X119178451Y-91847435D01*
X119178451Y-91745750D01*
X119168455Y-91644264D01*
X119138853Y-91546678D01*
X119090781Y-91456742D01*
X119026088Y-91377912D01*
X118947258Y-91313219D01*
X118857322Y-91265147D01*
X118759736Y-91235545D01*
X118658250Y-91225549D01*
X118220750Y-91225549D01*
X118119264Y-91235545D01*
X118021678Y-91265147D01*
X117931742Y-91313219D01*
X117852912Y-91377912D01*
X117788219Y-91456742D01*
X117740147Y-91546678D01*
X117710545Y-91644264D01*
X117700549Y-91745750D01*
X117700549Y-91847436D01*
X117698381Y-91854583D01*
X117687500Y-91965063D01*
X117687501Y-93560055D01*
X117683862Y-93597000D01*
X111237201Y-93597000D01*
X111204039Y-93569785D01*
X111189546Y-93542671D01*
X111127064Y-93466536D01*
X111107981Y-93450875D01*
X110934106Y-93277000D01*
X111555548Y-93277000D01*
X111557000Y-93485500D01*
X111632000Y-93560500D01*
X112178000Y-93560500D01*
X112178000Y-93052000D01*
X112486000Y-93052000D01*
X112486000Y-93560500D01*
X113032000Y-93560500D01*
X113107000Y-93485500D01*
X113108452Y-93277000D01*
X113102660Y-93218190D01*
X113085505Y-93161639D01*
X113080353Y-93152000D01*
X114555548Y-93152000D01*
X114557000Y-93360500D01*
X114632000Y-93435500D01*
X115178000Y-93435500D01*
X115178000Y-92927000D01*
X115486000Y-92927000D01*
X115486000Y-93435500D01*
X116032000Y-93435500D01*
X116107000Y-93360500D01*
X116108452Y-93152000D01*
X116102660Y-93093190D01*
X116085505Y-93036639D01*
X116057648Y-92984522D01*
X116020159Y-92938841D01*
X115974478Y-92901352D01*
X115922361Y-92873495D01*
X115865810Y-92856340D01*
X115807000Y-92850548D01*
X115561000Y-92852000D01*
X115486000Y-92927000D01*
X115178000Y-92927000D01*
X115103000Y-92852000D01*
X114857000Y-92850548D01*
X114798190Y-92856340D01*
X114741639Y-92873495D01*
X114689522Y-92901352D01*
X114643841Y-92938841D01*
X114606352Y-92984522D01*
X114578495Y-93036639D01*
X114561340Y-93093190D01*
X114555548Y-93152000D01*
X113080353Y-93152000D01*
X113057648Y-93109522D01*
X113020159Y-93063841D01*
X112974478Y-93026352D01*
X112922361Y-92998495D01*
X112865810Y-92981340D01*
X112807000Y-92975548D01*
X112561000Y-92977000D01*
X112486000Y-93052000D01*
X112178000Y-93052000D01*
X112103000Y-92977000D01*
X111857000Y-92975548D01*
X111798190Y-92981340D01*
X111741639Y-92998495D01*
X111689522Y-93026352D01*
X111643841Y-93063841D01*
X111606352Y-93109522D01*
X111578495Y-93161639D01*
X111561340Y-93218190D01*
X111555548Y-93277000D01*
X110934106Y-93277000D01*
X110609929Y-92952824D01*
X110594264Y-92933736D01*
X110545664Y-92893851D01*
X111025800Y-92893851D01*
X111084610Y-92888059D01*
X111141160Y-92870904D01*
X111193277Y-92843047D01*
X111238958Y-92805558D01*
X111276447Y-92759877D01*
X111279588Y-92754000D01*
X111876612Y-92754000D01*
X111924264Y-92768455D01*
X112025750Y-92778451D01*
X112463250Y-92778451D01*
X112564736Y-92768455D01*
X112662322Y-92738853D01*
X112752258Y-92690781D01*
X112831088Y-92626088D01*
X112895781Y-92547258D01*
X112943853Y-92457322D01*
X112973455Y-92359736D01*
X112983451Y-92258250D01*
X112983451Y-92156565D01*
X112985619Y-92149418D01*
X113000138Y-92002000D01*
X113063862Y-92002000D01*
X113078381Y-92149418D01*
X113080549Y-92156565D01*
X113080549Y-92258250D01*
X113090545Y-92359736D01*
X113120147Y-92457322D01*
X113168219Y-92547258D01*
X113232912Y-92626088D01*
X113311742Y-92690781D01*
X113401678Y-92738853D01*
X113499264Y-92768455D01*
X113600750Y-92778451D01*
X114038250Y-92778451D01*
X114139736Y-92768455D01*
X114187388Y-92754000D01*
X115179249Y-92754000D01*
X115184583Y-92755618D01*
X115332000Y-92770138D01*
X115479417Y-92755618D01*
X115484751Y-92754000D01*
X116496612Y-92754000D01*
X116544264Y-92768455D01*
X116645750Y-92778451D01*
X117083250Y-92778451D01*
X117184736Y-92768455D01*
X117282322Y-92738853D01*
X117372258Y-92690781D01*
X117451088Y-92626088D01*
X117515781Y-92547258D01*
X117563853Y-92457322D01*
X117593455Y-92359736D01*
X117603451Y-92258250D01*
X117603451Y-92156565D01*
X117605619Y-92149418D01*
X117620138Y-92002000D01*
X117605619Y-91854582D01*
X117603451Y-91847435D01*
X117603451Y-91745750D01*
X117593455Y-91644264D01*
X117563853Y-91546678D01*
X117515781Y-91456742D01*
X117451088Y-91377912D01*
X117372258Y-91313219D01*
X117282322Y-91265147D01*
X117184736Y-91235545D01*
X117083250Y-91225549D01*
X116645750Y-91225549D01*
X116544264Y-91235545D01*
X116496612Y-91250000D01*
X115381435Y-91250000D01*
X115344500Y-91246362D01*
X115332000Y-91247593D01*
X115319500Y-91246362D01*
X115282565Y-91250000D01*
X114187388Y-91250000D01*
X114139736Y-91235545D01*
X114038250Y-91225549D01*
X113600750Y-91225549D01*
X113499264Y-91235545D01*
X113401678Y-91265147D01*
X113311742Y-91313219D01*
X113232912Y-91377912D01*
X113168219Y-91456742D01*
X113120147Y-91546678D01*
X113090545Y-91644264D01*
X113080549Y-91745750D01*
X113080549Y-91847435D01*
X113078381Y-91854582D01*
X113063862Y-92002000D01*
X113000138Y-92002000D01*
X112985619Y-91854582D01*
X112983451Y-91847435D01*
X112983451Y-91745750D01*
X112973455Y-91644264D01*
X112943853Y-91546678D01*
X112895781Y-91456742D01*
X112831088Y-91377912D01*
X112752258Y-91313219D01*
X112662322Y-91265147D01*
X112564736Y-91235545D01*
X112463250Y-91225549D01*
X112025750Y-91225549D01*
X111924264Y-91235545D01*
X111876612Y-91250000D01*
X111300113Y-91250000D01*
X111276447Y-91205723D01*
X111238958Y-91160042D01*
X111193277Y-91122553D01*
X111141160Y-91094696D01*
X111084610Y-91077541D01*
X111025800Y-91071749D01*
X110517800Y-91071749D01*
X110458990Y-91077541D01*
X110402440Y-91094696D01*
X110350323Y-91122553D01*
X110304642Y-91160042D01*
X110301901Y-91163382D01*
X110299159Y-91160041D01*
X110253478Y-91122552D01*
X110201361Y-91094695D01*
X110144810Y-91077540D01*
X110086000Y-91071748D01*
X110061000Y-91073200D01*
X109986000Y-91148200D01*
X109986000Y-91828800D01*
X110006000Y-91828800D01*
X110006000Y-92136800D01*
X109986000Y-92136800D01*
X109986000Y-92156800D01*
X109678000Y-92156800D01*
X109678000Y-92136800D01*
X109658000Y-92136800D01*
X109658000Y-91828800D01*
X109678000Y-91828800D01*
X109678000Y-91148200D01*
X109603000Y-91073200D01*
X109578000Y-91071748D01*
X109519190Y-91077540D01*
X109462639Y-91094695D01*
X109410522Y-91122552D01*
X109392200Y-91137588D01*
X109392200Y-90596760D01*
X109394619Y-90572200D01*
X109384965Y-90474183D01*
X109374815Y-90440722D01*
X109356375Y-90379933D01*
X109309946Y-90293071D01*
X109247464Y-90216936D01*
X109228387Y-90201280D01*
X108250000Y-89222895D01*
X108250000Y-88789950D01*
X108293726Y-88746224D01*
X108370332Y-88631574D01*
X108423099Y-88504182D01*
X108450000Y-88368944D01*
X108450000Y-88231056D01*
X108423099Y-88095818D01*
X108370332Y-87968426D01*
X108293726Y-87853776D01*
X108196224Y-87756274D01*
X108081574Y-87679668D01*
X107954182Y-87626901D01*
X107818944Y-87600000D01*
X107681056Y-87600000D01*
X107545818Y-87626901D01*
X107418426Y-87679668D01*
X107303776Y-87756274D01*
X107206274Y-87853776D01*
X107129668Y-87968426D01*
X107076901Y-88095818D01*
X107050000Y-88231056D01*
X107050000Y-88368944D01*
X107076901Y-88504182D01*
X107129668Y-88631574D01*
X107206274Y-88746224D01*
X107250001Y-88789951D01*
X107250000Y-89405439D01*
X107247581Y-89430000D01*
X107257235Y-89528017D01*
X107265908Y-89556607D01*
X107285825Y-89622266D01*
X107332254Y-89709129D01*
X107394736Y-89785264D01*
X107413824Y-89800929D01*
X108392201Y-90779308D01*
X108392201Y-91200060D01*
X108387553Y-91205723D01*
X108359696Y-91257840D01*
X108342541Y-91314390D01*
X108336749Y-91373200D01*
X108336749Y-92592400D01*
X108342541Y-92651210D01*
X108359696Y-92707760D01*
X108387553Y-92759877D01*
X108425042Y-92805558D01*
X108426629Y-92806860D01*
X108428026Y-92811467D01*
X108474455Y-92898329D01*
X108536937Y-92974464D01*
X108556019Y-92990124D01*
X109076042Y-93510149D01*
X108638200Y-93510149D01*
X108579390Y-93515941D01*
X108522840Y-93533096D01*
X108470723Y-93560953D01*
X108433246Y-93591709D01*
X108378182Y-93568901D01*
X108242944Y-93542000D01*
X108105056Y-93542000D01*
X107969818Y-93568901D01*
X107967247Y-93569966D01*
X107953647Y-93544523D01*
X107916158Y-93498842D01*
X107870477Y-93461353D01*
X107818360Y-93433496D01*
X107761810Y-93416341D01*
X107703000Y-93410549D01*
X107053000Y-93410549D01*
X106994190Y-93416341D01*
X106937640Y-93433496D01*
X106903001Y-93452011D01*
X106868361Y-93433495D01*
X106811810Y-93416340D01*
X106753000Y-93410548D01*
X106657000Y-93412000D01*
X106582000Y-93487000D01*
X106274000Y-93487000D01*
X106199000Y-93412000D01*
X106144845Y-93411181D01*
X106158099Y-93379182D01*
X106185000Y-93243944D01*
X106185000Y-93106056D01*
X106158099Y-92970818D01*
X106105332Y-92843426D01*
X106043851Y-92751413D01*
X106053647Y-92739477D01*
X106081504Y-92687360D01*
X106098659Y-92630810D01*
X106104451Y-92572000D01*
X106104451Y-91512000D01*
X106098659Y-91453190D01*
X106081504Y-91396640D01*
X106053647Y-91344523D01*
X106016158Y-91298842D01*
X105970477Y-91261353D01*
X105918360Y-91233496D01*
X105861810Y-91216341D01*
X105803000Y-91210549D01*
X105153000Y-91210549D01*
X105094190Y-91216341D01*
X105037640Y-91233496D01*
X104985523Y-91261353D01*
X104939842Y-91298842D01*
X104902353Y-91344523D01*
X104874496Y-91396640D01*
X104860584Y-91442500D01*
X104207745Y-91442500D01*
X104200000Y-91436144D01*
X104200000Y-90974252D01*
X104290322Y-90946853D01*
X104380258Y-90898781D01*
X104459088Y-90834088D01*
X104523781Y-90755258D01*
X104571853Y-90665322D01*
X104601455Y-90567736D01*
X104611451Y-90466250D01*
X104611451Y-89953750D01*
X104601455Y-89852264D01*
X104571853Y-89754678D01*
X104523781Y-89664742D01*
X104459088Y-89585912D01*
X104380258Y-89521219D01*
X104290322Y-89473147D01*
X104192736Y-89443545D01*
X104091250Y-89433549D01*
X103653750Y-89433549D01*
X103552264Y-89443545D01*
X103454678Y-89473147D01*
X103364742Y-89521219D01*
X103285912Y-89585912D01*
X103266144Y-89610000D01*
X102096447Y-89610000D01*
X101757163Y-89270717D01*
X101873082Y-89193263D01*
X102021345Y-89045000D01*
X103133548Y-89045000D01*
X103139340Y-89103810D01*
X103156495Y-89160361D01*
X103184352Y-89212478D01*
X103221841Y-89258159D01*
X103267522Y-89295648D01*
X103319639Y-89323505D01*
X103376190Y-89340660D01*
X103435000Y-89346452D01*
X103643500Y-89345000D01*
X103718500Y-89270000D01*
X103718500Y-88724000D01*
X104026500Y-88724000D01*
X104026500Y-89270000D01*
X104101500Y-89345000D01*
X104310000Y-89346452D01*
X104368810Y-89340660D01*
X104425361Y-89323505D01*
X104477478Y-89295648D01*
X104523159Y-89258159D01*
X104560648Y-89212478D01*
X104588505Y-89160361D01*
X104605660Y-89103810D01*
X104611452Y-89045000D01*
X104610000Y-88799000D01*
X104535000Y-88724000D01*
X104026500Y-88724000D01*
X103718500Y-88724000D01*
X103210000Y-88724000D01*
X103135000Y-88799000D01*
X103133548Y-89045000D01*
X102021345Y-89045000D01*
X102033263Y-89033082D01*
X102159116Y-88844729D01*
X102245806Y-88635443D01*
X102290000Y-88413265D01*
X102290000Y-88186735D01*
X102271753Y-88095000D01*
X103133548Y-88095000D01*
X103135000Y-88341000D01*
X103210000Y-88416000D01*
X103718500Y-88416000D01*
X103718500Y-87870000D01*
X104026500Y-87870000D01*
X104026500Y-88416000D01*
X104535000Y-88416000D01*
X104610000Y-88341000D01*
X104610160Y-88313750D01*
X104708549Y-88313750D01*
X104708549Y-88826250D01*
X104718545Y-88927736D01*
X104748147Y-89025322D01*
X104796219Y-89115258D01*
X104847500Y-89177746D01*
X104847501Y-89602254D01*
X104796219Y-89664742D01*
X104748147Y-89754678D01*
X104718545Y-89852264D01*
X104708549Y-89953750D01*
X104708549Y-90466250D01*
X104718545Y-90567736D01*
X104748147Y-90665322D01*
X104796219Y-90755258D01*
X104860912Y-90834088D01*
X104939742Y-90898781D01*
X105029678Y-90946853D01*
X105127264Y-90976455D01*
X105228750Y-90986451D01*
X105666250Y-90986451D01*
X105767736Y-90976455D01*
X105865322Y-90946853D01*
X105955258Y-90898781D01*
X106034088Y-90834088D01*
X106053856Y-90810000D01*
X106551472Y-90810000D01*
X106778000Y-91036529D01*
X106778000Y-91390084D01*
X106774496Y-91396640D01*
X106757341Y-91453190D01*
X106751549Y-91512000D01*
X106751549Y-92572000D01*
X106757341Y-92630810D01*
X106774496Y-92687360D01*
X106802353Y-92739477D01*
X106839842Y-92785158D01*
X106885523Y-92822647D01*
X106937640Y-92850504D01*
X106994190Y-92867659D01*
X107053000Y-92873451D01*
X107703000Y-92873451D01*
X107761810Y-92867659D01*
X107818360Y-92850504D01*
X107870477Y-92822647D01*
X107916158Y-92785158D01*
X107953647Y-92739477D01*
X107981504Y-92687360D01*
X107998659Y-92630810D01*
X108004451Y-92572000D01*
X108004451Y-91512000D01*
X107998659Y-91453190D01*
X107981504Y-91396640D01*
X107978000Y-91390084D01*
X107978000Y-90817465D01*
X107980902Y-90787999D01*
X107978000Y-90758533D01*
X107978000Y-90758526D01*
X107969318Y-90670379D01*
X107935010Y-90557279D01*
X107879296Y-90453045D01*
X107804317Y-90361683D01*
X107781425Y-90342896D01*
X107245113Y-89806585D01*
X107226317Y-89783683D01*
X107134955Y-89708704D01*
X107030721Y-89652990D01*
X106917621Y-89618682D01*
X106829474Y-89610000D01*
X106800000Y-89607097D01*
X106770526Y-89610000D01*
X106053856Y-89610000D01*
X106047500Y-89602255D01*
X106047500Y-89177745D01*
X106098781Y-89115258D01*
X106146853Y-89025322D01*
X106176455Y-88927736D01*
X106186451Y-88826250D01*
X106186451Y-88313750D01*
X106176455Y-88212264D01*
X106146853Y-88114678D01*
X106098781Y-88024742D01*
X106034088Y-87945912D01*
X105955258Y-87881219D01*
X105865322Y-87833147D01*
X105767736Y-87803545D01*
X105666250Y-87793549D01*
X105228750Y-87793549D01*
X105127264Y-87803545D01*
X105029678Y-87833147D01*
X104939742Y-87881219D01*
X104860912Y-87945912D01*
X104796219Y-88024742D01*
X104748147Y-88114678D01*
X104718545Y-88212264D01*
X104708549Y-88313750D01*
X104610160Y-88313750D01*
X104611452Y-88095000D01*
X104605660Y-88036190D01*
X104588505Y-87979639D01*
X104560648Y-87927522D01*
X104523159Y-87881841D01*
X104477478Y-87844352D01*
X104425361Y-87816495D01*
X104368810Y-87799340D01*
X104310000Y-87793548D01*
X104101500Y-87795000D01*
X104026500Y-87870000D01*
X103718500Y-87870000D01*
X103643500Y-87795000D01*
X103435000Y-87793548D01*
X103376190Y-87799340D01*
X103319639Y-87816495D01*
X103267522Y-87844352D01*
X103221841Y-87881841D01*
X103184352Y-87927522D01*
X103156495Y-87979639D01*
X103139340Y-88036190D01*
X103133548Y-88095000D01*
X102271753Y-88095000D01*
X102245806Y-87964557D01*
X102159116Y-87755271D01*
X102033263Y-87566918D01*
X101873082Y-87406737D01*
X101788169Y-87350000D01*
X108666836Y-87350000D01*
X108654341Y-87391190D01*
X108648549Y-87450000D01*
X108648549Y-89150000D01*
X108654341Y-89208810D01*
X108671496Y-89265360D01*
X108699353Y-89317477D01*
X108736842Y-89363158D01*
X108782523Y-89400647D01*
X108834640Y-89428504D01*
X108891190Y-89445659D01*
X108950000Y-89451451D01*
X110650000Y-89451451D01*
X110708810Y-89445659D01*
X110765360Y-89428504D01*
X110817477Y-89400647D01*
X110863158Y-89363158D01*
X110900647Y-89317477D01*
X110928504Y-89265360D01*
X110945659Y-89208810D01*
X110951451Y-89150000D01*
X110951451Y-87450000D01*
X110945659Y-87391190D01*
X110933164Y-87350000D01*
X111691831Y-87350000D01*
X111606918Y-87406737D01*
X111446737Y-87566918D01*
X111320884Y-87755271D01*
X111234194Y-87964557D01*
X111190000Y-88186735D01*
X111190000Y-88413265D01*
X111234194Y-88635443D01*
X111320884Y-88844729D01*
X111446737Y-89033082D01*
X111606918Y-89193263D01*
X111795271Y-89319116D01*
X112004557Y-89405806D01*
X112226735Y-89450000D01*
X112453265Y-89450000D01*
X112675443Y-89405806D01*
X112884729Y-89319116D01*
X113073082Y-89193263D01*
X113233263Y-89033082D01*
X113359116Y-88844729D01*
X113445806Y-88635443D01*
X113446812Y-88630385D01*
X113778472Y-88630385D01*
X113864092Y-88838934D01*
X113988753Y-89026772D01*
X114147664Y-89186681D01*
X114334719Y-89312515D01*
X114542728Y-89399439D01*
X114549617Y-89401520D01*
X114726000Y-89363912D01*
X114726000Y-88454000D01*
X115034000Y-88454000D01*
X115034000Y-89363912D01*
X115210383Y-89401520D01*
X115217272Y-89399439D01*
X115425281Y-89312515D01*
X115612336Y-89186681D01*
X115771247Y-89026772D01*
X115895908Y-88838934D01*
X115981528Y-88630385D01*
X116318472Y-88630385D01*
X116404092Y-88838934D01*
X116528753Y-89026772D01*
X116687664Y-89186681D01*
X116874719Y-89312515D01*
X117082728Y-89399439D01*
X117089617Y-89401520D01*
X117266000Y-89363912D01*
X117266000Y-88454000D01*
X117574000Y-88454000D01*
X117574000Y-89363912D01*
X117750383Y-89401520D01*
X117757272Y-89399439D01*
X117965281Y-89312515D01*
X118152336Y-89186681D01*
X118311247Y-89026772D01*
X118435908Y-88838934D01*
X118521528Y-88630385D01*
X118484650Y-88454000D01*
X117574000Y-88454000D01*
X117266000Y-88454000D01*
X116355350Y-88454000D01*
X116318472Y-88630385D01*
X115981528Y-88630385D01*
X115944650Y-88454000D01*
X115034000Y-88454000D01*
X114726000Y-88454000D01*
X113815350Y-88454000D01*
X113778472Y-88630385D01*
X113446812Y-88630385D01*
X113490000Y-88413265D01*
X113490000Y-88186735D01*
X113445806Y-87964557D01*
X113359116Y-87755271D01*
X113233263Y-87566918D01*
X113073082Y-87406737D01*
X112988169Y-87350000D01*
X114241789Y-87350000D01*
X114147664Y-87413319D01*
X113988753Y-87573228D01*
X113864092Y-87761066D01*
X113778472Y-87969615D01*
X113815350Y-88146000D01*
X114726000Y-88146000D01*
X114726000Y-88126000D01*
X115034000Y-88126000D01*
X115034000Y-88146000D01*
X115944650Y-88146000D01*
X115981528Y-87969615D01*
X115895908Y-87761066D01*
X115771247Y-87573228D01*
X115612336Y-87413319D01*
X115518211Y-87350000D01*
X116781789Y-87350000D01*
X116687664Y-87413319D01*
X116528753Y-87573228D01*
X116404092Y-87761066D01*
X116318472Y-87969615D01*
X116355350Y-88146000D01*
X117266000Y-88146000D01*
X117266000Y-88126000D01*
X117574000Y-88126000D01*
X117574000Y-88146000D01*
X118484650Y-88146000D01*
X118521528Y-87969615D01*
X118435908Y-87761066D01*
X118311247Y-87573228D01*
X118152336Y-87413319D01*
X118058211Y-87350000D01*
X124038810Y-87350000D01*
X124038810Y-89687500D01*
X126650000Y-89687500D01*
X126650000Y-92998820D01*
X125129000Y-93000000D01*
X125054000Y-93075000D01*
X125054000Y-93821000D01*
X125074000Y-93821000D01*
X125074000Y-94129000D01*
X125054000Y-94129000D01*
X125054000Y-94875000D01*
X125129000Y-94950000D01*
X126650001Y-94951180D01*
X126650001Y-95863549D01*
X123300000Y-95863549D01*
X123241190Y-95869341D01*
X123184640Y-95886496D01*
X123132523Y-95914353D01*
X123086842Y-95951842D01*
X123049353Y-95997523D01*
X123022373Y-96048000D01*
X122536935Y-96048000D01*
X122500000Y-96044362D01*
X122463064Y-96048000D01*
X122463062Y-96048000D01*
X122352582Y-96058881D01*
X122210830Y-96101882D01*
X122080190Y-96171710D01*
X121965683Y-96265683D01*
X121942137Y-96294374D01*
X120938512Y-97298000D01*
X120887451Y-97298000D01*
X120887451Y-97267000D01*
X120881659Y-97208190D01*
X120864504Y-97151640D01*
X120836647Y-97099523D01*
X120799158Y-97053842D01*
X120753477Y-97016353D01*
X120701360Y-96988496D01*
X120644810Y-96971341D01*
X120586000Y-96965549D01*
X120078000Y-96965549D01*
X120019190Y-96971341D01*
X119962640Y-96988496D01*
X119910523Y-97016353D01*
X119864842Y-97053842D01*
X119862101Y-97057182D01*
X119859359Y-97053841D01*
X119813678Y-97016352D01*
X119761561Y-96988495D01*
X119705010Y-96971340D01*
X119646200Y-96965548D01*
X119621200Y-96967000D01*
X119546200Y-97042000D01*
X119546200Y-97748000D01*
X119566200Y-97748000D01*
X119566200Y-98056000D01*
X119546200Y-98056000D01*
X119546200Y-98762000D01*
X119621200Y-98837000D01*
X119646200Y-98838452D01*
X119705010Y-98832660D01*
X119761561Y-98815505D01*
X119813678Y-98787648D01*
X119859359Y-98750159D01*
X119862101Y-98746818D01*
X119864842Y-98750158D01*
X119910523Y-98787647D01*
X119962640Y-98815504D01*
X120019190Y-98832659D01*
X120078000Y-98838451D01*
X120586000Y-98838451D01*
X120644810Y-98832659D01*
X120701360Y-98815504D01*
X120726624Y-98802000D01*
X121213065Y-98802000D01*
X121250000Y-98805638D01*
X121286935Y-98802000D01*
X121286938Y-98802000D01*
X121397418Y-98791119D01*
X121539170Y-98748118D01*
X121669810Y-98678290D01*
X121784317Y-98584317D01*
X121807867Y-98555621D01*
X122811489Y-97552000D01*
X123022373Y-97552000D01*
X123049353Y-97602477D01*
X123086842Y-97648158D01*
X123132523Y-97685647D01*
X123184640Y-97713504D01*
X123241190Y-97730659D01*
X123300000Y-97736451D01*
X126650001Y-97736451D01*
X126650001Y-98648820D01*
X125129000Y-98650000D01*
X125054000Y-98725000D01*
X125054000Y-99471000D01*
X125074000Y-99471000D01*
X125074000Y-99779000D01*
X125054000Y-99779000D01*
X125054000Y-100525000D01*
X125129000Y-100600000D01*
X126650001Y-100601180D01*
X126650001Y-100650000D01*
X97350000Y-100650000D01*
X97350000Y-100601180D01*
X98871000Y-100600000D01*
X98946000Y-100525000D01*
X98946000Y-99779000D01*
X99254000Y-99779000D01*
X99254000Y-100525000D01*
X99329000Y-100600000D01*
X101200000Y-100601452D01*
X101258810Y-100595660D01*
X101315361Y-100578505D01*
X101367478Y-100550648D01*
X101413159Y-100513159D01*
X101450648Y-100467478D01*
X101478505Y-100415361D01*
X101495660Y-100358810D01*
X101501452Y-100300000D01*
X122498548Y-100300000D01*
X122504340Y-100358810D01*
X122521495Y-100415361D01*
X122549352Y-100467478D01*
X122586841Y-100513159D01*
X122632522Y-100550648D01*
X122684639Y-100578505D01*
X122741190Y-100595660D01*
X122800000Y-100601452D01*
X124671000Y-100600000D01*
X124746000Y-100525000D01*
X124746000Y-99779000D01*
X122575000Y-99779000D01*
X122500000Y-99854000D01*
X122498548Y-100300000D01*
X101501452Y-100300000D01*
X101500000Y-99854000D01*
X101425000Y-99779000D01*
X99254000Y-99779000D01*
X98946000Y-99779000D01*
X98926000Y-99779000D01*
X98926000Y-99471000D01*
X98946000Y-99471000D01*
X98946000Y-98725000D01*
X99254000Y-98725000D01*
X99254000Y-99471000D01*
X101425000Y-99471000D01*
X101500000Y-99396000D01*
X101501452Y-98950000D01*
X122498548Y-98950000D01*
X122500000Y-99396000D01*
X122575000Y-99471000D01*
X124746000Y-99471000D01*
X124746000Y-98725000D01*
X124671000Y-98650000D01*
X122800000Y-98648548D01*
X122741190Y-98654340D01*
X122684639Y-98671495D01*
X122632522Y-98699352D01*
X122586841Y-98736841D01*
X122549352Y-98782522D01*
X122521495Y-98834639D01*
X122504340Y-98891190D01*
X122498548Y-98950000D01*
X101501452Y-98950000D01*
X101495660Y-98891190D01*
X101478505Y-98834639D01*
X101450648Y-98782522D01*
X101413159Y-98736841D01*
X101367478Y-98699352D01*
X101315361Y-98671495D01*
X101258810Y-98654340D01*
X101200000Y-98648548D01*
X99329000Y-98650000D01*
X99254000Y-98725000D01*
X98946000Y-98725000D01*
X98871000Y-98650000D01*
X97350000Y-98648820D01*
X97350000Y-97736451D01*
X100700000Y-97736451D01*
X100758810Y-97730659D01*
X100815360Y-97713504D01*
X100867477Y-97685647D01*
X100913158Y-97648158D01*
X100950647Y-97602477D01*
X100977627Y-97552000D01*
X103338512Y-97552000D01*
X104342137Y-98555626D01*
X104365683Y-98584317D01*
X104480190Y-98678290D01*
X104610830Y-98748118D01*
X104752582Y-98791119D01*
X104863062Y-98802000D01*
X104863064Y-98802000D01*
X104900000Y-98805638D01*
X104936935Y-98802000D01*
X118057776Y-98802000D01*
X118083040Y-98815504D01*
X118139590Y-98832659D01*
X118198400Y-98838451D01*
X118706400Y-98838451D01*
X118765210Y-98832659D01*
X118821760Y-98815504D01*
X118873877Y-98787647D01*
X118919558Y-98750158D01*
X118922299Y-98746818D01*
X118925041Y-98750159D01*
X118970722Y-98787648D01*
X119022839Y-98815505D01*
X119079390Y-98832660D01*
X119138200Y-98838452D01*
X119163200Y-98837000D01*
X119238200Y-98762000D01*
X119238200Y-98056000D01*
X119218200Y-98056000D01*
X119218200Y-97748000D01*
X119238200Y-97748000D01*
X119238200Y-97042000D01*
X119163200Y-96967000D01*
X119138200Y-96965548D01*
X119079390Y-96971340D01*
X119022839Y-96988495D01*
X118970722Y-97016352D01*
X118925041Y-97053841D01*
X118922299Y-97057182D01*
X118919558Y-97053842D01*
X118873877Y-97016353D01*
X118821760Y-96988496D01*
X118765210Y-96971341D01*
X118706400Y-96965549D01*
X118198400Y-96965549D01*
X118139590Y-96971341D01*
X118083040Y-96988496D01*
X118030923Y-97016353D01*
X117985242Y-97053842D01*
X117947753Y-97099523D01*
X117919896Y-97151640D01*
X117902741Y-97208190D01*
X117896949Y-97267000D01*
X117896949Y-97298000D01*
X105211489Y-97298000D01*
X104207867Y-96294379D01*
X104184317Y-96265683D01*
X104069810Y-96171710D01*
X103939170Y-96101882D01*
X103797418Y-96058881D01*
X103686938Y-96048000D01*
X103686935Y-96048000D01*
X103650000Y-96044362D01*
X103613065Y-96048000D01*
X100977627Y-96048000D01*
X100950647Y-95997523D01*
X100913158Y-95951842D01*
X100867477Y-95914353D01*
X100815360Y-95886496D01*
X100758810Y-95869341D01*
X100700000Y-95863549D01*
X97350000Y-95863549D01*
X97350000Y-94951180D01*
X98871000Y-94950000D01*
X98946000Y-94875000D01*
X98946000Y-94129000D01*
X99254000Y-94129000D01*
X99254000Y-94875000D01*
X99329000Y-94950000D01*
X101200000Y-94951452D01*
X101258810Y-94945660D01*
X101315361Y-94928505D01*
X101367478Y-94900648D01*
X101413159Y-94863159D01*
X101450648Y-94817478D01*
X101478505Y-94765361D01*
X101495660Y-94708810D01*
X101501452Y-94650000D01*
X101500000Y-94204000D01*
X101425000Y-94129000D01*
X99254000Y-94129000D01*
X98946000Y-94129000D01*
X98926000Y-94129000D01*
X98926000Y-94055000D01*
X102823548Y-94055000D01*
X102829340Y-94113810D01*
X102846495Y-94170361D01*
X102874352Y-94222478D01*
X102911841Y-94268159D01*
X102957522Y-94305648D01*
X103009639Y-94333505D01*
X103066190Y-94350660D01*
X103125000Y-94356452D01*
X103371000Y-94355000D01*
X103446000Y-94280000D01*
X103446000Y-93771500D01*
X103754000Y-93771500D01*
X103754000Y-94280000D01*
X103829000Y-94355000D01*
X104075000Y-94356452D01*
X104133810Y-94350660D01*
X104190361Y-94333505D01*
X104242478Y-94305648D01*
X104288159Y-94268159D01*
X104325648Y-94222478D01*
X104353505Y-94170361D01*
X104370660Y-94113810D01*
X104376452Y-94055000D01*
X104375000Y-93846500D01*
X104300000Y-93771500D01*
X103754000Y-93771500D01*
X103446000Y-93771500D01*
X102900000Y-93771500D01*
X102825000Y-93846500D01*
X102823548Y-94055000D01*
X98926000Y-94055000D01*
X98926000Y-93821000D01*
X98946000Y-93821000D01*
X98946000Y-93075000D01*
X99254000Y-93075000D01*
X99254000Y-93821000D01*
X101425000Y-93821000D01*
X101500000Y-93746000D01*
X101501452Y-93300000D01*
X101495660Y-93241190D01*
X101478505Y-93184639D01*
X101476026Y-93180000D01*
X102823548Y-93180000D01*
X102825000Y-93388500D01*
X102900000Y-93463500D01*
X103446000Y-93463500D01*
X103446000Y-92955000D01*
X103754000Y-92955000D01*
X103754000Y-93463500D01*
X104300000Y-93463500D01*
X104375000Y-93388500D01*
X104376452Y-93180000D01*
X104370660Y-93121190D01*
X104353505Y-93064639D01*
X104325648Y-93012522D01*
X104288159Y-92966841D01*
X104242478Y-92929352D01*
X104190361Y-92901495D01*
X104133810Y-92884340D01*
X104075000Y-92878548D01*
X103829000Y-92880000D01*
X103754000Y-92955000D01*
X103446000Y-92955000D01*
X103371000Y-92880000D01*
X103125000Y-92878548D01*
X103066190Y-92884340D01*
X103009639Y-92901495D01*
X102957522Y-92929352D01*
X102911841Y-92966841D01*
X102874352Y-93012522D01*
X102846495Y-93064639D01*
X102829340Y-93121190D01*
X102823548Y-93180000D01*
X101476026Y-93180000D01*
X101450648Y-93132522D01*
X101413159Y-93086841D01*
X101367478Y-93049352D01*
X101315361Y-93021495D01*
X101258810Y-93004340D01*
X101200000Y-92998548D01*
X99329000Y-93000000D01*
X99254000Y-93075000D01*
X98946000Y-93075000D01*
X98871000Y-93000000D01*
X97350000Y-92998820D01*
X97350000Y-89150000D01*
X97448548Y-89150000D01*
X97454340Y-89208810D01*
X97471495Y-89265361D01*
X97499352Y-89317478D01*
X97536841Y-89363159D01*
X97582522Y-89400648D01*
X97634639Y-89428505D01*
X97691190Y-89445660D01*
X97750000Y-89451452D01*
X98371000Y-89450000D01*
X98446000Y-89375000D01*
X98446000Y-88454000D01*
X98754000Y-88454000D01*
X98754000Y-89375000D01*
X98829000Y-89450000D01*
X99450000Y-89451452D01*
X99508810Y-89445660D01*
X99565361Y-89428505D01*
X99617478Y-89400648D01*
X99663159Y-89363159D01*
X99700648Y-89317478D01*
X99728505Y-89265361D01*
X99745660Y-89208810D01*
X99751452Y-89150000D01*
X99750000Y-88529000D01*
X99675000Y-88454000D01*
X98754000Y-88454000D01*
X98446000Y-88454000D01*
X97525000Y-88454000D01*
X97450000Y-88529000D01*
X97448548Y-89150000D01*
X97350000Y-89150000D01*
X97350000Y-87350000D01*
X97466835Y-87350000D01*
X97454340Y-87391190D01*
G37*
X97454340Y-87391190D02*
X97448548Y-87450000D01*
X97450000Y-88071000D01*
X97525000Y-88146000D01*
X98446000Y-88146000D01*
X98446000Y-88126000D01*
X98754000Y-88126000D01*
X98754000Y-88146000D01*
X99675000Y-88146000D01*
X99750000Y-88071000D01*
X99751452Y-87450000D01*
X99745660Y-87391190D01*
X99733165Y-87350000D01*
X100491831Y-87350000D01*
X100406918Y-87406737D01*
X100246737Y-87566918D01*
X100120884Y-87755271D01*
X100034194Y-87964557D01*
X99990000Y-88186735D01*
X99990000Y-88413265D01*
X100034194Y-88635443D01*
X100120884Y-88844729D01*
X100246737Y-89033082D01*
X100406918Y-89193263D01*
X100540001Y-89282186D01*
X100540001Y-89472598D01*
X100537097Y-89502081D01*
X100548682Y-89619701D01*
X100569249Y-89687500D01*
X100582991Y-89732802D01*
X100638705Y-89837036D01*
X100713684Y-89928398D01*
X100736581Y-89947189D01*
X101402810Y-90613419D01*
X101421602Y-90636317D01*
X101512964Y-90711296D01*
X101612442Y-90764468D01*
X101617198Y-90767010D01*
X101730298Y-90801318D01*
X101847919Y-90812903D01*
X101877393Y-90810000D01*
X103000001Y-90810000D01*
X103000000Y-91436144D01*
X102975912Y-91455912D01*
X102911219Y-91534742D01*
X102863147Y-91624678D01*
X102833545Y-91722264D01*
X102823549Y-91823750D01*
X102823549Y-92261250D01*
X102833545Y-92362736D01*
X102863147Y-92460322D01*
X102911219Y-92550258D01*
X102975912Y-92629088D01*
X103054742Y-92693781D01*
X103144678Y-92741853D01*
X103242264Y-92771455D01*
X103343750Y-92781451D01*
X103856250Y-92781451D01*
X103957736Y-92771455D01*
X104055322Y-92741853D01*
X104145258Y-92693781D01*
X104207745Y-92642500D01*
X104860887Y-92642500D01*
X104874496Y-92687360D01*
X104902353Y-92739477D01*
X104919866Y-92760816D01*
X104864668Y-92843426D01*
X104811901Y-92970818D01*
X104785000Y-93106056D01*
X104785000Y-93243944D01*
X104811901Y-93379182D01*
X104864668Y-93506574D01*
X104896874Y-93554774D01*
X104874496Y-93596640D01*
X104857341Y-93653190D01*
X104851549Y-93712000D01*
X104851549Y-94772000D01*
X104857341Y-94830810D01*
X104874496Y-94887360D01*
X104902353Y-94939477D01*
X104939842Y-94985158D01*
X104985523Y-95022647D01*
X105037640Y-95050504D01*
X105094190Y-95067659D01*
X105153000Y-95073451D01*
X105803000Y-95073451D01*
X105861810Y-95067659D01*
X105918360Y-95050504D01*
X105952999Y-95031989D01*
X105987639Y-95050505D01*
X106044190Y-95067660D01*
X106103000Y-95073452D01*
X106199000Y-95072000D01*
X106274000Y-94997000D01*
X106274000Y-94396000D01*
X106254000Y-94396000D01*
X106254000Y-94088000D01*
X106274000Y-94088000D01*
X106274000Y-93487000D01*
X106582000Y-93487000D01*
X106582000Y-94088000D01*
X106602000Y-94088000D01*
X106602000Y-94396000D01*
X106582000Y-94396000D01*
X106582000Y-94997000D01*
X106657000Y-95072000D01*
X106753000Y-95073452D01*
X106811810Y-95067660D01*
X106868361Y-95050505D01*
X106903001Y-95031989D01*
X106937640Y-95050504D01*
X106994190Y-95067659D01*
X107053000Y-95073451D01*
X107703000Y-95073451D01*
X107761810Y-95067659D01*
X107818360Y-95050504D01*
X107870477Y-95022647D01*
X107916158Y-94985158D01*
X107953647Y-94939477D01*
X107967247Y-94914034D01*
X107969818Y-94915099D01*
X108105056Y-94942000D01*
X108242944Y-94942000D01*
X108336749Y-94923341D01*
X108336749Y-95030800D01*
X108342541Y-95089610D01*
X108359696Y-95146160D01*
X108387553Y-95198277D01*
X108425042Y-95243958D01*
X108470723Y-95281447D01*
X108522840Y-95309304D01*
X108579390Y-95326459D01*
X108638200Y-95332251D01*
X109146200Y-95332251D01*
X109205010Y-95326459D01*
X109261560Y-95309304D01*
X109313677Y-95281447D01*
X109359358Y-95243958D01*
X109396847Y-95198277D01*
X109424704Y-95146160D01*
X109441859Y-95089610D01*
X109447651Y-95030800D01*
X109447651Y-93811600D01*
X109444119Y-93775739D01*
X109463983Y-93781765D01*
X109537440Y-93789000D01*
X109537449Y-93789000D01*
X109561999Y-93791418D01*
X109586549Y-93789000D01*
X110031895Y-93789000D01*
X110216349Y-93973455D01*
X110216349Y-95030800D01*
X110222141Y-95089610D01*
X110239296Y-95146160D01*
X110267153Y-95198277D01*
X110304642Y-95243958D01*
X110350323Y-95281447D01*
X110402440Y-95309304D01*
X110458990Y-95326459D01*
X110517800Y-95332251D01*
X110675146Y-95332251D01*
X110968575Y-95625681D01*
X110984236Y-95644764D01*
X111060371Y-95707246D01*
X111147233Y-95753675D01*
X111200443Y-95769816D01*
X111241482Y-95782265D01*
X111339499Y-95791919D01*
X111364059Y-95789500D01*
X111639072Y-95789500D01*
X111643219Y-95797258D01*
X111707912Y-95876088D01*
X111786742Y-95940781D01*
X111876678Y-95988853D01*
X111974264Y-96018455D01*
X112075750Y-96028451D01*
X112588250Y-96028451D01*
X112689736Y-96018455D01*
X112787322Y-95988853D01*
X112877258Y-95940781D01*
X112956088Y-95876088D01*
X113020781Y-95797258D01*
X113068853Y-95707322D01*
X113098455Y-95609736D01*
X113108451Y-95508250D01*
X113108451Y-95070750D01*
X113098455Y-94969264D01*
X113068853Y-94871678D01*
X113020781Y-94781742D01*
X112956088Y-94702912D01*
X112877258Y-94638219D01*
X112787322Y-94590147D01*
X112689736Y-94560545D01*
X112588250Y-94550549D01*
X112075750Y-94550549D01*
X111974264Y-94560545D01*
X111876678Y-94590147D01*
X111786742Y-94638219D01*
X111707912Y-94702912D01*
X111643219Y-94781742D01*
X111639072Y-94789500D01*
X111546606Y-94789500D01*
X111327251Y-94570146D01*
X111327251Y-94152000D01*
X111555548Y-94152000D01*
X111561340Y-94210810D01*
X111578495Y-94267361D01*
X111606352Y-94319478D01*
X111643841Y-94365159D01*
X111689522Y-94402648D01*
X111741639Y-94430505D01*
X111798190Y-94447660D01*
X111857000Y-94453452D01*
X112103000Y-94452000D01*
X112178000Y-94377000D01*
X112178000Y-93868500D01*
X112486000Y-93868500D01*
X112486000Y-94377000D01*
X112561000Y-94452000D01*
X112807000Y-94453452D01*
X112865810Y-94447660D01*
X112922361Y-94430505D01*
X112974478Y-94402648D01*
X113020159Y-94365159D01*
X113057648Y-94319478D01*
X113085505Y-94267361D01*
X113102660Y-94210810D01*
X113108452Y-94152000D01*
X113107582Y-94027000D01*
X114555548Y-94027000D01*
X114561340Y-94085810D01*
X114578495Y-94142361D01*
X114606352Y-94194478D01*
X114643841Y-94240159D01*
X114689522Y-94277648D01*
X114741639Y-94305505D01*
X114798190Y-94322660D01*
X114857000Y-94328452D01*
X115103000Y-94327000D01*
X115178000Y-94252000D01*
X115178000Y-93743500D01*
X115486000Y-93743500D01*
X115486000Y-94252000D01*
X115561000Y-94327000D01*
X115807000Y-94328452D01*
X115865810Y-94322660D01*
X115922361Y-94305505D01*
X115974478Y-94277648D01*
X116020159Y-94240159D01*
X116057648Y-94194478D01*
X116085505Y-94142361D01*
X116102660Y-94085810D01*
X116108452Y-94027000D01*
X116107000Y-93818500D01*
X116032000Y-93743500D01*
X115486000Y-93743500D01*
X115178000Y-93743500D01*
X114632000Y-93743500D01*
X114557000Y-93818500D01*
X114555548Y-94027000D01*
X113107582Y-94027000D01*
X113107000Y-93943500D01*
X113032000Y-93868500D01*
X112486000Y-93868500D01*
X112178000Y-93868500D01*
X111632000Y-93868500D01*
X111557000Y-93943500D01*
X111555548Y-94152000D01*
X111327251Y-94152000D01*
X111327251Y-93811600D01*
X111321459Y-93752790D01*
X111304304Y-93696240D01*
X111276447Y-93644123D01*
X111238958Y-93598442D01*
X111237201Y-93597000D01*
X117683862Y-93597000D01*
X117694672Y-93706746D01*
X117698382Y-93744418D01*
X117700401Y-93751073D01*
X117700400Y-94759337D01*
X117711281Y-94869817D01*
X117754282Y-95011569D01*
X117824110Y-95142209D01*
X117852400Y-95176681D01*
X117852400Y-95645473D01*
X117861082Y-95733620D01*
X117895390Y-95846720D01*
X117896949Y-95849637D01*
X117896949Y-96251000D01*
X117902741Y-96309810D01*
X117919896Y-96366360D01*
X117947753Y-96418477D01*
X117985242Y-96464158D01*
X118030923Y-96501647D01*
X118083040Y-96529504D01*
X118139590Y-96546659D01*
X118198400Y-96552451D01*
X118706400Y-96552451D01*
X118765210Y-96546659D01*
X118821760Y-96529504D01*
X118873877Y-96501647D01*
X118919558Y-96464158D01*
X118922299Y-96460818D01*
X118925041Y-96464159D01*
X118970722Y-96501648D01*
X119022839Y-96529505D01*
X119079390Y-96546660D01*
X119138200Y-96552452D01*
X119163200Y-96551000D01*
X119238200Y-96476000D01*
X119238200Y-95770000D01*
X119546200Y-95770000D01*
X119546200Y-96476000D01*
X119621200Y-96551000D01*
X119646200Y-96552452D01*
X119705010Y-96546660D01*
X119761561Y-96529505D01*
X119813678Y-96501648D01*
X119859359Y-96464159D01*
X119862100Y-96460819D01*
X119864841Y-96464159D01*
X119910522Y-96501648D01*
X119962639Y-96529505D01*
X120019190Y-96546660D01*
X120078000Y-96552452D01*
X120103000Y-96551000D01*
X120178000Y-96476000D01*
X120178000Y-95770000D01*
X120486000Y-95770000D01*
X120486000Y-96476000D01*
X120561000Y-96551000D01*
X120586000Y-96552452D01*
X120644810Y-96546660D01*
X120701361Y-96529505D01*
X120753478Y-96501648D01*
X120799159Y-96464159D01*
X120836648Y-96418478D01*
X120864505Y-96366361D01*
X120881660Y-96309810D01*
X120887452Y-96251000D01*
X120886000Y-95845000D01*
X120811000Y-95770000D01*
X120486000Y-95770000D01*
X120178000Y-95770000D01*
X119546200Y-95770000D01*
X119238200Y-95770000D01*
X119218200Y-95770000D01*
X119218200Y-95462000D01*
X119238200Y-95462000D01*
X119238200Y-94756000D01*
X119546200Y-94756000D01*
X119546200Y-95462000D01*
X120178000Y-95462000D01*
X120178000Y-94756000D01*
X120486000Y-94756000D01*
X120486000Y-95462000D01*
X120811000Y-95462000D01*
X120886000Y-95387000D01*
X120887452Y-94981000D01*
X120881660Y-94922190D01*
X120864505Y-94865639D01*
X120836648Y-94813522D01*
X120799159Y-94767841D01*
X120753478Y-94730352D01*
X120701361Y-94702495D01*
X120644810Y-94685340D01*
X120586000Y-94679548D01*
X120561000Y-94681000D01*
X120486000Y-94756000D01*
X120178000Y-94756000D01*
X120103000Y-94681000D01*
X120078000Y-94679548D01*
X120019190Y-94685340D01*
X119962639Y-94702495D01*
X119910522Y-94730352D01*
X119864841Y-94767841D01*
X119862100Y-94771181D01*
X119859359Y-94767841D01*
X119813678Y-94730352D01*
X119761561Y-94702495D01*
X119705010Y-94685340D01*
X119646200Y-94679548D01*
X119621200Y-94681000D01*
X119546200Y-94756000D01*
X119238200Y-94756000D01*
X119204400Y-94722200D01*
X119204400Y-94650000D01*
X122498548Y-94650000D01*
X122504340Y-94708810D01*
X122521495Y-94765361D01*
X122549352Y-94817478D01*
X122586841Y-94863159D01*
X122632522Y-94900648D01*
X122684639Y-94928505D01*
X122741190Y-94945660D01*
X122800000Y-94951452D01*
X124671000Y-94950000D01*
X124746000Y-94875000D01*
X124746000Y-94129000D01*
X122575000Y-94129000D01*
X122500000Y-94204000D01*
X122498548Y-94650000D01*
X119204400Y-94650000D01*
X119204400Y-94077000D01*
X119280548Y-94077000D01*
X119286340Y-94135810D01*
X119303495Y-94192361D01*
X119331352Y-94244478D01*
X119368841Y-94290159D01*
X119414522Y-94327648D01*
X119466639Y-94355505D01*
X119523190Y-94372660D01*
X119582000Y-94378452D01*
X119790500Y-94377000D01*
X119865500Y-94302000D01*
X119865500Y-93756000D01*
X120173500Y-93756000D01*
X120173500Y-94302000D01*
X120248500Y-94377000D01*
X120457000Y-94378452D01*
X120515810Y-94372660D01*
X120572361Y-94355505D01*
X120624478Y-94327648D01*
X120670159Y-94290159D01*
X120707648Y-94244478D01*
X120735505Y-94192361D01*
X120752660Y-94135810D01*
X120758452Y-94077000D01*
X120757000Y-93831000D01*
X120682000Y-93756000D01*
X120173500Y-93756000D01*
X119865500Y-93756000D01*
X119357000Y-93756000D01*
X119282000Y-93831000D01*
X119280548Y-94077000D01*
X119204400Y-94077000D01*
X119204400Y-93646835D01*
X119208038Y-93609899D01*
X119203217Y-93560953D01*
X119193519Y-93462482D01*
X119191500Y-93455826D01*
X119191500Y-93127000D01*
X119280548Y-93127000D01*
X119282000Y-93373000D01*
X119357000Y-93448000D01*
X119865500Y-93448000D01*
X119865500Y-92902000D01*
X120173500Y-92902000D01*
X120173500Y-93448000D01*
X120682000Y-93448000D01*
X120757000Y-93373000D01*
X120757430Y-93300000D01*
X122498548Y-93300000D01*
X122500000Y-93746000D01*
X122575000Y-93821000D01*
X124746000Y-93821000D01*
X124746000Y-93075000D01*
X124671000Y-93000000D01*
X122800000Y-92998548D01*
X122741190Y-93004340D01*
X122684639Y-93021495D01*
X122632522Y-93049352D01*
X122586841Y-93086841D01*
X122549352Y-93132522D01*
X122521495Y-93184639D01*
X122504340Y-93241190D01*
X122498548Y-93300000D01*
X120757430Y-93300000D01*
X120758452Y-93127000D01*
X120752660Y-93068190D01*
X120735505Y-93011639D01*
X120707648Y-92959522D01*
X120670159Y-92913841D01*
X120624478Y-92876352D01*
X120572361Y-92848495D01*
X120515810Y-92831340D01*
X120457000Y-92825548D01*
X120248500Y-92827000D01*
X120173500Y-92902000D01*
X119865500Y-92902000D01*
X119790500Y-92827000D01*
X119582000Y-92825548D01*
X119523190Y-92831340D01*
X119466639Y-92848495D01*
X119414522Y-92876352D01*
X119368841Y-92913841D01*
X119331352Y-92959522D01*
X119303495Y-93011639D01*
X119286340Y-93068190D01*
X119280548Y-93127000D01*
X119191500Y-93127000D01*
X119191500Y-91965062D01*
X119180619Y-91854582D01*
X119178451Y-91847435D01*
X119178451Y-91745750D01*
X119168455Y-91644264D01*
X119138853Y-91546678D01*
X119090781Y-91456742D01*
X119026088Y-91377912D01*
X118947258Y-91313219D01*
X118857322Y-91265147D01*
X118759736Y-91235545D01*
X118658250Y-91225549D01*
X118220750Y-91225549D01*
X118119264Y-91235545D01*
X118021678Y-91265147D01*
X117931742Y-91313219D01*
X117852912Y-91377912D01*
X117788219Y-91456742D01*
X117740147Y-91546678D01*
X117710545Y-91644264D01*
X117700549Y-91745750D01*
X117700549Y-91847436D01*
X117698381Y-91854583D01*
X117687500Y-91965063D01*
X117687501Y-93560055D01*
X117683862Y-93597000D01*
X111237201Y-93597000D01*
X111204039Y-93569785D01*
X111189546Y-93542671D01*
X111127064Y-93466536D01*
X111107981Y-93450875D01*
X110934106Y-93277000D01*
X111555548Y-93277000D01*
X111557000Y-93485500D01*
X111632000Y-93560500D01*
X112178000Y-93560500D01*
X112178000Y-93052000D01*
X112486000Y-93052000D01*
X112486000Y-93560500D01*
X113032000Y-93560500D01*
X113107000Y-93485500D01*
X113108452Y-93277000D01*
X113102660Y-93218190D01*
X113085505Y-93161639D01*
X113080353Y-93152000D01*
X114555548Y-93152000D01*
X114557000Y-93360500D01*
X114632000Y-93435500D01*
X115178000Y-93435500D01*
X115178000Y-92927000D01*
X115486000Y-92927000D01*
X115486000Y-93435500D01*
X116032000Y-93435500D01*
X116107000Y-93360500D01*
X116108452Y-93152000D01*
X116102660Y-93093190D01*
X116085505Y-93036639D01*
X116057648Y-92984522D01*
X116020159Y-92938841D01*
X115974478Y-92901352D01*
X115922361Y-92873495D01*
X115865810Y-92856340D01*
X115807000Y-92850548D01*
X115561000Y-92852000D01*
X115486000Y-92927000D01*
X115178000Y-92927000D01*
X115103000Y-92852000D01*
X114857000Y-92850548D01*
X114798190Y-92856340D01*
X114741639Y-92873495D01*
X114689522Y-92901352D01*
X114643841Y-92938841D01*
X114606352Y-92984522D01*
X114578495Y-93036639D01*
X114561340Y-93093190D01*
X114555548Y-93152000D01*
X113080353Y-93152000D01*
X113057648Y-93109522D01*
X113020159Y-93063841D01*
X112974478Y-93026352D01*
X112922361Y-92998495D01*
X112865810Y-92981340D01*
X112807000Y-92975548D01*
X112561000Y-92977000D01*
X112486000Y-93052000D01*
X112178000Y-93052000D01*
X112103000Y-92977000D01*
X111857000Y-92975548D01*
X111798190Y-92981340D01*
X111741639Y-92998495D01*
X111689522Y-93026352D01*
X111643841Y-93063841D01*
X111606352Y-93109522D01*
X111578495Y-93161639D01*
X111561340Y-93218190D01*
X111555548Y-93277000D01*
X110934106Y-93277000D01*
X110609929Y-92952824D01*
X110594264Y-92933736D01*
X110545664Y-92893851D01*
X111025800Y-92893851D01*
X111084610Y-92888059D01*
X111141160Y-92870904D01*
X111193277Y-92843047D01*
X111238958Y-92805558D01*
X111276447Y-92759877D01*
X111279588Y-92754000D01*
X111876612Y-92754000D01*
X111924264Y-92768455D01*
X112025750Y-92778451D01*
X112463250Y-92778451D01*
X112564736Y-92768455D01*
X112662322Y-92738853D01*
X112752258Y-92690781D01*
X112831088Y-92626088D01*
X112895781Y-92547258D01*
X112943853Y-92457322D01*
X112973455Y-92359736D01*
X112983451Y-92258250D01*
X112983451Y-92156565D01*
X112985619Y-92149418D01*
X113000138Y-92002000D01*
X113063862Y-92002000D01*
X113078381Y-92149418D01*
X113080549Y-92156565D01*
X113080549Y-92258250D01*
X113090545Y-92359736D01*
X113120147Y-92457322D01*
X113168219Y-92547258D01*
X113232912Y-92626088D01*
X113311742Y-92690781D01*
X113401678Y-92738853D01*
X113499264Y-92768455D01*
X113600750Y-92778451D01*
X114038250Y-92778451D01*
X114139736Y-92768455D01*
X114187388Y-92754000D01*
X115179249Y-92754000D01*
X115184583Y-92755618D01*
X115332000Y-92770138D01*
X115479417Y-92755618D01*
X115484751Y-92754000D01*
X116496612Y-92754000D01*
X116544264Y-92768455D01*
X116645750Y-92778451D01*
X117083250Y-92778451D01*
X117184736Y-92768455D01*
X117282322Y-92738853D01*
X117372258Y-92690781D01*
X117451088Y-92626088D01*
X117515781Y-92547258D01*
X117563853Y-92457322D01*
X117593455Y-92359736D01*
X117603451Y-92258250D01*
X117603451Y-92156565D01*
X117605619Y-92149418D01*
X117620138Y-92002000D01*
X117605619Y-91854582D01*
X117603451Y-91847435D01*
X117603451Y-91745750D01*
X117593455Y-91644264D01*
X117563853Y-91546678D01*
X117515781Y-91456742D01*
X117451088Y-91377912D01*
X117372258Y-91313219D01*
X117282322Y-91265147D01*
X117184736Y-91235545D01*
X117083250Y-91225549D01*
X116645750Y-91225549D01*
X116544264Y-91235545D01*
X116496612Y-91250000D01*
X115381435Y-91250000D01*
X115344500Y-91246362D01*
X115332000Y-91247593D01*
X115319500Y-91246362D01*
X115282565Y-91250000D01*
X114187388Y-91250000D01*
X114139736Y-91235545D01*
X114038250Y-91225549D01*
X113600750Y-91225549D01*
X113499264Y-91235545D01*
X113401678Y-91265147D01*
X113311742Y-91313219D01*
X113232912Y-91377912D01*
X113168219Y-91456742D01*
X113120147Y-91546678D01*
X113090545Y-91644264D01*
X113080549Y-91745750D01*
X113080549Y-91847435D01*
X113078381Y-91854582D01*
X113063862Y-92002000D01*
X113000138Y-92002000D01*
X112985619Y-91854582D01*
X112983451Y-91847435D01*
X112983451Y-91745750D01*
X112973455Y-91644264D01*
X112943853Y-91546678D01*
X112895781Y-91456742D01*
X112831088Y-91377912D01*
X112752258Y-91313219D01*
X112662322Y-91265147D01*
X112564736Y-91235545D01*
X112463250Y-91225549D01*
X112025750Y-91225549D01*
X111924264Y-91235545D01*
X111876612Y-91250000D01*
X111300113Y-91250000D01*
X111276447Y-91205723D01*
X111238958Y-91160042D01*
X111193277Y-91122553D01*
X111141160Y-91094696D01*
X111084610Y-91077541D01*
X111025800Y-91071749D01*
X110517800Y-91071749D01*
X110458990Y-91077541D01*
X110402440Y-91094696D01*
X110350323Y-91122553D01*
X110304642Y-91160042D01*
X110301901Y-91163382D01*
X110299159Y-91160041D01*
X110253478Y-91122552D01*
X110201361Y-91094695D01*
X110144810Y-91077540D01*
X110086000Y-91071748D01*
X110061000Y-91073200D01*
X109986000Y-91148200D01*
X109986000Y-91828800D01*
X110006000Y-91828800D01*
X110006000Y-92136800D01*
X109986000Y-92136800D01*
X109986000Y-92156800D01*
X109678000Y-92156800D01*
X109678000Y-92136800D01*
X109658000Y-92136800D01*
X109658000Y-91828800D01*
X109678000Y-91828800D01*
X109678000Y-91148200D01*
X109603000Y-91073200D01*
X109578000Y-91071748D01*
X109519190Y-91077540D01*
X109462639Y-91094695D01*
X109410522Y-91122552D01*
X109392200Y-91137588D01*
X109392200Y-90596760D01*
X109394619Y-90572200D01*
X109384965Y-90474183D01*
X109374815Y-90440722D01*
X109356375Y-90379933D01*
X109309946Y-90293071D01*
X109247464Y-90216936D01*
X109228387Y-90201280D01*
X108250000Y-89222895D01*
X108250000Y-88789950D01*
X108293726Y-88746224D01*
X108370332Y-88631574D01*
X108423099Y-88504182D01*
X108450000Y-88368944D01*
X108450000Y-88231056D01*
X108423099Y-88095818D01*
X108370332Y-87968426D01*
X108293726Y-87853776D01*
X108196224Y-87756274D01*
X108081574Y-87679668D01*
X107954182Y-87626901D01*
X107818944Y-87600000D01*
X107681056Y-87600000D01*
X107545818Y-87626901D01*
X107418426Y-87679668D01*
X107303776Y-87756274D01*
X107206274Y-87853776D01*
X107129668Y-87968426D01*
X107076901Y-88095818D01*
X107050000Y-88231056D01*
X107050000Y-88368944D01*
X107076901Y-88504182D01*
X107129668Y-88631574D01*
X107206274Y-88746224D01*
X107250001Y-88789951D01*
X107250000Y-89405439D01*
X107247581Y-89430000D01*
X107257235Y-89528017D01*
X107265908Y-89556607D01*
X107285825Y-89622266D01*
X107332254Y-89709129D01*
X107394736Y-89785264D01*
X107413824Y-89800929D01*
X108392201Y-90779308D01*
X108392201Y-91200060D01*
X108387553Y-91205723D01*
X108359696Y-91257840D01*
X108342541Y-91314390D01*
X108336749Y-91373200D01*
X108336749Y-92592400D01*
X108342541Y-92651210D01*
X108359696Y-92707760D01*
X108387553Y-92759877D01*
X108425042Y-92805558D01*
X108426629Y-92806860D01*
X108428026Y-92811467D01*
X108474455Y-92898329D01*
X108536937Y-92974464D01*
X108556019Y-92990124D01*
X109076042Y-93510149D01*
X108638200Y-93510149D01*
X108579390Y-93515941D01*
X108522840Y-93533096D01*
X108470723Y-93560953D01*
X108433246Y-93591709D01*
X108378182Y-93568901D01*
X108242944Y-93542000D01*
X108105056Y-93542000D01*
X107969818Y-93568901D01*
X107967247Y-93569966D01*
X107953647Y-93544523D01*
X107916158Y-93498842D01*
X107870477Y-93461353D01*
X107818360Y-93433496D01*
X107761810Y-93416341D01*
X107703000Y-93410549D01*
X107053000Y-93410549D01*
X106994190Y-93416341D01*
X106937640Y-93433496D01*
X106903001Y-93452011D01*
X106868361Y-93433495D01*
X106811810Y-93416340D01*
X106753000Y-93410548D01*
X106657000Y-93412000D01*
X106582000Y-93487000D01*
X106274000Y-93487000D01*
X106199000Y-93412000D01*
X106144845Y-93411181D01*
X106158099Y-93379182D01*
X106185000Y-93243944D01*
X106185000Y-93106056D01*
X106158099Y-92970818D01*
X106105332Y-92843426D01*
X106043851Y-92751413D01*
X106053647Y-92739477D01*
X106081504Y-92687360D01*
X106098659Y-92630810D01*
X106104451Y-92572000D01*
X106104451Y-91512000D01*
X106098659Y-91453190D01*
X106081504Y-91396640D01*
X106053647Y-91344523D01*
X106016158Y-91298842D01*
X105970477Y-91261353D01*
X105918360Y-91233496D01*
X105861810Y-91216341D01*
X105803000Y-91210549D01*
X105153000Y-91210549D01*
X105094190Y-91216341D01*
X105037640Y-91233496D01*
X104985523Y-91261353D01*
X104939842Y-91298842D01*
X104902353Y-91344523D01*
X104874496Y-91396640D01*
X104860584Y-91442500D01*
X104207745Y-91442500D01*
X104200000Y-91436144D01*
X104200000Y-90974252D01*
X104290322Y-90946853D01*
X104380258Y-90898781D01*
X104459088Y-90834088D01*
X104523781Y-90755258D01*
X104571853Y-90665322D01*
X104601455Y-90567736D01*
X104611451Y-90466250D01*
X104611451Y-89953750D01*
X104601455Y-89852264D01*
X104571853Y-89754678D01*
X104523781Y-89664742D01*
X104459088Y-89585912D01*
X104380258Y-89521219D01*
X104290322Y-89473147D01*
X104192736Y-89443545D01*
X104091250Y-89433549D01*
X103653750Y-89433549D01*
X103552264Y-89443545D01*
X103454678Y-89473147D01*
X103364742Y-89521219D01*
X103285912Y-89585912D01*
X103266144Y-89610000D01*
X102096447Y-89610000D01*
X101757163Y-89270717D01*
X101873082Y-89193263D01*
X102021345Y-89045000D01*
X103133548Y-89045000D01*
X103139340Y-89103810D01*
X103156495Y-89160361D01*
X103184352Y-89212478D01*
X103221841Y-89258159D01*
X103267522Y-89295648D01*
X103319639Y-89323505D01*
X103376190Y-89340660D01*
X103435000Y-89346452D01*
X103643500Y-89345000D01*
X103718500Y-89270000D01*
X103718500Y-88724000D01*
X104026500Y-88724000D01*
X104026500Y-89270000D01*
X104101500Y-89345000D01*
X104310000Y-89346452D01*
X104368810Y-89340660D01*
X104425361Y-89323505D01*
X104477478Y-89295648D01*
X104523159Y-89258159D01*
X104560648Y-89212478D01*
X104588505Y-89160361D01*
X104605660Y-89103810D01*
X104611452Y-89045000D01*
X104610000Y-88799000D01*
X104535000Y-88724000D01*
X104026500Y-88724000D01*
X103718500Y-88724000D01*
X103210000Y-88724000D01*
X103135000Y-88799000D01*
X103133548Y-89045000D01*
X102021345Y-89045000D01*
X102033263Y-89033082D01*
X102159116Y-88844729D01*
X102245806Y-88635443D01*
X102290000Y-88413265D01*
X102290000Y-88186735D01*
X102271753Y-88095000D01*
X103133548Y-88095000D01*
X103135000Y-88341000D01*
X103210000Y-88416000D01*
X103718500Y-88416000D01*
X103718500Y-87870000D01*
X104026500Y-87870000D01*
X104026500Y-88416000D01*
X104535000Y-88416000D01*
X104610000Y-88341000D01*
X104610160Y-88313750D01*
X104708549Y-88313750D01*
X104708549Y-88826250D01*
X104718545Y-88927736D01*
X104748147Y-89025322D01*
X104796219Y-89115258D01*
X104847500Y-89177746D01*
X104847501Y-89602254D01*
X104796219Y-89664742D01*
X104748147Y-89754678D01*
X104718545Y-89852264D01*
X104708549Y-89953750D01*
X104708549Y-90466250D01*
X104718545Y-90567736D01*
X104748147Y-90665322D01*
X104796219Y-90755258D01*
X104860912Y-90834088D01*
X104939742Y-90898781D01*
X105029678Y-90946853D01*
X105127264Y-90976455D01*
X105228750Y-90986451D01*
X105666250Y-90986451D01*
X105767736Y-90976455D01*
X105865322Y-90946853D01*
X105955258Y-90898781D01*
X106034088Y-90834088D01*
X106053856Y-90810000D01*
X106551472Y-90810000D01*
X106778000Y-91036529D01*
X106778000Y-91390084D01*
X106774496Y-91396640D01*
X106757341Y-91453190D01*
X106751549Y-91512000D01*
X106751549Y-92572000D01*
X106757341Y-92630810D01*
X106774496Y-92687360D01*
X106802353Y-92739477D01*
X106839842Y-92785158D01*
X106885523Y-92822647D01*
X106937640Y-92850504D01*
X106994190Y-92867659D01*
X107053000Y-92873451D01*
X107703000Y-92873451D01*
X107761810Y-92867659D01*
X107818360Y-92850504D01*
X107870477Y-92822647D01*
X107916158Y-92785158D01*
X107953647Y-92739477D01*
X107981504Y-92687360D01*
X107998659Y-92630810D01*
X108004451Y-92572000D01*
X108004451Y-91512000D01*
X107998659Y-91453190D01*
X107981504Y-91396640D01*
X107978000Y-91390084D01*
X107978000Y-90817465D01*
X107980902Y-90787999D01*
X107978000Y-90758533D01*
X107978000Y-90758526D01*
X107969318Y-90670379D01*
X107935010Y-90557279D01*
X107879296Y-90453045D01*
X107804317Y-90361683D01*
X107781425Y-90342896D01*
X107245113Y-89806585D01*
X107226317Y-89783683D01*
X107134955Y-89708704D01*
X107030721Y-89652990D01*
X106917621Y-89618682D01*
X106829474Y-89610000D01*
X106800000Y-89607097D01*
X106770526Y-89610000D01*
X106053856Y-89610000D01*
X106047500Y-89602255D01*
X106047500Y-89177745D01*
X106098781Y-89115258D01*
X106146853Y-89025322D01*
X106176455Y-88927736D01*
X106186451Y-88826250D01*
X106186451Y-88313750D01*
X106176455Y-88212264D01*
X106146853Y-88114678D01*
X106098781Y-88024742D01*
X106034088Y-87945912D01*
X105955258Y-87881219D01*
X105865322Y-87833147D01*
X105767736Y-87803545D01*
X105666250Y-87793549D01*
X105228750Y-87793549D01*
X105127264Y-87803545D01*
X105029678Y-87833147D01*
X104939742Y-87881219D01*
X104860912Y-87945912D01*
X104796219Y-88024742D01*
X104748147Y-88114678D01*
X104718545Y-88212264D01*
X104708549Y-88313750D01*
X104610160Y-88313750D01*
X104611452Y-88095000D01*
X104605660Y-88036190D01*
X104588505Y-87979639D01*
X104560648Y-87927522D01*
X104523159Y-87881841D01*
X104477478Y-87844352D01*
X104425361Y-87816495D01*
X104368810Y-87799340D01*
X104310000Y-87793548D01*
X104101500Y-87795000D01*
X104026500Y-87870000D01*
X103718500Y-87870000D01*
X103643500Y-87795000D01*
X103435000Y-87793548D01*
X103376190Y-87799340D01*
X103319639Y-87816495D01*
X103267522Y-87844352D01*
X103221841Y-87881841D01*
X103184352Y-87927522D01*
X103156495Y-87979639D01*
X103139340Y-88036190D01*
X103133548Y-88095000D01*
X102271753Y-88095000D01*
X102245806Y-87964557D01*
X102159116Y-87755271D01*
X102033263Y-87566918D01*
X101873082Y-87406737D01*
X101788169Y-87350000D01*
X108666836Y-87350000D01*
X108654341Y-87391190D01*
X108648549Y-87450000D01*
X108648549Y-89150000D01*
X108654341Y-89208810D01*
X108671496Y-89265360D01*
X108699353Y-89317477D01*
X108736842Y-89363158D01*
X108782523Y-89400647D01*
X108834640Y-89428504D01*
X108891190Y-89445659D01*
X108950000Y-89451451D01*
X110650000Y-89451451D01*
X110708810Y-89445659D01*
X110765360Y-89428504D01*
X110817477Y-89400647D01*
X110863158Y-89363158D01*
X110900647Y-89317477D01*
X110928504Y-89265360D01*
X110945659Y-89208810D01*
X110951451Y-89150000D01*
X110951451Y-87450000D01*
X110945659Y-87391190D01*
X110933164Y-87350000D01*
X111691831Y-87350000D01*
X111606918Y-87406737D01*
X111446737Y-87566918D01*
X111320884Y-87755271D01*
X111234194Y-87964557D01*
X111190000Y-88186735D01*
X111190000Y-88413265D01*
X111234194Y-88635443D01*
X111320884Y-88844729D01*
X111446737Y-89033082D01*
X111606918Y-89193263D01*
X111795271Y-89319116D01*
X112004557Y-89405806D01*
X112226735Y-89450000D01*
X112453265Y-89450000D01*
X112675443Y-89405806D01*
X112884729Y-89319116D01*
X113073082Y-89193263D01*
X113233263Y-89033082D01*
X113359116Y-88844729D01*
X113445806Y-88635443D01*
X113446812Y-88630385D01*
X113778472Y-88630385D01*
X113864092Y-88838934D01*
X113988753Y-89026772D01*
X114147664Y-89186681D01*
X114334719Y-89312515D01*
X114542728Y-89399439D01*
X114549617Y-89401520D01*
X114726000Y-89363912D01*
X114726000Y-88454000D01*
X115034000Y-88454000D01*
X115034000Y-89363912D01*
X115210383Y-89401520D01*
X115217272Y-89399439D01*
X115425281Y-89312515D01*
X115612336Y-89186681D01*
X115771247Y-89026772D01*
X115895908Y-88838934D01*
X115981528Y-88630385D01*
X116318472Y-88630385D01*
X116404092Y-88838934D01*
X116528753Y-89026772D01*
X116687664Y-89186681D01*
X116874719Y-89312515D01*
X117082728Y-89399439D01*
X117089617Y-89401520D01*
X117266000Y-89363912D01*
X117266000Y-88454000D01*
X117574000Y-88454000D01*
X117574000Y-89363912D01*
X117750383Y-89401520D01*
X117757272Y-89399439D01*
X117965281Y-89312515D01*
X118152336Y-89186681D01*
X118311247Y-89026772D01*
X118435908Y-88838934D01*
X118521528Y-88630385D01*
X118484650Y-88454000D01*
X117574000Y-88454000D01*
X117266000Y-88454000D01*
X116355350Y-88454000D01*
X116318472Y-88630385D01*
X115981528Y-88630385D01*
X115944650Y-88454000D01*
X115034000Y-88454000D01*
X114726000Y-88454000D01*
X113815350Y-88454000D01*
X113778472Y-88630385D01*
X113446812Y-88630385D01*
X113490000Y-88413265D01*
X113490000Y-88186735D01*
X113445806Y-87964557D01*
X113359116Y-87755271D01*
X113233263Y-87566918D01*
X113073082Y-87406737D01*
X112988169Y-87350000D01*
X114241789Y-87350000D01*
X114147664Y-87413319D01*
X113988753Y-87573228D01*
X113864092Y-87761066D01*
X113778472Y-87969615D01*
X113815350Y-88146000D01*
X114726000Y-88146000D01*
X114726000Y-88126000D01*
X115034000Y-88126000D01*
X115034000Y-88146000D01*
X115944650Y-88146000D01*
X115981528Y-87969615D01*
X115895908Y-87761066D01*
X115771247Y-87573228D01*
X115612336Y-87413319D01*
X115518211Y-87350000D01*
X116781789Y-87350000D01*
X116687664Y-87413319D01*
X116528753Y-87573228D01*
X116404092Y-87761066D01*
X116318472Y-87969615D01*
X116355350Y-88146000D01*
X117266000Y-88146000D01*
X117266000Y-88126000D01*
X117574000Y-88126000D01*
X117574000Y-88146000D01*
X118484650Y-88146000D01*
X118521528Y-87969615D01*
X118435908Y-87761066D01*
X118311247Y-87573228D01*
X118152336Y-87413319D01*
X118058211Y-87350000D01*
X124038810Y-87350000D01*
X124038810Y-89687500D01*
X126650000Y-89687500D01*
X126650000Y-92998820D01*
X125129000Y-93000000D01*
X125054000Y-93075000D01*
X125054000Y-93821000D01*
X125074000Y-93821000D01*
X125074000Y-94129000D01*
X125054000Y-94129000D01*
X125054000Y-94875000D01*
X125129000Y-94950000D01*
X126650001Y-94951180D01*
X126650001Y-95863549D01*
X123300000Y-95863549D01*
X123241190Y-95869341D01*
X123184640Y-95886496D01*
X123132523Y-95914353D01*
X123086842Y-95951842D01*
X123049353Y-95997523D01*
X123022373Y-96048000D01*
X122536935Y-96048000D01*
X122500000Y-96044362D01*
X122463064Y-96048000D01*
X122463062Y-96048000D01*
X122352582Y-96058881D01*
X122210830Y-96101882D01*
X122080190Y-96171710D01*
X121965683Y-96265683D01*
X121942137Y-96294374D01*
X120938512Y-97298000D01*
X120887451Y-97298000D01*
X120887451Y-97267000D01*
X120881659Y-97208190D01*
X120864504Y-97151640D01*
X120836647Y-97099523D01*
X120799158Y-97053842D01*
X120753477Y-97016353D01*
X120701360Y-96988496D01*
X120644810Y-96971341D01*
X120586000Y-96965549D01*
X120078000Y-96965549D01*
X120019190Y-96971341D01*
X119962640Y-96988496D01*
X119910523Y-97016353D01*
X119864842Y-97053842D01*
X119862101Y-97057182D01*
X119859359Y-97053841D01*
X119813678Y-97016352D01*
X119761561Y-96988495D01*
X119705010Y-96971340D01*
X119646200Y-96965548D01*
X119621200Y-96967000D01*
X119546200Y-97042000D01*
X119546200Y-97748000D01*
X119566200Y-97748000D01*
X119566200Y-98056000D01*
X119546200Y-98056000D01*
X119546200Y-98762000D01*
X119621200Y-98837000D01*
X119646200Y-98838452D01*
X119705010Y-98832660D01*
X119761561Y-98815505D01*
X119813678Y-98787648D01*
X119859359Y-98750159D01*
X119862101Y-98746818D01*
X119864842Y-98750158D01*
X119910523Y-98787647D01*
X119962640Y-98815504D01*
X120019190Y-98832659D01*
X120078000Y-98838451D01*
X120586000Y-98838451D01*
X120644810Y-98832659D01*
X120701360Y-98815504D01*
X120726624Y-98802000D01*
X121213065Y-98802000D01*
X121250000Y-98805638D01*
X121286935Y-98802000D01*
X121286938Y-98802000D01*
X121397418Y-98791119D01*
X121539170Y-98748118D01*
X121669810Y-98678290D01*
X121784317Y-98584317D01*
X121807867Y-98555621D01*
X122811489Y-97552000D01*
X123022373Y-97552000D01*
X123049353Y-97602477D01*
X123086842Y-97648158D01*
X123132523Y-97685647D01*
X123184640Y-97713504D01*
X123241190Y-97730659D01*
X123300000Y-97736451D01*
X126650001Y-97736451D01*
X126650001Y-98648820D01*
X125129000Y-98650000D01*
X125054000Y-98725000D01*
X125054000Y-99471000D01*
X125074000Y-99471000D01*
X125074000Y-99779000D01*
X125054000Y-99779000D01*
X125054000Y-100525000D01*
X125129000Y-100600000D01*
X126650001Y-100601180D01*
X126650001Y-100650000D01*
X97350000Y-100650000D01*
X97350000Y-100601180D01*
X98871000Y-100600000D01*
X98946000Y-100525000D01*
X98946000Y-99779000D01*
X99254000Y-99779000D01*
X99254000Y-100525000D01*
X99329000Y-100600000D01*
X101200000Y-100601452D01*
X101258810Y-100595660D01*
X101315361Y-100578505D01*
X101367478Y-100550648D01*
X101413159Y-100513159D01*
X101450648Y-100467478D01*
X101478505Y-100415361D01*
X101495660Y-100358810D01*
X101501452Y-100300000D01*
X122498548Y-100300000D01*
X122504340Y-100358810D01*
X122521495Y-100415361D01*
X122549352Y-100467478D01*
X122586841Y-100513159D01*
X122632522Y-100550648D01*
X122684639Y-100578505D01*
X122741190Y-100595660D01*
X122800000Y-100601452D01*
X124671000Y-100600000D01*
X124746000Y-100525000D01*
X124746000Y-99779000D01*
X122575000Y-99779000D01*
X122500000Y-99854000D01*
X122498548Y-100300000D01*
X101501452Y-100300000D01*
X101500000Y-99854000D01*
X101425000Y-99779000D01*
X99254000Y-99779000D01*
X98946000Y-99779000D01*
X98926000Y-99779000D01*
X98926000Y-99471000D01*
X98946000Y-99471000D01*
X98946000Y-98725000D01*
X99254000Y-98725000D01*
X99254000Y-99471000D01*
X101425000Y-99471000D01*
X101500000Y-99396000D01*
X101501452Y-98950000D01*
X122498548Y-98950000D01*
X122500000Y-99396000D01*
X122575000Y-99471000D01*
X124746000Y-99471000D01*
X124746000Y-98725000D01*
X124671000Y-98650000D01*
X122800000Y-98648548D01*
X122741190Y-98654340D01*
X122684639Y-98671495D01*
X122632522Y-98699352D01*
X122586841Y-98736841D01*
X122549352Y-98782522D01*
X122521495Y-98834639D01*
X122504340Y-98891190D01*
X122498548Y-98950000D01*
X101501452Y-98950000D01*
X101495660Y-98891190D01*
X101478505Y-98834639D01*
X101450648Y-98782522D01*
X101413159Y-98736841D01*
X101367478Y-98699352D01*
X101315361Y-98671495D01*
X101258810Y-98654340D01*
X101200000Y-98648548D01*
X99329000Y-98650000D01*
X99254000Y-98725000D01*
X98946000Y-98725000D01*
X98871000Y-98650000D01*
X97350000Y-98648820D01*
X97350000Y-97736451D01*
X100700000Y-97736451D01*
X100758810Y-97730659D01*
X100815360Y-97713504D01*
X100867477Y-97685647D01*
X100913158Y-97648158D01*
X100950647Y-97602477D01*
X100977627Y-97552000D01*
X103338512Y-97552000D01*
X104342137Y-98555626D01*
X104365683Y-98584317D01*
X104480190Y-98678290D01*
X104610830Y-98748118D01*
X104752582Y-98791119D01*
X104863062Y-98802000D01*
X104863064Y-98802000D01*
X104900000Y-98805638D01*
X104936935Y-98802000D01*
X118057776Y-98802000D01*
X118083040Y-98815504D01*
X118139590Y-98832659D01*
X118198400Y-98838451D01*
X118706400Y-98838451D01*
X118765210Y-98832659D01*
X118821760Y-98815504D01*
X118873877Y-98787647D01*
X118919558Y-98750158D01*
X118922299Y-98746818D01*
X118925041Y-98750159D01*
X118970722Y-98787648D01*
X119022839Y-98815505D01*
X119079390Y-98832660D01*
X119138200Y-98838452D01*
X119163200Y-98837000D01*
X119238200Y-98762000D01*
X119238200Y-98056000D01*
X119218200Y-98056000D01*
X119218200Y-97748000D01*
X119238200Y-97748000D01*
X119238200Y-97042000D01*
X119163200Y-96967000D01*
X119138200Y-96965548D01*
X119079390Y-96971340D01*
X119022839Y-96988495D01*
X118970722Y-97016352D01*
X118925041Y-97053841D01*
X118922299Y-97057182D01*
X118919558Y-97053842D01*
X118873877Y-97016353D01*
X118821760Y-96988496D01*
X118765210Y-96971341D01*
X118706400Y-96965549D01*
X118198400Y-96965549D01*
X118139590Y-96971341D01*
X118083040Y-96988496D01*
X118030923Y-97016353D01*
X117985242Y-97053842D01*
X117947753Y-97099523D01*
X117919896Y-97151640D01*
X117902741Y-97208190D01*
X117896949Y-97267000D01*
X117896949Y-97298000D01*
X105211489Y-97298000D01*
X104207867Y-96294379D01*
X104184317Y-96265683D01*
X104069810Y-96171710D01*
X103939170Y-96101882D01*
X103797418Y-96058881D01*
X103686938Y-96048000D01*
X103686935Y-96048000D01*
X103650000Y-96044362D01*
X103613065Y-96048000D01*
X100977627Y-96048000D01*
X100950647Y-95997523D01*
X100913158Y-95951842D01*
X100867477Y-95914353D01*
X100815360Y-95886496D01*
X100758810Y-95869341D01*
X100700000Y-95863549D01*
X97350000Y-95863549D01*
X97350000Y-94951180D01*
X98871000Y-94950000D01*
X98946000Y-94875000D01*
X98946000Y-94129000D01*
X99254000Y-94129000D01*
X99254000Y-94875000D01*
X99329000Y-94950000D01*
X101200000Y-94951452D01*
X101258810Y-94945660D01*
X101315361Y-94928505D01*
X101367478Y-94900648D01*
X101413159Y-94863159D01*
X101450648Y-94817478D01*
X101478505Y-94765361D01*
X101495660Y-94708810D01*
X101501452Y-94650000D01*
X101500000Y-94204000D01*
X101425000Y-94129000D01*
X99254000Y-94129000D01*
X98946000Y-94129000D01*
X98926000Y-94129000D01*
X98926000Y-94055000D01*
X102823548Y-94055000D01*
X102829340Y-94113810D01*
X102846495Y-94170361D01*
X102874352Y-94222478D01*
X102911841Y-94268159D01*
X102957522Y-94305648D01*
X103009639Y-94333505D01*
X103066190Y-94350660D01*
X103125000Y-94356452D01*
X103371000Y-94355000D01*
X103446000Y-94280000D01*
X103446000Y-93771500D01*
X103754000Y-93771500D01*
X103754000Y-94280000D01*
X103829000Y-94355000D01*
X104075000Y-94356452D01*
X104133810Y-94350660D01*
X104190361Y-94333505D01*
X104242478Y-94305648D01*
X104288159Y-94268159D01*
X104325648Y-94222478D01*
X104353505Y-94170361D01*
X104370660Y-94113810D01*
X104376452Y-94055000D01*
X104375000Y-93846500D01*
X104300000Y-93771500D01*
X103754000Y-93771500D01*
X103446000Y-93771500D01*
X102900000Y-93771500D01*
X102825000Y-93846500D01*
X102823548Y-94055000D01*
X98926000Y-94055000D01*
X98926000Y-93821000D01*
X98946000Y-93821000D01*
X98946000Y-93075000D01*
X99254000Y-93075000D01*
X99254000Y-93821000D01*
X101425000Y-93821000D01*
X101500000Y-93746000D01*
X101501452Y-93300000D01*
X101495660Y-93241190D01*
X101478505Y-93184639D01*
X101476026Y-93180000D01*
X102823548Y-93180000D01*
X102825000Y-93388500D01*
X102900000Y-93463500D01*
X103446000Y-93463500D01*
X103446000Y-92955000D01*
X103754000Y-92955000D01*
X103754000Y-93463500D01*
X104300000Y-93463500D01*
X104375000Y-93388500D01*
X104376452Y-93180000D01*
X104370660Y-93121190D01*
X104353505Y-93064639D01*
X104325648Y-93012522D01*
X104288159Y-92966841D01*
X104242478Y-92929352D01*
X104190361Y-92901495D01*
X104133810Y-92884340D01*
X104075000Y-92878548D01*
X103829000Y-92880000D01*
X103754000Y-92955000D01*
X103446000Y-92955000D01*
X103371000Y-92880000D01*
X103125000Y-92878548D01*
X103066190Y-92884340D01*
X103009639Y-92901495D01*
X102957522Y-92929352D01*
X102911841Y-92966841D01*
X102874352Y-93012522D01*
X102846495Y-93064639D01*
X102829340Y-93121190D01*
X102823548Y-93180000D01*
X101476026Y-93180000D01*
X101450648Y-93132522D01*
X101413159Y-93086841D01*
X101367478Y-93049352D01*
X101315361Y-93021495D01*
X101258810Y-93004340D01*
X101200000Y-92998548D01*
X99329000Y-93000000D01*
X99254000Y-93075000D01*
X98946000Y-93075000D01*
X98871000Y-93000000D01*
X97350000Y-92998820D01*
X97350000Y-89150000D01*
X97448548Y-89150000D01*
X97454340Y-89208810D01*
X97471495Y-89265361D01*
X97499352Y-89317478D01*
X97536841Y-89363159D01*
X97582522Y-89400648D01*
X97634639Y-89428505D01*
X97691190Y-89445660D01*
X97750000Y-89451452D01*
X98371000Y-89450000D01*
X98446000Y-89375000D01*
X98446000Y-88454000D01*
X98754000Y-88454000D01*
X98754000Y-89375000D01*
X98829000Y-89450000D01*
X99450000Y-89451452D01*
X99508810Y-89445660D01*
X99565361Y-89428505D01*
X99617478Y-89400648D01*
X99663159Y-89363159D01*
X99700648Y-89317478D01*
X99728505Y-89265361D01*
X99745660Y-89208810D01*
X99751452Y-89150000D01*
X99750000Y-88529000D01*
X99675000Y-88454000D01*
X98754000Y-88454000D01*
X98446000Y-88454000D01*
X97525000Y-88454000D01*
X97450000Y-88529000D01*
X97448548Y-89150000D01*
X97350000Y-89150000D01*
X97350000Y-87350000D01*
X97466835Y-87350000D01*
X97454340Y-87391190D01*
G04 #@! TD*
M02*
