G04 #@! TF.GenerationSoftware,KiCad,Pcbnew,5.1.6-c6e7f7d~86~ubuntu18.04.1*
G04 #@! TF.CreationDate,2020-07-16T21:36:01-04:00*
G04 #@! TF.ProjectId,rf-detector-r2,72662d64-6574-4656-9374-6f722d72322e,rev?*
G04 #@! TF.SameCoordinates,Original*
G04 #@! TF.FileFunction,Legend,Top*
G04 #@! TF.FilePolarity,Positive*
%FSLAX46Y46*%
G04 Gerber Fmt 4.6, Leading zero omitted, Abs format (unit mm)*
G04 Created by KiCad (PCBNEW 5.1.6-c6e7f7d~86~ubuntu18.04.1) date 2020-07-16 21:36:01*
%MOMM*%
%LPD*%
G01*
G04 APERTURE LIST*
%ADD10C,0.150000*%
%ADD11C,0.300000*%
%ADD12C,0.120000*%
%ADD13C,0.152400*%
%ADD14C,0.125000*%
G04 APERTURE END LIST*
D10*
D11*
X118800000Y-99028571D02*
X119085714Y-99028571D01*
X119228571Y-99100000D01*
X119371428Y-99242857D01*
X119442857Y-99528571D01*
X119442857Y-100028571D01*
X119371428Y-100314285D01*
X119228571Y-100457142D01*
X119085714Y-100528571D01*
X118800000Y-100528571D01*
X118657142Y-100457142D01*
X118514285Y-100314285D01*
X118442857Y-100028571D01*
X118442857Y-99528571D01*
X118514285Y-99242857D01*
X118657142Y-99100000D01*
X118800000Y-99028571D01*
X120728571Y-99528571D02*
X120728571Y-100528571D01*
X120085714Y-99528571D02*
X120085714Y-100314285D01*
X120157142Y-100457142D01*
X120300000Y-100528571D01*
X120514285Y-100528571D01*
X120657142Y-100457142D01*
X120728571Y-100385714D01*
X121228571Y-99528571D02*
X121800000Y-99528571D01*
X121442857Y-99028571D02*
X121442857Y-100314285D01*
X121514285Y-100457142D01*
X121657142Y-100528571D01*
X121800000Y-100528571D01*
X102221428Y-100528571D02*
X102221428Y-99028571D01*
X102935714Y-99528571D02*
X102935714Y-100528571D01*
X102935714Y-99671428D02*
X103007142Y-99600000D01*
X103150000Y-99528571D01*
X103364285Y-99528571D01*
X103507142Y-99600000D01*
X103578571Y-99742857D01*
X103578571Y-100528571D01*
X98028571Y-90407142D02*
X99171428Y-90407142D01*
X100578571Y-90407142D02*
X101721428Y-90407142D01*
X101150000Y-90978571D02*
X101150000Y-89835714D01*
D12*
G04 #@! TO.C,C2*
X111822000Y-94339221D02*
X111822000Y-94664779D01*
X112842000Y-94339221D02*
X112842000Y-94664779D01*
D13*
G04 #@! TO.C,U2*
X111279800Y-92897200D02*
X111279800Y-92795600D01*
X111279800Y-93506800D02*
X111279800Y-92897200D01*
X111279800Y-93608400D02*
X111279800Y-93506800D01*
X111279800Y-93506800D02*
G75*
G02*
X111279800Y-92897200I0J304800D01*
G01*
D12*
G04 #@! TO.C,J3*
X108530000Y-89570000D02*
X108530000Y-88300000D01*
X109800000Y-89570000D02*
X108530000Y-89570000D01*
X117800000Y-87257071D02*
X117800000Y-86860000D01*
X117040000Y-87257071D02*
X117040000Y-86860000D01*
X117800000Y-78200000D02*
X117800000Y-84200000D01*
X117040000Y-78200000D02*
X117800000Y-78200000D01*
X117040000Y-84200000D02*
X117040000Y-78200000D01*
X116150000Y-86860000D02*
X116150000Y-84200000D01*
X115260000Y-87257071D02*
X115260000Y-86860000D01*
X114500000Y-87257071D02*
X114500000Y-86860000D01*
X115260000Y-78200000D02*
X115260000Y-84200000D01*
X114500000Y-78200000D02*
X115260000Y-78200000D01*
X114500000Y-84200000D02*
X114500000Y-78200000D01*
X113610000Y-86860000D02*
X113610000Y-84200000D01*
X112720000Y-87257071D02*
X112720000Y-86860000D01*
X111960000Y-87257071D02*
X111960000Y-86860000D01*
X112720000Y-78200000D02*
X112720000Y-84200000D01*
X111960000Y-78200000D02*
X112720000Y-78200000D01*
X111960000Y-84200000D02*
X111960000Y-78200000D01*
X111070000Y-86860000D02*
X111070000Y-84200000D01*
X110180000Y-87190000D02*
X110180000Y-86860000D01*
X109420000Y-87190000D02*
X109420000Y-86860000D01*
X110080000Y-84200000D02*
X110080000Y-78200000D01*
X109960000Y-84200000D02*
X109960000Y-78200000D01*
X109840000Y-84200000D02*
X109840000Y-78200000D01*
X109720000Y-84200000D02*
X109720000Y-78200000D01*
X109600000Y-84200000D02*
X109600000Y-78200000D01*
X109480000Y-84200000D02*
X109480000Y-78200000D01*
X110180000Y-78200000D02*
X110180000Y-84200000D01*
X109420000Y-78200000D02*
X110180000Y-78200000D01*
X109420000Y-84200000D02*
X109420000Y-78200000D01*
X108470000Y-84200000D02*
X108470000Y-86860000D01*
X118750000Y-84200000D02*
X108470000Y-84200000D01*
X118750000Y-86860000D02*
X118750000Y-84200000D01*
X108470000Y-86860000D02*
X118750000Y-86860000D01*
G04 #@! TO.C,C1*
X112869221Y-91492000D02*
X113194779Y-91492000D01*
X112869221Y-92512000D02*
X113194779Y-92512000D01*
G04 #@! TO.C,R1*
X119069221Y-93092000D02*
X119394779Y-93092000D01*
X119069221Y-94112000D02*
X119394779Y-94112000D01*
G04 #@! TO.C,R3*
X117489221Y-91492000D02*
X117814779Y-91492000D01*
X117489221Y-92512000D02*
X117814779Y-92512000D01*
G04 #@! TO.C,R4*
X115842000Y-92964779D02*
X115842000Y-92639221D01*
X114822000Y-92964779D02*
X114822000Y-92639221D01*
G04 #@! TO.C,U1*
X120945722Y-94612700D02*
G75*
G03*
X120945722Y-94612700I-80322J0D01*
G01*
G04 #@! TO.C,J1*
X101860000Y-96550000D02*
X101360000Y-96800000D01*
X101860000Y-97050000D02*
X101860000Y-96550000D01*
X101360000Y-96800000D02*
X101860000Y-97050000D01*
X97100000Y-94850000D02*
X97100000Y-95960000D01*
X97100000Y-97640000D02*
X97100000Y-98750000D01*
X100810000Y-94850000D02*
X100810000Y-95960000D01*
X100810000Y-97640000D02*
X100810000Y-98750000D01*
G04 #@! TO.C,J2*
X123190000Y-95960000D02*
X123190000Y-94850000D01*
X123190000Y-98750000D02*
X123190000Y-97640000D01*
X126900000Y-95960000D02*
X126900000Y-94850000D01*
X126900000Y-98750000D02*
X126900000Y-97640000D01*
X122640000Y-96800000D02*
X122140000Y-96550000D01*
X122140000Y-96550000D02*
X122140000Y-97050000D01*
X122140000Y-97050000D02*
X122640000Y-96800000D01*
G04 #@! TO.C,C3*
X104110000Y-92992779D02*
X104110000Y-92667221D01*
X103090000Y-92992779D02*
X103090000Y-92667221D01*
G04 #@! TO.C,R2*
X104822779Y-90720000D02*
X104497221Y-90720000D01*
X104822779Y-89700000D02*
X104497221Y-89700000D01*
G04 #@! TO.C,R5*
X104822779Y-88060000D02*
X104497221Y-88060000D01*
X104822779Y-89080000D02*
X104497221Y-89080000D01*
G04 #@! TO.C,U3*
X104818000Y-92242000D02*
X104818000Y-94692000D01*
X108038000Y-94042000D02*
X108038000Y-92242000D01*
G04 #@! TO.C,J4*
X97330000Y-89570000D02*
X97330000Y-88300000D01*
X98600000Y-89570000D02*
X97330000Y-89570000D01*
X101520000Y-87257071D02*
X101520000Y-86860000D01*
X100760000Y-87257071D02*
X100760000Y-86860000D01*
X101520000Y-78200000D02*
X101520000Y-84200000D01*
X100760000Y-78200000D02*
X101520000Y-78200000D01*
X100760000Y-84200000D02*
X100760000Y-78200000D01*
X99870000Y-86860000D02*
X99870000Y-84200000D01*
X98980000Y-87190000D02*
X98980000Y-86860000D01*
X98220000Y-87190000D02*
X98220000Y-86860000D01*
X98880000Y-84200000D02*
X98880000Y-78200000D01*
X98760000Y-84200000D02*
X98760000Y-78200000D01*
X98640000Y-84200000D02*
X98640000Y-78200000D01*
X98520000Y-84200000D02*
X98520000Y-78200000D01*
X98400000Y-84200000D02*
X98400000Y-78200000D01*
X98280000Y-84200000D02*
X98280000Y-78200000D01*
X98980000Y-78200000D02*
X98980000Y-84200000D01*
X98220000Y-78200000D02*
X98980000Y-78200000D01*
X98220000Y-84200000D02*
X98220000Y-78200000D01*
X97270000Y-84200000D02*
X97270000Y-86860000D01*
X102470000Y-84200000D02*
X97270000Y-84200000D01*
X102470000Y-86860000D02*
X102470000Y-84200000D01*
X97270000Y-86860000D02*
X102470000Y-86860000D01*
G04 #@! TO.C,C2*
D14*
X113748666Y-94480571D02*
X113724857Y-94504380D01*
X113653428Y-94528190D01*
X113605809Y-94528190D01*
X113534380Y-94504380D01*
X113486761Y-94456761D01*
X113462952Y-94409142D01*
X113439142Y-94313904D01*
X113439142Y-94242476D01*
X113462952Y-94147238D01*
X113486761Y-94099619D01*
X113534380Y-94052000D01*
X113605809Y-94028190D01*
X113653428Y-94028190D01*
X113724857Y-94052000D01*
X113748666Y-94075809D01*
X113939142Y-94075809D02*
X113962952Y-94052000D01*
X114010571Y-94028190D01*
X114129619Y-94028190D01*
X114177238Y-94052000D01*
X114201047Y-94075809D01*
X114224857Y-94123428D01*
X114224857Y-94171047D01*
X114201047Y-94242476D01*
X113915333Y-94528190D01*
X114224857Y-94528190D01*
G04 #@! TO.C,U2*
X110369047Y-95426190D02*
X110369047Y-95830952D01*
X110392857Y-95878571D01*
X110416666Y-95902380D01*
X110464285Y-95926190D01*
X110559523Y-95926190D01*
X110607142Y-95902380D01*
X110630952Y-95878571D01*
X110654761Y-95830952D01*
X110654761Y-95426190D01*
X110869047Y-95473809D02*
X110892857Y-95450000D01*
X110940476Y-95426190D01*
X111059523Y-95426190D01*
X111107142Y-95450000D01*
X111130952Y-95473809D01*
X111154761Y-95521428D01*
X111154761Y-95569047D01*
X111130952Y-95640476D01*
X110845238Y-95926190D01*
X111154761Y-95926190D01*
G04 #@! TO.C,J3*
D10*
X106982380Y-84248333D02*
X107696666Y-84248333D01*
X107839523Y-84295952D01*
X107934761Y-84391190D01*
X107982380Y-84534047D01*
X107982380Y-84629285D01*
X106982380Y-83867380D02*
X106982380Y-83248333D01*
X107363333Y-83581666D01*
X107363333Y-83438809D01*
X107410952Y-83343571D01*
X107458571Y-83295952D01*
X107553809Y-83248333D01*
X107791904Y-83248333D01*
X107887142Y-83295952D01*
X107934761Y-83343571D01*
X107982380Y-83438809D01*
X107982380Y-83724523D01*
X107934761Y-83819761D01*
X107887142Y-83867380D01*
G04 #@! TO.C,C1*
D14*
X112948666Y-90978571D02*
X112924857Y-91002380D01*
X112853428Y-91026190D01*
X112805809Y-91026190D01*
X112734380Y-91002380D01*
X112686761Y-90954761D01*
X112662952Y-90907142D01*
X112639142Y-90811904D01*
X112639142Y-90740476D01*
X112662952Y-90645238D01*
X112686761Y-90597619D01*
X112734380Y-90550000D01*
X112805809Y-90526190D01*
X112853428Y-90526190D01*
X112924857Y-90550000D01*
X112948666Y-90573809D01*
X113424857Y-91026190D02*
X113139142Y-91026190D01*
X113282000Y-91026190D02*
X113282000Y-90526190D01*
X113234380Y-90597619D01*
X113186761Y-90645238D01*
X113139142Y-90669047D01*
G04 #@! TO.C,R1*
X121216666Y-93776190D02*
X121050000Y-93538095D01*
X120930952Y-93776190D02*
X120930952Y-93276190D01*
X121121428Y-93276190D01*
X121169047Y-93300000D01*
X121192857Y-93323809D01*
X121216666Y-93371428D01*
X121216666Y-93442857D01*
X121192857Y-93490476D01*
X121169047Y-93514285D01*
X121121428Y-93538095D01*
X120930952Y-93538095D01*
X121692857Y-93776190D02*
X121407142Y-93776190D01*
X121550000Y-93776190D02*
X121550000Y-93276190D01*
X121502380Y-93347619D01*
X121454761Y-93395238D01*
X121407142Y-93419047D01*
G04 #@! TO.C,R3*
X117566666Y-90976190D02*
X117400000Y-90738095D01*
X117280952Y-90976190D02*
X117280952Y-90476190D01*
X117471428Y-90476190D01*
X117519047Y-90500000D01*
X117542857Y-90523809D01*
X117566666Y-90571428D01*
X117566666Y-90642857D01*
X117542857Y-90690476D01*
X117519047Y-90714285D01*
X117471428Y-90738095D01*
X117280952Y-90738095D01*
X117733333Y-90476190D02*
X118042857Y-90476190D01*
X117876190Y-90666666D01*
X117947619Y-90666666D01*
X117995238Y-90690476D01*
X118019047Y-90714285D01*
X118042857Y-90761904D01*
X118042857Y-90880952D01*
X118019047Y-90928571D01*
X117995238Y-90952380D01*
X117947619Y-90976190D01*
X117804761Y-90976190D01*
X117757142Y-90952380D01*
X117733333Y-90928571D01*
G04 #@! TO.C,R4*
X115266666Y-90976190D02*
X115100000Y-90738095D01*
X114980952Y-90976190D02*
X114980952Y-90476190D01*
X115171428Y-90476190D01*
X115219047Y-90500000D01*
X115242857Y-90523809D01*
X115266666Y-90571428D01*
X115266666Y-90642857D01*
X115242857Y-90690476D01*
X115219047Y-90714285D01*
X115171428Y-90738095D01*
X114980952Y-90738095D01*
X115695238Y-90642857D02*
X115695238Y-90976190D01*
X115576190Y-90452380D02*
X115457142Y-90809523D01*
X115766666Y-90809523D01*
G04 #@! TO.C,U1*
X116851047Y-95328190D02*
X116851047Y-95732952D01*
X116874857Y-95780571D01*
X116898666Y-95804380D01*
X116946285Y-95828190D01*
X117041523Y-95828190D01*
X117089142Y-95804380D01*
X117112952Y-95780571D01*
X117136761Y-95732952D01*
X117136761Y-95328190D01*
X117636761Y-95828190D02*
X117351047Y-95828190D01*
X117493904Y-95828190D02*
X117493904Y-95328190D01*
X117446285Y-95399619D01*
X117398666Y-95447238D01*
X117351047Y-95471047D01*
G04 #@! TO.C,J1*
D10*
X94052380Y-97433333D02*
X94766666Y-97433333D01*
X94909523Y-97480952D01*
X95004761Y-97576190D01*
X95052380Y-97719047D01*
X95052380Y-97814285D01*
X95052380Y-96433333D02*
X95052380Y-97004761D01*
X95052380Y-96719047D02*
X94052380Y-96719047D01*
X94195238Y-96814285D01*
X94290476Y-96909523D01*
X94338095Y-97004761D01*
G04 #@! TO.C,J2*
X130752380Y-97333333D02*
X131466666Y-97333333D01*
X131609523Y-97380952D01*
X131704761Y-97476190D01*
X131752380Y-97619047D01*
X131752380Y-97714285D01*
X130847619Y-96904761D02*
X130800000Y-96857142D01*
X130752380Y-96761904D01*
X130752380Y-96523809D01*
X130800000Y-96428571D01*
X130847619Y-96380952D01*
X130942857Y-96333333D01*
X131038095Y-96333333D01*
X131180952Y-96380952D01*
X131752380Y-96952380D01*
X131752380Y-96333333D01*
G04 #@! TO.C,C3*
D14*
X102116666Y-92228571D02*
X102092857Y-92252380D01*
X102021428Y-92276190D01*
X101973809Y-92276190D01*
X101902380Y-92252380D01*
X101854761Y-92204761D01*
X101830952Y-92157142D01*
X101807142Y-92061904D01*
X101807142Y-91990476D01*
X101830952Y-91895238D01*
X101854761Y-91847619D01*
X101902380Y-91800000D01*
X101973809Y-91776190D01*
X102021428Y-91776190D01*
X102092857Y-91800000D01*
X102116666Y-91823809D01*
X102283333Y-91776190D02*
X102592857Y-91776190D01*
X102426190Y-91966666D01*
X102497619Y-91966666D01*
X102545238Y-91990476D01*
X102569047Y-92014285D01*
X102592857Y-92061904D01*
X102592857Y-92180952D01*
X102569047Y-92228571D01*
X102545238Y-92252380D01*
X102497619Y-92276190D01*
X102354761Y-92276190D01*
X102307142Y-92252380D01*
X102283333Y-92228571D01*
G04 #@! TO.C,R2*
X106666666Y-90426190D02*
X106500000Y-90188095D01*
X106380952Y-90426190D02*
X106380952Y-89926190D01*
X106571428Y-89926190D01*
X106619047Y-89950000D01*
X106642857Y-89973809D01*
X106666666Y-90021428D01*
X106666666Y-90092857D01*
X106642857Y-90140476D01*
X106619047Y-90164285D01*
X106571428Y-90188095D01*
X106380952Y-90188095D01*
X106857142Y-89973809D02*
X106880952Y-89950000D01*
X106928571Y-89926190D01*
X107047619Y-89926190D01*
X107095238Y-89950000D01*
X107119047Y-89973809D01*
X107142857Y-90021428D01*
X107142857Y-90069047D01*
X107119047Y-90140476D01*
X106833333Y-90426190D01*
X107142857Y-90426190D01*
G04 #@! TO.C,R5*
X106666666Y-88826190D02*
X106500000Y-88588095D01*
X106380952Y-88826190D02*
X106380952Y-88326190D01*
X106571428Y-88326190D01*
X106619047Y-88350000D01*
X106642857Y-88373809D01*
X106666666Y-88421428D01*
X106666666Y-88492857D01*
X106642857Y-88540476D01*
X106619047Y-88564285D01*
X106571428Y-88588095D01*
X106380952Y-88588095D01*
X107119047Y-88326190D02*
X106880952Y-88326190D01*
X106857142Y-88564285D01*
X106880952Y-88540476D01*
X106928571Y-88516666D01*
X107047619Y-88516666D01*
X107095238Y-88540476D01*
X107119047Y-88564285D01*
X107142857Y-88611904D01*
X107142857Y-88730952D01*
X107119047Y-88778571D01*
X107095238Y-88802380D01*
X107047619Y-88826190D01*
X106928571Y-88826190D01*
X106880952Y-88802380D01*
X106857142Y-88778571D01*
G04 #@! TO.C,U3*
X107069047Y-95426190D02*
X107069047Y-95830952D01*
X107092857Y-95878571D01*
X107116666Y-95902380D01*
X107164285Y-95926190D01*
X107259523Y-95926190D01*
X107307142Y-95902380D01*
X107330952Y-95878571D01*
X107354761Y-95830952D01*
X107354761Y-95426190D01*
X107545238Y-95426190D02*
X107854761Y-95426190D01*
X107688095Y-95616666D01*
X107759523Y-95616666D01*
X107807142Y-95640476D01*
X107830952Y-95664285D01*
X107854761Y-95711904D01*
X107854761Y-95830952D01*
X107830952Y-95878571D01*
X107807142Y-95902380D01*
X107759523Y-95926190D01*
X107616666Y-95926190D01*
X107569047Y-95902380D01*
X107545238Y-95878571D01*
G04 #@! TO.C,J4*
D10*
X95782380Y-84248333D02*
X96496666Y-84248333D01*
X96639523Y-84295952D01*
X96734761Y-84391190D01*
X96782380Y-84534047D01*
X96782380Y-84629285D01*
X96115714Y-83343571D02*
X96782380Y-83343571D01*
X95734761Y-83581666D02*
X96449047Y-83819761D01*
X96449047Y-83200714D01*
G04 #@! TD*
M02*
