G04 #@! TF.GenerationSoftware,KiCad,Pcbnew,5.1.6-c6e7f7d~86~ubuntu18.04.1*
G04 #@! TF.CreationDate,2020-07-16T21:36:01-04:00*
G04 #@! TF.ProjectId,rf-detector-r2,72662d64-6574-4656-9374-6f722d72322e,rev?*
G04 #@! TF.SameCoordinates,Original*
G04 #@! TF.FileFunction,Soldermask,Top*
G04 #@! TF.FilePolarity,Negative*
%FSLAX46Y46*%
G04 Gerber Fmt 4.6, Leading zero omitted, Abs format (unit mm)*
G04 Created by KiCad (PCBNEW 5.1.6-c6e7f7d~86~ubuntu18.04.1) date 2020-07-16 21:36:01*
%MOMM*%
%LPD*%
G01*
G04 APERTURE LIST*
%ADD10C,0.100000*%
%ADD11C,3.504000*%
%ADD12R,0.608000X1.319200*%
%ADD13R,1.800000X1.800000*%
%ADD14O,1.800000X1.800000*%
%ADD15R,0.608000X1.370000*%
%ADD16R,4.300000X1.450000*%
%ADD17R,3.700000X1.370000*%
%ADD18R,0.750000X1.160000*%
G04 APERTURE END LIST*
D10*
G36*
X105150000Y-99750000D02*
G01*
X104200000Y-99750000D01*
X103700000Y-99250000D01*
X105150000Y-99750000D01*
G37*
X105150000Y-99750000D02*
X104200000Y-99750000D01*
X103700000Y-99250000D01*
X105150000Y-99750000D01*
G36*
X104950000Y-95700000D02*
G01*
X103300000Y-95100000D01*
X104350000Y-95100000D01*
X104950000Y-95700000D01*
G37*
X104950000Y-95700000D02*
X103300000Y-95100000D01*
X104350000Y-95100000D01*
X104950000Y-95700000D01*
G36*
X103800000Y-98500000D02*
G01*
X101600000Y-98500000D01*
X101600000Y-95100000D01*
X103800000Y-95100000D01*
X103800000Y-98500000D01*
G37*
X103800000Y-98500000D02*
X101600000Y-98500000D01*
X101600000Y-95100000D01*
X103800000Y-95100000D01*
X103800000Y-98500000D01*
G36*
X117300000Y-99800000D02*
G01*
X115500000Y-99800000D01*
X115500000Y-96400000D01*
X117300000Y-96400000D01*
X117300000Y-99800000D01*
G37*
X117300000Y-99800000D02*
X115500000Y-99800000D01*
X115500000Y-96400000D01*
X117300000Y-96400000D01*
X117300000Y-99800000D01*
D11*
X103650000Y-96800000D02*
X104900000Y-98050000D01*
X104900000Y-98050000D02*
X115500000Y-98100000D01*
D10*
G36*
X126700000Y-89540000D02*
G01*
X124190000Y-89540000D01*
X124190000Y-87300000D01*
X126700000Y-87300000D01*
X126700000Y-89540000D01*
G37*
X126700000Y-89540000D02*
X124190000Y-89540000D01*
X124190000Y-87300000D01*
X126700000Y-87300000D01*
X126700000Y-89540000D01*
G04 #@! TO.C,C2*
G36*
G01*
X112050750Y-93227000D02*
X112613250Y-93227000D01*
G75*
G02*
X112857000Y-93470750I0J-243750D01*
G01*
X112857000Y-93958250D01*
G75*
G02*
X112613250Y-94202000I-243750J0D01*
G01*
X112050750Y-94202000D01*
G75*
G02*
X111807000Y-93958250I0J243750D01*
G01*
X111807000Y-93470750D01*
G75*
G02*
X112050750Y-93227000I243750J0D01*
G01*
G37*
G36*
G01*
X112050750Y-94802000D02*
X112613250Y-94802000D01*
G75*
G02*
X112857000Y-95045750I0J-243750D01*
G01*
X112857000Y-95533250D01*
G75*
G02*
X112613250Y-95777000I-243750J0D01*
G01*
X112050750Y-95777000D01*
G75*
G02*
X111807000Y-95533250I0J243750D01*
G01*
X111807000Y-95045750D01*
G75*
G02*
X112050750Y-94802000I243750J0D01*
G01*
G37*
G04 #@! TD*
D12*
G04 #@! TO.C,U2*
X110771800Y-91982800D03*
X109832000Y-91982800D03*
X108892200Y-91982800D03*
X108892200Y-94421200D03*
X110771800Y-94421200D03*
G04 #@! TD*
D13*
G04 #@! TO.C,J3*
X109800000Y-88300000D03*
D14*
X112340000Y-88300000D03*
X114880000Y-88300000D03*
X117420000Y-88300000D03*
G04 #@! TD*
G04 #@! TO.C,C1*
G36*
G01*
X111757000Y-92283250D02*
X111757000Y-91720750D01*
G75*
G02*
X112000750Y-91477000I243750J0D01*
G01*
X112488250Y-91477000D01*
G75*
G02*
X112732000Y-91720750I0J-243750D01*
G01*
X112732000Y-92283250D01*
G75*
G02*
X112488250Y-92527000I-243750J0D01*
G01*
X112000750Y-92527000D01*
G75*
G02*
X111757000Y-92283250I0J243750D01*
G01*
G37*
G36*
G01*
X113332000Y-92283250D02*
X113332000Y-91720750D01*
G75*
G02*
X113575750Y-91477000I243750J0D01*
G01*
X114063250Y-91477000D01*
G75*
G02*
X114307000Y-91720750I0J-243750D01*
G01*
X114307000Y-92283250D01*
G75*
G02*
X114063250Y-92527000I-243750J0D01*
G01*
X113575750Y-92527000D01*
G75*
G02*
X113332000Y-92283250I0J243750D01*
G01*
G37*
G04 #@! TD*
G04 #@! TO.C,R1*
G36*
G01*
X117957000Y-93883250D02*
X117957000Y-93320750D01*
G75*
G02*
X118200750Y-93077000I243750J0D01*
G01*
X118688250Y-93077000D01*
G75*
G02*
X118932000Y-93320750I0J-243750D01*
G01*
X118932000Y-93883250D01*
G75*
G02*
X118688250Y-94127000I-243750J0D01*
G01*
X118200750Y-94127000D01*
G75*
G02*
X117957000Y-93883250I0J243750D01*
G01*
G37*
G36*
G01*
X119532000Y-93883250D02*
X119532000Y-93320750D01*
G75*
G02*
X119775750Y-93077000I243750J0D01*
G01*
X120263250Y-93077000D01*
G75*
G02*
X120507000Y-93320750I0J-243750D01*
G01*
X120507000Y-93883250D01*
G75*
G02*
X120263250Y-94127000I-243750J0D01*
G01*
X119775750Y-94127000D01*
G75*
G02*
X119532000Y-93883250I0J243750D01*
G01*
G37*
G04 #@! TD*
G04 #@! TO.C,R3*
G36*
G01*
X116377000Y-92283250D02*
X116377000Y-91720750D01*
G75*
G02*
X116620750Y-91477000I243750J0D01*
G01*
X117108250Y-91477000D01*
G75*
G02*
X117352000Y-91720750I0J-243750D01*
G01*
X117352000Y-92283250D01*
G75*
G02*
X117108250Y-92527000I-243750J0D01*
G01*
X116620750Y-92527000D01*
G75*
G02*
X116377000Y-92283250I0J243750D01*
G01*
G37*
G36*
G01*
X117952000Y-92283250D02*
X117952000Y-91720750D01*
G75*
G02*
X118195750Y-91477000I243750J0D01*
G01*
X118683250Y-91477000D01*
G75*
G02*
X118927000Y-91720750I0J-243750D01*
G01*
X118927000Y-92283250D01*
G75*
G02*
X118683250Y-92527000I-243750J0D01*
G01*
X118195750Y-92527000D01*
G75*
G02*
X117952000Y-92283250I0J243750D01*
G01*
G37*
G04 #@! TD*
G04 #@! TO.C,R4*
G36*
G01*
X115613250Y-92502000D02*
X115050750Y-92502000D01*
G75*
G02*
X114807000Y-92258250I0J243750D01*
G01*
X114807000Y-91770750D01*
G75*
G02*
X115050750Y-91527000I243750J0D01*
G01*
X115613250Y-91527000D01*
G75*
G02*
X115857000Y-91770750I0J-243750D01*
G01*
X115857000Y-92258250D01*
G75*
G02*
X115613250Y-92502000I-243750J0D01*
G01*
G37*
G36*
G01*
X115613250Y-94077000D02*
X115050750Y-94077000D01*
G75*
G02*
X114807000Y-93833250I0J243750D01*
G01*
X114807000Y-93345750D01*
G75*
G02*
X115050750Y-93102000I243750J0D01*
G01*
X115613250Y-93102000D01*
G75*
G02*
X115857000Y-93345750I0J-243750D01*
G01*
X115857000Y-93833250D01*
G75*
G02*
X115613250Y-94077000I-243750J0D01*
G01*
G37*
G04 #@! TD*
D15*
G04 #@! TO.C,U1*
X119392200Y-97902000D03*
X118452400Y-97902000D03*
X120332000Y-97902000D03*
X120332000Y-95616000D03*
X119392200Y-95616000D03*
X118452400Y-95616000D03*
G04 #@! TD*
D16*
G04 #@! TO.C,J1*
X99100000Y-93975000D03*
X99100000Y-99625000D03*
D17*
X98900000Y-96800000D03*
G04 #@! TD*
G04 #@! TO.C,J2*
X125100000Y-96800000D03*
D16*
X124900000Y-93975000D03*
X124900000Y-99625000D03*
G04 #@! TD*
G04 #@! TO.C,C3*
G36*
G01*
X103881250Y-94105000D02*
X103318750Y-94105000D01*
G75*
G02*
X103075000Y-93861250I0J243750D01*
G01*
X103075000Y-93373750D01*
G75*
G02*
X103318750Y-93130000I243750J0D01*
G01*
X103881250Y-93130000D01*
G75*
G02*
X104125000Y-93373750I0J-243750D01*
G01*
X104125000Y-93861250D01*
G75*
G02*
X103881250Y-94105000I-243750J0D01*
G01*
G37*
G36*
G01*
X103881250Y-92530000D02*
X103318750Y-92530000D01*
G75*
G02*
X103075000Y-92286250I0J243750D01*
G01*
X103075000Y-91798750D01*
G75*
G02*
X103318750Y-91555000I243750J0D01*
G01*
X103881250Y-91555000D01*
G75*
G02*
X104125000Y-91798750I0J-243750D01*
G01*
X104125000Y-92286250D01*
G75*
G02*
X103881250Y-92530000I-243750J0D01*
G01*
G37*
G04 #@! TD*
G04 #@! TO.C,R2*
G36*
G01*
X104360000Y-89928750D02*
X104360000Y-90491250D01*
G75*
G02*
X104116250Y-90735000I-243750J0D01*
G01*
X103628750Y-90735000D01*
G75*
G02*
X103385000Y-90491250I0J243750D01*
G01*
X103385000Y-89928750D01*
G75*
G02*
X103628750Y-89685000I243750J0D01*
G01*
X104116250Y-89685000D01*
G75*
G02*
X104360000Y-89928750I0J-243750D01*
G01*
G37*
G36*
G01*
X105935000Y-89928750D02*
X105935000Y-90491250D01*
G75*
G02*
X105691250Y-90735000I-243750J0D01*
G01*
X105203750Y-90735000D01*
G75*
G02*
X104960000Y-90491250I0J243750D01*
G01*
X104960000Y-89928750D01*
G75*
G02*
X105203750Y-89685000I243750J0D01*
G01*
X105691250Y-89685000D01*
G75*
G02*
X105935000Y-89928750I0J-243750D01*
G01*
G37*
G04 #@! TD*
G04 #@! TO.C,R5*
G36*
G01*
X105935000Y-88288750D02*
X105935000Y-88851250D01*
G75*
G02*
X105691250Y-89095000I-243750J0D01*
G01*
X105203750Y-89095000D01*
G75*
G02*
X104960000Y-88851250I0J243750D01*
G01*
X104960000Y-88288750D01*
G75*
G02*
X105203750Y-88045000I243750J0D01*
G01*
X105691250Y-88045000D01*
G75*
G02*
X105935000Y-88288750I0J-243750D01*
G01*
G37*
G36*
G01*
X104360000Y-88288750D02*
X104360000Y-88851250D01*
G75*
G02*
X104116250Y-89095000I-243750J0D01*
G01*
X103628750Y-89095000D01*
G75*
G02*
X103385000Y-88851250I0J243750D01*
G01*
X103385000Y-88288750D01*
G75*
G02*
X103628750Y-88045000I243750J0D01*
G01*
X104116250Y-88045000D01*
G75*
G02*
X104360000Y-88288750I0J-243750D01*
G01*
G37*
G04 #@! TD*
D18*
G04 #@! TO.C,U3*
X105478000Y-94242000D03*
X106428000Y-94242000D03*
X107378000Y-94242000D03*
X107378000Y-92042000D03*
X105478000Y-92042000D03*
G04 #@! TD*
D13*
G04 #@! TO.C,J4*
X98600000Y-88300000D03*
D14*
X101140000Y-88300000D03*
G04 #@! TD*
M02*
