M48
INCH,TZ
T1C0.0157
T2C0.0394
%
G90
G05
T1
X38465Y-37559
X38465Y-38661
X38559Y-35772
X38602Y-36437
X38878Y-37559
X38878Y-38661
X39075Y-36437
X39291Y-37559
X39291Y-38661
X39606Y-36437
X39724Y-37559
X39724Y-38661
X39776Y-35697
X40098Y-36555
X40157Y-37008
X40157Y-37598
X40157Y-38622
X40157Y-39213
X40352Y-35894
X40375Y-35111
X40591Y-37598
X40591Y-38622
X40886Y-38937
X41004Y-37618
X41299Y-39114
X41339Y-37874
X41530Y-36683
X41702Y-38091
X41702Y-39114
X41909Y-36591
X41909Y-37579
X42047Y-35157
X42105Y-38091
X42105Y-39114
X42421Y-34764
X42508Y-38091
X42508Y-39114
X42588Y-37103
X42910Y-38091
X42910Y-39114
X43235Y-35707
X43313Y-38091
X43313Y-39114
X43716Y-38091
X43716Y-39114
X43823Y-35728
X44119Y-38091
X44119Y-39114
X44350Y-35720
X44522Y-39114
X44525Y-38091
X44803Y-37677
X44839Y-35720
X44863Y-36816
X44924Y-39114
X44927Y-38091
X45327Y-39114
X45330Y-38091
X45370Y-35740
X45418Y-37363
X45730Y-38091
X45731Y-39114
X45811Y-35736
X46115Y-37237
X46119Y-36737
X46133Y-38091
X46134Y-39114
X46325Y-35733
X46555Y-39114
X46890Y-34547
X46890Y-35413
X46982Y-39114
X47001Y-38091
X47245Y-36312
X47385Y-39114
X47717Y-36850
X47728Y-35209
X47776Y-37421
X47776Y-37874
X47788Y-39114
X47972Y-34587
X48051Y-35886
X48051Y-36988
X48091Y-36496
X48091Y-39449
X48130Y-38878
X48386Y-37579
X48465Y-38642
X48543Y-34921
X48543Y-36437
X48657Y-35650
X48858Y-37559
X48858Y-38642
X49035Y-36437
X49169Y-35650
X49291Y-37559
X49291Y-38642
X49528Y-36437
X49650Y-35638
X49724Y-37559
X49724Y-38642
T2
X38819Y-34764
X39819Y-34764
X43228Y-34764
X44228Y-34764
X45228Y-34764
X46228Y-34764
T0
M30
